<?xml version="1.0" standalone="no"?>
<!DOCTYPE svg PUBLIC "-//W3C//DTD SVG 20010904//EN"
 "http://www.w3.org/TR/2001/REC-SVG-20010904/DTD/svg10.dtd">
<svg version="1.0" xmlns="http://www.w3.org/2000/svg"
 width="787.000000pt" height="960.000000pt" viewBox="0 0 787.000000 960.000000"
 preserveAspectRatio="xMidYMid meet">
<metadata>
Created by potrace 1.15, written by Peter Selinger 2001-2017
</metadata>
<g transform="translate(0.000000,960.000000) scale(0.100000,-0.100000)"
fill="#000000" stroke="none">
<path d="M3200 9571 c-152 -12 -230 -22 -230 -30 0 -4 58 -171 129 -371 l129
-363 43 -2 c24 -1 52 -4 63 -6 27 -6 650 723 626 732 -71 29 -564 54 -760 40z"/>
<path d="M2845 9529 c-142 -27 -469 -110 -482 -123 -2 -2 10 -18 28 -35 27
-27 30 -36 25 -66 -6 -29 6 -59 90 -227 l97 -193 23 130 c13 72 23 142 23 158
1 25 -2 27 -39 27 -36 0 -40 3 -40 25 0 23 4 25 40 25 l40 0 0 55 c0 52 1 55
25 55 24 0 25 -3 25 -55 l0 -55 35 0 c31 0 35 -3 35 -25 0 -22 -4 -25 -35 -25
-34 0 -35 -1 -35 -37 0 -28 68 -443 74 -449 5 -6 348 -34 356 -29 6 3 10 15
10 27 0 11 16 36 35 55 19 19 35 38 35 42 0 3 -58 168 -129 366 -128 357 -129
360 -157 362 -16 0 -51 -3 -79 -8z"/>
<path d="M3972 9496 c-16 -17 -161 -186 -321 -374 -291 -342 -292 -344 -274
-365 10 -12 19 -24 20 -26 3 -4 662 189 672 196 5 4 41 212 41 241 0 19 -5 22
-40 22 -36 0 -40 3 -40 25 0 22 4 25 38 25 l39 0 -5 55 -4 55 31 0 c31 0 31 0
31 -55 l0 -55 35 0 c31 0 35 -3 35 -25 0 -22 -4 -25 -35 -25 -33 0 -35 -2 -35
-33 0 -30 12 -114 25 -173 5 -22 74 6 625 247 l45 20 -77 35 c-196 89 -447
171 -665 218 l-111 24 -30 -32z"/>
<path d="M2115 9311 c-159 -69 -328 -157 -462 -241 -114 -71 -263 -178 -263
-188 0 -7 305 -147 319 -147 4 0 125 129 268 288 168 185 263 297 266 315 3
15 5 28 4 28 -1 1 -60 -24 -132 -55z"/>
<path d="M1980 9004 c-140 -156 -255 -289 -254 -296 0 -7 23 -147 49 -310 l49
-296 29 -6 c25 -5 52 14 248 175 122 100 223 188 226 196 3 7 2 182 -2 388 -6
321 -9 375 -22 375 -8 0 -27 13 -41 28 l-27 28 -255 -282z"/>
<path d="M2368 9241 l-28 -16 0 -379 c0 -360 1 -378 18 -364 28 24 197 162
200 163 1 1 11 50 21 110 l20 107 -59 117 c-32 64 -78 152 -102 197 l-43 80
-27 -15z"/>
<path d="M4545 9100 c-176 -76 -326 -142 -334 -147 -9 -6 87 -49 302 -136
l316 -127 27 25 c51 47 134 21 152 -47 l8 -32 439 -98 c242 -53 445 -96 450
-94 14 4 -230 251 -340 344 -120 101 -251 197 -368 271 -110 69 -310 181 -323
181 -5 0 -153 -63 -329 -140z"/>
<path d="M4276 8438 c46 -271 86 -508 89 -525 13 -71 33 -47 270 314 206 314
226 349 214 368 -7 11 -15 34 -19 50 -5 29 -16 34 -320 157 -173 70 -316 128
-316 128 -1 0 36 -222 82 -492z"/>
<path d="M3735 8811 l-320 -96 -6 -45 c-4 -25 -6 -46 -5 -47 5 -5 559 -193
570 -193 8 0 25 73 50 223 21 122 40 230 42 240 3 9 2 16 -3 16 -4 -1 -152
-45 -328 -98z"/>
<path d="M1244 8766 c-202 -173 -412 -408 -563 -631 -87 -127 -153 -236 -148
-241 2 -3 125 58 273 135 266 139 269 140 266 170 -4 34 26 71 57 71 10 0 22
8 26 18 4 9 44 123 90 252 46 129 90 254 99 278 8 23 14 42 12 42 -2 0 -52
-42 -112 -94z"/>
<path d="M1270 8563 c-97 -272 -104 -299 -90 -316 8 -9 17 -27 20 -40 5 -19
34 -29 265 -89 143 -37 265 -67 270 -67 6 0 24 12 42 27 l32 28 -50 299 c-28
165 -56 305 -62 311 -13 11 -303 144 -315 144 -4 0 -55 -134 -112 -297z"/>
<path d="M2780 8685 c0 -5 13 -80 28 -165 l28 -156 173 -254 c95 -140 177
-259 182 -265 22 -23 30 28 44 290 8 154 17 306 20 337 5 58 5 58 -28 72 -39
16 -87 70 -87 97 0 10 -3 19 -7 20 -5 0 -86 8 -180 18 -115 11 -173 13 -173 6z"/>
<path d="M2218 8349 l-326 -269 15 -30 c8 -18 12 -42 9 -58 -6 -26 1 -31 231
-169 130 -78 239 -140 241 -138 7 7 168 935 163 935 -4 -1 -153 -122 -333
-271z"/>
<path d="M4981 8595 c-22 -24 -39 -29 -86 -26 -20 1 -25 -7 -406 -594 -55 -85
-64 -104 -54 -118 10 -15 35 -7 246 77 129 51 452 180 719 286 267 105 489
195 494 198 8 5 -849 201 -879 202 -5 0 -21 -12 -34 -25z"/>
<path d="M3375 8583 c-11 -13 -38 -30 -60 -37 -25 -9 -41 -21 -42 -33 -4 -32
-33 -579 -33 -620 0 -32 6 -43 29 -61 l29 -21 296 48 c163 26 298 49 300 52 6
7 89 490 84 494 -2 3 -135 49 -294 103 l-289 99 -20 -24z"/>
<path d="M5921 8323 c-11 -92 -11 -97 9 -118 21 -22 27 -64 11 -80 -11 -11
218 -957 231 -953 4 2 70 97 148 211 l141 208 -88 172 c-94 184 -246 422 -364
568 -40 49 -73 89 -74 89 -1 0 -7 -43 -14 -97z"/>
<path d="M5441 8219 c-260 -103 -474 -189 -475 -191 -2 -2 134 -522 146 -559
2 -5 163 139 358 322 334 311 355 333 356 367 1 35 23 62 51 62 7 0 13 1 14 3
2 8 26 182 25 183 0 1 -214 -83 -475 -187z"/>
<path d="M2911 7953 c36 -203 79 -441 95 -530 16 -90 31 -163 34 -163 3 0 18
51 34 113 16 61 31 116 34 121 3 5 26 -60 52 -145 44 -146 49 -176 96 -556 27
-222 52 -403 55 -403 3 0 25 45 49 100 25 55 48 96 51 92 4 -4 28 -52 53 -107
25 -55 46 -98 46 -95 1 3 11 86 24 185 l24 180 -156 483 -156 482 -36 18 c-33
16 -35 20 -34 62 1 42 -8 59 -154 275 -85 127 -160 236 -166 243 -7 7 18 -153
55 -355z"/>
<path d="M1162 8153 c-18 -13 -28 -14 -47 -5 -22 10 -54 -3 -310 -136 -156
-81 -285 -150 -285 -153 0 -3 110 -139 245 -302 244 -294 246 -296 283 -295
20 1 47 -2 59 -6 19 -6 61 37 337 346 212 235 313 355 306 362 -5 5 -10 22
-10 37 0 25 -6 29 -52 43 -96 27 -485 126 -494 125 -5 0 -19 -7 -32 -16z"/>
<path d="M5489 7789 c-189 -177 -350 -327 -357 -333 -11 -11 -10 -25 4 -79 14
-58 19 -67 39 -67 37 0 68 -32 74 -79 l6 -43 240 -102 240 -103 3 26 c127 986
138 1087 128 1093 -6 4 -16 8 -22 8 -6 0 -165 -144 -355 -321z"/>
<path d="M5890 8085 c0 -21 -199 -1586 -205 -1612 -3 -13 -2 -23 2 -23 5 1
112 156 239 346 l231 345 -120 480 c-85 342 -123 479 -133 479 -8 0 -14 -7
-14 -15z"/>
<path d="M4693 7922 c-179 -71 -243 -101 -247 -115 -3 -14 61 -71 315 -273
176 -140 322 -254 325 -254 3 0 16 8 28 18 l22 17 -86 325 c-48 179 -90 337
-93 353 -4 15 -11 27 -15 26 -4 0 -116 -44 -249 -97z"/>
<path d="M1883 7942 c-9 -5 25 -103 120 -349 73 -189 134 -343 137 -343 6 0
60 197 60 218 0 6 4 12 9 12 5 0 28 -54 52 -120 24 -66 46 -120 49 -120 3 0
20 89 39 198 18 108 36 202 38 209 2 6 -98 72 -230 152 -258 155 -257 154
-274 143z"/>
<path d="M1465 7604 c-165 -184 -306 -343 -313 -353 -9 -13 -10 -25 -2 -45 12
-32 -7 -88 -36 -104 -16 -9 -12 -35 52 -383 l70 -374 36 -6 c20 -3 48 -13 62
-22 l26 -17 377 298 378 298 7 164 7 165 -135 350 -136 350 -31 1 c-18 0 -39
3 -47 7 -11 5 -98 -87 -315 -329z"/>
<path d="M3583 7842 c-176 -29 -283 -51 -283 -58 0 -6 -9 -23 -21 -37 l-20
-27 148 -455 c81 -250 150 -455 153 -455 3 0 16 84 29 188 20 168 50 298 107
471 8 23 14 8 48 -115 26 -92 35 -113 40 -94 8 32 106 604 106 619 0 14 23 17
-307 -37z"/>
<path d="M468 7782 c-20 -37 -57 -113 -82 -169 l-45 -103 211 -482 c115 -266
212 -489 215 -495 3 -7 18 -13 33 -13 36 0 80 -50 80 -90 0 -27 9 -34 127 -94
l126 -64 29 29 c16 16 36 29 44 29 8 0 14 3 14 8 0 8 -127 694 -135 730 -4 15
-13 22 -29 22 -31 0 -72 33 -80 65 -4 16 0 39 10 60 l16 34 -243 293 c-133
161 -245 296 -248 300 -4 5 -23 -22 -43 -60z"/>
<path d="M4415 7766 c-11 -6 -21 -11 -22 -12 -3 0 85 -512 90 -528 2 -5 23 47
48 117 24 70 46 127 49 127 3 0 23 -68 44 -151 31 -121 40 -176 45 -279 l6
-128 201 131 200 131 0 45 -1 46 -320 256 c-280 223 -323 254 -340 245z"/>
<path d="M6255 7260 c-130 -192 -205 -314 -199 -319 5 -5 126 -86 270 -179
234 -152 263 -168 279 -156 22 17 69 18 95 4 18 -9 19 -7 15 17 -2 16 -12 78
-20 138 -33 221 -97 467 -180 681 -25 65 -47 119 -49 121 -1 1 -96 -137 -211
-307z"/>
<path d="M320 7455 c-85 -224 -195 -655 -173 -676 25 -23 566 -290 578 -285 9
3 18 12 21 20 4 11 -368 888 -406 956 -7 12 -11 9 -20 -15z"/>
<path d="M5220 7158 c-27 -22 -78 -24 -106 -4 -19 13 -36 4 -232 -125 l-212
-139 0 -38 0 -39 468 -195 c403 -168 469 -193 483 -182 8 8 21 14 27 14 6 0
13 4 16 8 5 8 66 466 66 494 0 16 -15 24 -291 141 -194 83 -196 84 -219 65z"/>
<path d="M5871 6689 c-155 -228 -162 -242 -151 -268 6 -15 8 -39 5 -53 -5 -21
29 -91 177 -362 101 -184 186 -336 189 -336 5 0 461 715 503 787 4 7 0 24 -9
37 -9 14 -15 39 -13 57 3 31 0 33 -265 205 -147 96 -269 174 -271 174 -1 0
-76 -108 -165 -241z"/>
<path d="M1755 6594 c-198 -157 -365 -290 -372 -297 -10 -9 -10 -20 0 -49 8
-21 15 -39 18 -42 5 -4 691 13 696 18 4 4 24 649 20 652 -1 1 -164 -126 -362
-282z"/>
<path d="M4674 6708 c3 -46 9 -220 12 -388 l6 -305 38 -18 37 -17 414 193
c365 170 414 196 414 216 0 20 -47 42 -454 212 -250 104 -459 189 -464 189 -5
0 -6 -36 -3 -82z"/>
<path d="M137 6753 c-11 -19 -30 -261 -31 -392 l-1 -143 194 -104 c107 -57
198 -101 202 -97 5 5 59 82 122 173 l114 165 -19 25 c-12 16 -18 36 -16 59 l3
34 -282 144 c-155 79 -283 140 -286 136z"/>
<path d="M6706 6474 c-11 -8 -36 -14 -55 -14 -35 0 -38 -3 -132 -153 -53 -83
-169 -266 -258 -406 l-161 -254 167 -308 c121 -222 175 -311 192 -319 30 -14
31 -12 72 100 132 363 188 670 196 1075 3 143 4 268 2 277 -4 15 -6 15 -23 2z"/>
<path d="M847 6367 c-16 -13 -41 -21 -62 -20 -34 1 -37 -3 -157 -175 l-122
-176 -78 -316 -79 -316 33 -35 33 -35 325 32 c179 19 326 33 328 34 1 0 2 8 2
18 0 23 40 62 63 62 9 0 17 7 17 16 0 8 18 146 40 306 22 161 40 295 40 298 0
3 -16 14 -35 23 -50 24 -77 71 -72 127 l4 46 -126 66 -126 66 -28 -21z"/>
<path d="M5195 6163 c-225 -106 -413 -194 -416 -195 -3 -2 -8 -16 -11 -33 -6
-28 -1 -33 65 -79 40 -26 185 -125 324 -218 l251 -170 31 23 c16 12 47 25 68
28 l37 6 51 401 c50 400 50 401 30 415 -18 14 -50 1 -430 -178z"/>
<path d="M5678 6333 c-10 -2 -18 -8 -18 -13 0 -5 -23 -186 -50 -402 -47 -370
-49 -394 -33 -403 10 -5 32 -25 50 -43 l32 -32 208 102 c114 57 209 104 211
104 5 3 -372 693 -378 692 -3 0 -13 -2 -22 -5z"/>
<path d="M104 6083 c13 -220 43 -415 97 -635 l32 -127 25 19 c13 11 35 20 48
20 18 0 25 8 33 38 30 112 149 597 148 598 -8 6 -381 204 -385 204 -3 0 -2
-53 2 -117z"/>
<path d="M1573 6193 c-175 -3 -183 -4 -183 -23 0 -11 -16 -37 -35 -58 l-34
-39 132 -301 c73 -166 137 -301 143 -299 6 1 103 61 217 132 l207 130 -6 33
c-7 39 16 72 51 72 20 0 23 6 28 83 4 45 7 126 7 180 l0 97 -172 -2 c-95 -2
-255 -4 -355 -5z"/>
<path d="M1249 6068 c0 -2 -20 -144 -43 -317 -43 -307 -43 -314 -25 -332 11
-11 19 -31 19 -46 1 -28 43 -60 502 -382 45 -32 50 -33 65 -18 15 14 4 42
-129 344 -80 180 -187 424 -239 540 -90 203 -95 213 -121 213 -16 0 -28 -1
-29 -2z"/>
<path d="M2888 5940 c-123 -21 -224 -97 -276 -208 -24 -51 -27 -69 -27 -167 0
-104 2 -114 33 -177 55 -113 150 -178 287 -197 80 -12 176 -1 251 26 l47 18 1
73 c1 39 0 72 0 72 -1 0 -28 -12 -60 -27 -86 -39 -193 -44 -254 -11 -89 48
-133 158 -111 282 14 77 52 134 111 164 63 33 181 28 257 -11 29 -15 54 -27
55 -27 2 0 2 32 1 72 l-1 72 -42 18 c-77 33 -179 43 -272 28z"/>
<path d="M4143 5940 c-60 -13 -118 -45 -147 -83 -49 -64 -56 -179 -15 -246 29
-48 87 -79 200 -107 126 -32 157 -47 165 -79 19 -76 -34 -111 -157 -102 -67 4
-111 17 -216 64 -10 4 -13 -15 -13 -75 l0 -80 66 -16 c110 -28 209 -37 285
-26 150 21 219 94 219 229 0 136 -51 182 -252 227 -119 26 -158 48 -158 91 0
28 30 60 65 69 45 11 177 -2 238 -24 l58 -21 -3 77 -3 76 -60 12 c-85 17 -223
24 -272 14z"/>
<path d="M2330 5565 l0 -365 90 0 90 0 0 365 0 365 -90 0 -90 0 0 -365z"/>
<path d="M3340 5566 l0 -366 95 0 95 0 0 130 0 130 109 0 c119 0 172 13 229
57 53 40 75 100 70 193 -3 68 -7 84 -33 121 -18 26 -50 53 -80 68 -48 25 -57
26 -267 29 l-218 3 0 -365z m360 219 c37 -19 50 -43 50 -90 0 -76 -41 -105
-150 -105 l-70 0 0 105 0 105 70 0 c44 0 82 -6 100 -15z"/>
<path d="M4718 5883 c-16 -4 -18 -20 -17 -151 0 -223 16 -742 22 -749 3 -3
155 71 338 164 l332 169 1 72 0 72 -318 215 c-175 118 -324 214 -330 214 -6
-1 -19 -3 -28 -6z"/>
<path d="M1817 5591 c-119 -75 -216 -140 -216 -146 0 -5 44 -109 98 -230 94
-212 98 -220 129 -226 18 -4 42 -15 52 -24 19 -17 23 -16 104 38 l84 56 6 93
c3 51 8 199 11 329 l5 237 -28 4 c-23 3 -70 -22 -245 -131z"/>
<path d="M5871 5529 c-113 -55 -206 -100 -207 -102 -1 -1 -4 -24 -5 -50 l-3
-48 99 -46 c55 -25 123 -52 150 -60 28 -8 79 -32 115 -53 66 -39 349 -170 367
-170 6 0 16 6 22 14 10 11 -20 73 -151 312 -90 164 -168 299 -173 300 -6 1
-102 -42 -214 -97z"/>
<path d="M730 5309 c-146 -15 -277 -28 -292 -28 -17 -1 -28 -7 -28 -15 0 -8
-12 -28 -26 -45 -21 -25 -33 -31 -65 -31 -21 0 -39 -2 -39 -3 0 -12 45 -132
86 -227 41 -99 49 -111 68 -106 11 2 120 23 241 46 121 22 228 43 238 46 11 3
52 75 108 186 101 201 101 209 20 207 -25 -1 -165 -14 -311 -30z"/>
<path d="M1153 5318 c-26 -16 -51 -55 -124 -200 -50 -99 -89 -181 -87 -183 2
-2 84 -73 182 -158 171 -147 181 -153 207 -143 21 7 34 7 52 -3 23 -12 35 -6
195 101 147 98 169 116 160 131 -5 10 -8 33 -6 52 3 34 2 34 -263 223 -147
104 -270 192 -275 194 -5 3 -24 -4 -41 -14z"/>
<path d="M5158 5180 c-136 -69 -250 -128 -254 -132 -4 -4 -1 -21 6 -38 l13
-30 31 20 c126 83 303 162 448 200 86 23 115 43 77 55 -10 4 -31 16 -47 28
l-27 22 -247 -125z"/>
<path d="M6080 5112 c1 -4 7 -18 15 -32 18 -32 19 -130 1 -197 -8 -29 -13 -53
-12 -53 1 0 67 26 146 58 99 40 146 64 148 75 3 13 -16 26 -72 52 -42 19 -110
50 -151 69 -41 19 -75 32 -75 28z"/>
<path d="M1988 4988 c-68 -44 -78 -54 -78 -80 0 -17 -7 -42 -16 -58 -17 -27
-16 -28 72 -183 l89 -156 8 177 c4 97 6 216 5 264 l-3 88 -77 -52z"/>
<path d="M4798 4998 l-78 -42 0 -73 0 -74 73 63 c39 35 82 71 95 80 22 15 23
17 8 52 -8 20 -16 36 -18 36 -2 0 -38 -19 -80 -42z"/>
<path d="M658 4882 l-236 -46 45 -90 c175 -349 472 -728 771 -984 57 -49 62
-52 62 -30 0 12 9 192 20 398 l20 374 -26 24 c-18 17 -24 32 -22 54 3 27 -12
42 -182 189 -102 87 -192 158 -200 158 -8 -1 -121 -22 -252 -47z"/>
<path d="M6235 4874 c-77 -30 -145 -61 -151 -67 -12 -13 -35 -118 -59 -267
-19 -121 -20 -118 11 -89 39 36 229 250 317 358 71 86 76 95 60 107 -10 7 -22
13 -28 13 -5 0 -73 -25 -150 -55z"/>
<path d="M2361 4886 c-119 -43 -131 -236 -18 -290 39 -18 122 -21 161 -6 20 7
26 17 26 39 l0 29 -43 -16 c-72 -26 -128 4 -141 73 -8 42 14 99 44 115 23 12
91 10 123 -4 14 -7 17 -3 17 22 0 27 -5 32 -37 41 -48 14 -89 13 -132 -3z"/>
<path d="M2665 4882 c-54 -26 -79 -72 -79 -142 0 -104 53 -160 153 -160 106 0
161 55 161 160 0 95 -47 148 -142 156 -39 4 -63 0 -93 -14z m134 -68 c32 -40
29 -126 -4 -159 -69 -70 -160 24 -125 130 13 41 33 54 77 55 22 0 38 -8 52
-26z"/>
<path d="M3293 4881 c-55 -25 -77 -68 -78 -146 0 -69 18 -105 68 -135 42 -26
130 -27 176 -2 90 48 96 212 10 274 -39 29 -125 33 -176 9z m137 -68 c31 -39
25 -137 -9 -164 -67 -54 -145 19 -126 117 14 75 92 101 135 47z"/>
<path d="M3670 4878 c-58 -30 -85 -76 -84 -144 1 -64 30 -115 78 -138 39 -19
138 -21 185 -5 l31 11 0 74 0 74 -60 0 c-57 0 -60 -1 -60 -25 0 -20 5 -25 26
-25 23 0 25 -3 22 -32 -3 -36 -26 -46 -74 -34 -78 20 -95 158 -23 196 22 12
108 9 142 -5 14 -6 17 -2 17 23 0 27 -5 32 -37 41 -60 17 -115 13 -163 -11z"/>
<path d="M2970 4735 l0 -155 110 0 110 0 0 30 0 30 -70 0 -70 0 0 125 0 125
-40 0 -40 0 0 -155z"/>
<path d="M3940 4735 l0 -155 35 0 34 0 3 108 3 107 58 -107 58 -108 45 0 44 0
0 155 0 155 -41 0 -40 0 3 -100 c2 -55 0 -100 -3 -100 -3 0 -29 45 -58 100
l-52 100 -45 0 -44 0 0 -155z"/>
<path d="M4270 4735 l0 -155 110 0 110 0 0 30 0 30 -70 0 -70 0 0 40 0 40 65
0 c63 0 65 1 65 25 0 24 -2 25 -65 25 l-65 0 0 35 0 35 65 0 c63 0 65 1 65 25
l0 25 -105 0 -105 0 0 -155z"/>
<path d="M1579 4717 c-142 -95 -166 -115 -166 -137 1 -14 -2 -32 -6 -40 -4
-10 43 -79 141 -205 l147 -191 120 27 c66 15 145 32 176 38 l57 12 7 123 7
123 -99 175 -98 175 -35 0 c-19 -1 -46 2 -60 5 -21 6 -54 -12 -191 -105z"/>
<path d="M1363 4508 c-4 -7 -17 -191 -29 -408 l-21 -395 35 -32 c43 -41 260
-195 324 -231 l46 -26 97 89 c53 50 121 113 152 141 l56 50 -318 412 c-175
227 -322 412 -326 412 -4 0 -11 -6 -16 -12z"/>
<path d="M2350 4257 l-45 -12 -3 -58 -3 -57 42 22 c102 53 199 27 199 -52 0
-47 -20 -73 -149 -185 l-91 -79 0 -50 0 -51 190 0 190 0 0 48 0 47 -117 0
-118 1 40 36 c175 158 205 201 191 277 -8 44 -50 94 -93 112 -39 17 -170 17
-233 1z"/>
<path d="M3005 4256 c-83 -36 -130 -144 -123 -281 9 -163 79 -246 211 -247
145 -1 217 90 217 271 0 133 -37 213 -114 251 -49 23 -144 27 -191 6z m149
-109 c18 -25 21 -42 21 -140 0 -128 -12 -169 -56 -187 -24 -10 -33 -10 -54 4
-36 24 -45 47 -52 134 -6 87 8 176 34 205 25 27 81 19 107 -16z"/>
<path d="M4145 4256 c-37 -16 -92 -77 -101 -112 -11 -45 1 -129 24 -161 44
-62 159 -86 231 -48 l34 17 -6 -32 c-20 -99 -123 -136 -239 -85 -16 6 -18 1
-18 -39 0 -41 3 -48 27 -57 15 -5 62 -10 105 -11 91 0 154 24 193 76 54 71 78
182 51 234 -9 17 -16 52 -16 78 0 91 -80 154 -195 153 -33 0 -74 -6 -90 -13z
m145 -86 c15 -15 20 -33 20 -75 0 -65 -22 -95 -70 -95 -48 0 -70 30 -70 95 0
65 22 95 70 95 17 0 39 -9 50 -20z"/>
<path d="M3603 4248 c-43 -9 -43 -9 -43 -55 0 -42 2 -45 23 -40 12 4 41 9 65
13 l42 7 0 -172 0 -171 -60 0 -60 0 0 -47 0 -48 180 0 180 0 0 48 0 47 -60 0
-60 0 0 215 0 215 -82 -1 c-46 -1 -102 -5 -125 -11z"/>
<path d="M4792 4187 l-52 -53 0 -127 0 -127 180 0 180 0 0 38 c0 20 3 47 6 58
6 21 5 21 -47 8 -29 -8 -82 -14 -116 -14 -55 0 -67 4 -95 29 -30 27 -33 34
-31 88 0 32 8 78 17 102 9 24 15 46 13 47 -2 2 -27 -20 -55 -49z"/>
<path d="M1883 4170 c-89 -19 -164 -37 -167 -40 -3 -3 68 -100 157 -215 l162
-210 8 175 c4 96 6 209 5 250 l-3 75 -162 -35z"/>
<path d="M4748 3864 c-2 -2 -1 -26 2 -53 l5 -51 138 -85 138 -85 139 102 c77
56 139 102 138 104 -2 1 -25 -2 -52 -7 -63 -12 -91 -4 -124 36 l-27 32 -177 5
c-97 3 -179 4 -180 2z"/>
<path d="M4751 3579 l2 -164 -60 -3 -61 -3 -5 -36 c-4 -21 -5 -38 -4 -40 6 -5
387 238 387 247 0 5 -232 151 -252 159 -6 2 -8 -63 -7 -160z"/>
<path d="M1900 3564 c-69 -63 -136 -126 -149 -138 l-23 -24 213 -105 c189 -94
432 -191 527 -212 31 -6 27 0 -99 164 l-132 171 -105 0 -104 0 7 130 c4 72 3
130 -1 130 -5 0 -65 -52 -134 -116z"/>
<path d="M2266 3408 c8 -13 240 -315 255 -332 5 -5 59 38 125 100 64 60 139
129 167 154 45 41 49 48 38 68 -12 22 -13 22 -302 22 -230 0 -289 -3 -283 -12z"/>
<path d="M2960 3416 c0 -3 120 -66 266 -141 l266 -137 33 32 c45 44 117 53
170 21 l36 -21 134 118 c73 64 134 120 134 125 1 4 -233 7 -519 7 -286 0 -520
-2 -520 -4z"/>
<path d="M3887 3290 c-102 -91 -147 -136 -143 -147 24 -63 17 -118 -20 -158
l-25 -27 63 7 c204 21 433 68 627 127 89 28 106 36 114 58 6 15 23 34 39 43
34 20 35 30 3 55 -27 22 -24 27 33 56 29 15 32 20 32 64 l0 47 -288 4 -287 3
-148 -132z"/>
<path d="M2942 3388 c-5 -5 -24 -13 -40 -17 -41 -8 -359 -301 -340 -312 22
-12 296 -67 420 -84 62 -9 219 -19 348 -22 l235 -6 -32 27 c-34 29 -56 85 -47
122 7 27 9 25 -307 187 -157 81 -229 113 -237 105z"/>
<path d="M1637 1703 l-39 -16 5 -56 c37 -452 51 -816 36 -965 -11 -112 -10
-120 8 -145 33 -43 65 -49 112 -18 l40 26 4 148 c5 149 15 235 32 263 21 36
101 130 111 130 6 0 18 -8 26 -17 26 -29 75 -191 87 -288 6 -49 13 -105 16
-124 10 -77 73 -95 132 -36 22 22 33 42 30 53 -3 9 -35 120 -71 246 -68 233
-87 280 -133 316 -55 43 -135 11 -203 -83 -25 -33 -49 -60 -55 -59 -20 3 -26
120 -21 360 5 231 4 244 -15 263 -23 23 -51 23 -102 2z"/>
<path d="M5433 1712 c-50 -15 -60 -35 -52 -93 23 -151 52 -812 41 -924 -5 -44
-10 -84 -12 -90 -9 -35 3 -70 36 -101 34 -33 36 -33 65 -18 66 34 69 41 69
184 0 71 4 149 10 172 5 24 12 55 15 69 6 32 103 159 121 159 44 0 99 -174
124 -388 9 -83 28 -112 73 -112 36 0 98 58 93 86 -2 11 -21 75 -41 144 -20 69
-50 172 -67 230 -31 112 -54 158 -95 190 -55 43 -135 11 -203 -83 -25 -34 -49
-61 -55 -60 -20 4 -27 113 -21 356 5 236 4 249 -15 268 -19 19 -45 22 -86 11z"/>
<path d="M3086 1681 c-30 -32 -30 -27 -8 -156 6 -33 16 -136 21 -230 6 -93 16
-244 22 -335 7 -91 12 -208 13 -260 2 -77 6 -104 25 -143 22 -45 25 -47 66
-47 61 0 86 24 93 88 3 39 0 59 -15 85 -31 52 -42 95 -59 223 -20 164 -30 585
-14 644 6 25 14 55 17 68 19 78 -102 125 -161 63z"/>
<path d="M6159 1587 c-34 -23 -46 -49 -48 -104 -1 -45 21 -63 79 -63 41 0 55
5 85 31 59 52 42 118 -38 148 -38 15 -39 14 -78 -12z"/>
<path d="M514 1501 c-184 -103 -204 -115 -274 -171 -90 -72 -149 -130 -167
-164 -20 -39 -19 -93 3 -118 42 -46 69 -51 297 -59 213 -7 266 -15 317 -48 52
-33 61 -63 35 -124 -20 -49 -136 -151 -214 -190 -60 -29 -75 -32 -182 -36
-150 -4 -168 4 -201 91 -23 60 -25 63 -58 63 -30 0 -37 -5 -53 -37 -39 -80 4
-173 104 -224 43 -21 61 -24 156 -24 194 1 305 49 471 206 108 101 132 142
134 222 2 69 -24 117 -81 155 -73 48 -130 59 -354 64 -236 6 -251 11 -220 64
36 61 258 202 337 213 97 15 206 72 206 109 0 10 -14 32 -31 48 -49 46 -83 40
-225 -40z"/>
<path d="M5042 1309 c-13 -5 -75 -55 -138 -111 -63 -56 -122 -106 -132 -111
-28 -16 -82 -69 -113 -114 -47 -68 -33 -131 34 -151 17 -6 95 -13 172 -16 216
-10 255 -30 170 -87 -71 -47 -201 -90 -300 -100 -111 -10 -123 -14 -131 -46
-5 -18 0 -32 22 -54 41 -43 82 -41 259 11 39 11 121 45 182 76 87 43 123 67
158 106 57 63 64 88 35 127 -33 47 -168 84 -352 96 -57 4 -98 11 -98 17 0 27
182 154 260 182 47 16 80 56 80 97 0 68 -47 103 -108 78z"/>
<path d="M7628 1306 c-16 -8 -77 -58 -137 -111 -60 -53 -122 -105 -137 -115
-61 -37 -134 -137 -134 -181 0 -35 25 -66 63 -77 17 -6 95 -13 172 -16 164 -8
215 -18 215 -45 0 -44 -205 -128 -346 -141 -111 -11 -120 -15 -129 -48 -10
-40 40 -82 98 -82 110 1 397 111 496 190 21 18 50 51 62 75 19 36 21 47 11 69
-6 14 -22 32 -35 41 -40 26 -205 62 -317 69 -57 4 -107 9 -109 12 -11 11 73
80 163 135 55 32 104 59 109 59 5 0 22 9 38 21 25 18 29 27 29 68 0 77 -49
110 -112 77z"/>
<path d="M1320 1273 c0 -5 -48 -60 -106 -123 -122 -133 -166 -213 -204 -371
l-23 -96 23 -47 c33 -70 63 -101 122 -126 78 -34 147 -25 269 34 101 49 143
83 137 112 -7 38 -33 39 -110 5 -53 -24 -93 -35 -145 -38 l-72 -6 -35 39 c-32
35 -36 45 -36 95 0 107 61 232 158 322 28 26 56 47 62 47 5 0 28 16 50 36 31
28 40 44 40 68 0 18 -5 37 -12 44 -13 13 -118 17 -118 5z"/>
<path d="M4120 1248 c-11 -18 -20 -40 -21 -48 -3 -61 -9 -393 -9 -472 l1 -97
-37 -16 c-110 -46 -174 24 -174 193 0 31 5 114 11 184 14 145 12 151 -55 169
-22 7 -58 25 -78 41 -22 17 -55 31 -83 35 -39 5 -49 2 -70 -17 -36 -34 -79
-114 -127 -237 -41 -106 -42 -111 -42 -233 -1 -181 19 -223 120 -253 51 -15
52 -15 100 13 27 15 60 40 73 54 31 33 41 33 72 0 80 -88 155 -106 243 -59 47
25 47 25 82 6 40 -22 66 -18 112 17 38 27 38 35 7 146 -14 49 -15 73 -7 143 9
76 14 90 61 161 49 75 54 79 114 100 34 12 78 22 98 22 34 0 69 23 69 46 0 21
-68 75 -101 80 -41 7 -105 -15 -166 -56 l-46 -31 5 46 c5 41 3 48 -24 70 -21
17 -42 25 -69 25 -34 0 -42 -5 -59 -32z m-394 -230 c19 -36 18 -180 -1 -245
-19 -65 -91 -136 -133 -131 -66 8 -76 125 -24 278 27 79 43 110 76 148 l20 22
24 -22 c13 -13 30 -35 38 -50z"/>
<path d="M6509 1239 c-27 -10 -54 -53 -44 -70 4 -5 11 -123 16 -261 8 -194 8
-262 -2 -290 -10 -30 -9 -43 4 -77 9 -22 24 -99 33 -171 14 -103 15 -146 7
-203 -8 -59 -7 -78 5 -102 36 -74 62 -81 129 -33 42 30 45 35 40 68 -3 19 -15
91 -27 160 -11 69 -24 155 -27 192 l-6 67 53 28 c118 63 222 146 291 230 145
178 195 322 134 387 -14 15 -41 34 -61 42 -53 22 -219 19 -313 -5 l-74 -20
-30 35 c-33 36 -72 43 -128 23z m466 -169 c24 -20 18 -57 -22 -128 -47 -86
-128 -171 -221 -234 -107 -73 -106 -74 -110 116 -3 176 -3 175 67 219 70 43
247 60 286 27z"/>
<path d="M2571 1228 c-102 -13 -126 -34 -193 -172 l-53 -111 1 -95 c2 -155 45
-237 162 -311 40 -25 55 -29 121 -29 65 0 84 4 136 31 64 33 186 145 212 194
13 24 15 51 10 143 -7 136 -28 190 -112 281 -76 81 -113 91 -284 69z m196
-160 c110 -113 113 -269 6 -375 l-52 -53 -75 0 c-72 0 -78 2 -114 34 -22 20
-48 58 -61 92 l-24 57 18 76 c10 42 25 84 33 93 8 10 38 24 66 33 60 18 66 21
89 58 27 41 64 36 114 -15z"/>
<path d="M6164 1216 c-69 -30 -89 -93 -60 -186 15 -46 40 -236 52 -390 3 -47
11 -91 16 -97 6 -7 30 -13 53 -13 36 0 48 5 69 31 33 39 35 105 5 169 -31 66
-37 205 -14 320 21 103 16 128 -37 160 -38 23 -43 24 -84 6z"/>
</g>
</svg>
