<?xml version="1.0" encoding="UTF-8"?>
<svg id="Layer_1" data-name="Layer 1" xmlns="http://www.w3.org/2000/svg" viewBox="0 0 2086.22 732.94">
  <defs>
    <style>
      .cls-1 {
        fill: #fdfcfc;
      }

      .cls-2 {
        fill: #b81928;
      }

      .cls-3 {
        fill: #fefdfd;
      }

      .cls-4 {
        fill: #b91929;
      }

      .cls-5 {
        fill: #b81929;
      }

      .cls-6 {
        fill: #edc7cb;
      }

      .cls-7 {
        fill: #d9828a;
      }

      .cls-8 {
        fill: #f1d3d6;
      }

      .cls-9 {
        fill: #00589c;
      }

      .cls-10 {
        fill: #ba1c2c;
      }

      .cls-11 {
        fill: #b81828;
      }

      .cls-12 {
        fill: #fefefe;
      }

      .cls-13 {
        fill: #fdfbfb;
      }
    </style>
  </defs>
  <path class="cls-12" d="M1037.49,53.08h1008.27c1.09,0,2.2,.1,3.28-.02,1.36-.15,1.94,.15,1.68,1.67-.18,1.06-.04,2.18-.04,3.27V653.46c0,1.09-.12,2.2,.03,3.27,.21,1.44-.24,1.88-1.68,1.67-1.07-.15-2.18-.03-3.28-.03H29.22c-1.09,0-2.21-.12-3.28,.03-1.44,.2-1.91-.2-1.68-1.67,.17-1.07,.03-2.18,.03-3.27V58c0-1.09,.12-2.2-.03-3.27-.21-1.44,.24-1.88,1.68-1.67,1.07,.15,2.18,.03,3.28,.03h1008.27ZM218.12,377.54c-.41-3.06-1.04-6.11-1.2-9.18-1.43-27.86,1.76-55.1,10.94-81.55,8.72-25.13,21.87-47.48,41.54-65.66,8.86-8.19,18.45-15.21,30.27-18.89,17.21-5.36,34.73-7.77,52.72-7.09,2,.08,4.03,.2,6-.03,2.75-.33,3.48-1.83,1.86-4.16-1.22-1.75-2.83-3.32-4.53-4.64-9.73-7.57-20.83-12.51-32.43-16.43-13.68-4.63-27.86-6.8-42.11-8.65-7.79-1.01-15.38-2.85-22.33-6.7-8.9-4.93-11.96-12.19-9.35-21.99,.37-1.4,.74-2.81,1.29-4.14,2.76-6.69,5.7-13.31,8.34-20.05,2.32-5.94,4.31-12.02,2.67-18.54-1.09-4.36-3.2-5.25-7.16-2.92-5.15,3.04-10.17,6.3-15.29,9.38-4.57,2.76-5.15,2.47-6.06-2.97-.57-3.4-.76-6.88-1.54-10.23-1.65-7.14-5.39-8.47-11.37-4.28-.6,.42-1.21,.84-1.71,1.36-3.89,4.08-7.96,8.01-11.58,12.31-4.66,5.53-3.92,8.44-13.48,2.21-5.76-3.75-11.84-7.15-18.15-9.83-6.51-2.75-9.74,0-9.3,6.99,.11,1.81,.28,3.63,.54,5.43,.23,1.61,.78,3.19,.88,4.81,.21,3.63-.8,4.81-4.35,4.5-2.68-.24-5.31-1.1-7.96-1.7-2.83-.64-5.62-1.52-8.49-1.91-6.09-.82-8.97,2.62-7.12,8.51,.75,2.4,1.7,4.88,3.15,6.9,4.34,6.05,8.98,11.87,13.48,17.8,2.52,3.32,5.49,6.42,7.39,10.08,4.06,7.84,3.43,13.64-2.67,19.82-6.06,6.15-12.7,11.41-21.18,13.95-2.24,.67-4.39,1.75-6.47,2.85-7.7,4.07-15.24,8.46-23.08,12.24-4.46,2.15-8.75,4.33-12.36,7.76-7.67,7.3-14.74,15.13-20.93,23.72-8.5,11.81-13.53,25.26-17.23,39.09-3.13,11.7-6.25,23.53-6.11,35.87,.11,10.34,.08,20.69,0,31.04-.06,8.92,.46,17.76,2.31,26.54,3.77,17.96,8.13,35.7,16.35,52.26,6.95,14.01,14.03,27.91,25.31,39.12,2.72,2.7,5.5,5.33,8.09,8.15,10.72,11.67,23.9,19.38,38.83,24.35,17.7,5.89,35.81,9.43,54.53,9.42,6.93,0,13.86,.14,20.79-.04,7.46-.2,14.93-.43,22.35-1.14,6.31-.61,12.56-1.94,18.84-2.93,5.92-.94,11.53-.59,16.68,3.11,13.96,10.05,29.39,17.59,45.42,23.37,28.71,10.36,57.87,19.09,88.66,21.54,22.34,1.78,44.12-.31,65.07-7.59,27.96-9.72,49.06-28.86,65.78-52.71,7.7-10.99,13-23.34,16.8-36.41,4.4-15.12,7.13-30.46,7.24-46.08,.14-19.71-3.49-38.98-9.25-57.85-3.58-11.72-8.99-22.57-15.86-32.63-3.36-4.92-7.58-9.33-11.76-13.63-8.24-8.48-16.29-17.21-26.49-23.49-10.53-6.49-21.14-12.86-31.52-19.57-4.4-2.84-8.69-6.06-12.37-9.76-5.22-5.25-5.74-10.97-2.21-17.44,1.55-2.85,3.44-5.59,5.57-8.04,4.3-4.94,9.02-9.51,13.26-14.5,2.92-3.44,5.58-7.17,7.86-11.05,1.6-2.71,.66-4.54-2.33-5.32-2.07-.54-4.32-.56-6.49-.58-3.28-.03-6.56,.29-9.84,.18-3.99-.14-4.78-1.32-4.06-5.17,.6-3.2,1.56-6.4,1.6-9.61,.07-5.75-2.58-7.7-7.99-5.77-4.93,1.76-9.75,3.96-14.37,6.42-5.08,2.7-7.85,2.14-10.59-2.97-.69-1.28-1.07-2.75-1.91-3.9-2.88-3.95-5.61-8.07-8.97-11.59-2.95-3.09-5.2-2.54-7.31,1.28-1.66,3.01-2.93,6.24-4.33,9.39-2.32,5.21-3.03,5.37-7.1,1.5-1.06-1-1.98-2.16-3.12-3.06-2.13-1.7-4.19-3.6-6.58-4.81-6.13-3.12-8.34,.35-7.87,5.11,.93,9.54,1.5,19.15,4.36,28.47,1.3,4.25,1.52,8.9,1.76,13.39,.2,3.7-1.79,6.69-4.96,8.55-2.32,1.36-4.84,2.73-7.43,3.22-5.88,1.1-11.85,1.8-17.81,2.39-13.88,1.39-27.92,.28-41.66,4.12-14.34,4-27.02,10.59-37.94,20.56-9.33,8.52-16.89,18.58-23.83,29.07-11.39,17.21-20.51,35.54-25.93,55.49-2.85,10.49-5.05,21.17-7.06,31.85-1.47,7.84-2.16,15.83-3.2,23.75-.28,.02-.57,.02-.85-.01Zm873.93-65.14c.29-.07,.57-.14,.86-.2,.86,1.54,1.82,3.03,2.58,4.62,13.04,27.15,26.01,54.33,39.08,81.46,15.91,33.01,31.85,66.01,47.89,98.95,3.73,7.66,7.89,15.12,11.97,22.62,1.47,2.69,3.62,4.09,7.05,4.07,25.71-.14,51.41-.06,77.12-.09,4.79,0,4.84-.09,4.91-4.87,.31-20,.61-40.01,.86-60.01,.13-10.55,.17-21.11,.24-31.67,.29-40.58,.58-81.16,.86-121.74,.09-13.65,.19-27.3,.23-40.95,.07-29.31,.18-58.62,.11-87.93-.02-7.03,3.1-11.5,9.3-14.47,5.15-2.47,10.37-4.22,16.14-4.39,3.26-.1,6.5-.76,9.76-1.07,2.25-.21,3.09-1.28,3.05-3.55-.07-3.82,.1-7.64,.27-11.46,.2-4.53,.66-9.06,.73-13.59,.06-3.71-1.19-4.81-4.85-4.97-1.09-.05-2.19,0-3.28,0-39.02,0-78.03,0-117.05,0-12.22,0-24.43-.03-36.65,.02-3.56,.01-4.18,.56-4.07,4.08,.24,8.17,.78,16.34,.92,24.51,.05,2.89,1.23,3.68,3.87,3.95,5.78,.59,11.6,1.16,17.26,2.35,7.6,1.61,14.18,5.09,16.5,13.26,1.03,3.62,1.58,7.49,1.65,11.25,.24,13.83,.21,27.67,.22,41.5,.02,36.05,0,72.09,0,108.14,0,1.51-.14,3.02-.26,5.38-.87-1.35-1.3-1.9-1.6-2.52-3.94-8.17-7.85-16.36-11.8-24.53-17.38-35.94-34.8-71.87-52.17-107.81-12.24-25.33-24.47-50.66-36.57-76.05-1.27-2.67-2.74-3.89-5.74-3.89-6.36,0-12.72-.5-19.08-.47-27.51,.11-55.03,.33-82.54,.53-4.01,.03-8.02,.1-12.02,.24-1.63,.06-3.32,.18-4.84,.68-.72,.24-1.57,1.47-1.56,2.24,.1,7.81,.36,15.62,.6,23.43,.17,5.74,.2,5.59,5.66,6.39,6.64,.97,13.38,1.72,19.83,3.46,6.48,1.74,11.6,6.17,12.57,12.99,1.35,9.5,2.11,19.17,2.17,28.77,.21,32.04,.03,64.08-.06,96.12-.16,58.42-.36,116.85-.55,175.27,0,.55,.1,1.12-.02,1.63-.42,1.73-.64,3.58-1.43,5.14-3.97,7.81-11.46,10.19-19.23,11.74-4.26,.85-8.67,.97-13.02,1.38-4.43,.41-4.63,.54-4.81,4.78-.33,7.63-.61,15.25-.89,22.88-.18,5.06,.69,5.99,5.88,5.99,48.86,.01,97.72,.01,146.58,0,5.3,0,5.91-.54,5.78-6.07-.17-7.81-.74-15.61-.82-23.42-.03-2.63-1.01-3.59-3.34-3.85-4.16-.46-8.32-.91-12.46-1.46-4.7-.63-9.32-1.58-13.43-4.15-5.74-3.59-9.5-8.24-9.18-15.5,.34-7.62,.54-15.25,.57-22.88,.13-42.6,.18-85.2,.25-127.79,0-2.83,0-5.66,0-8.49Zm555.04,12.52c0-65.18,0-130.37,0-195.55,0-6.5-.81-7.39-7.15-7.28-10.37,.18-20.75,.6-31.12,.74-12.4,.16-24.79,.14-37.19,.18-37.01,.13-74.02,.22-111.02,.4-24.23,.12-48.47,.37-72.7,.53-4.9,.03-4.51,.08-4.51,4.43,.02,27.85,0,55.7,.02,83.55,0,4.85,.88,5.71,5.71,5.75,7.48,.05,14.95,.03,22.43,0,4.49-.01,4.4-.06,5.65-4.6,1.68-6.09,2.66-12.34,6.19-17.9,3.65-5.75,8.69-8.67,15.18-8.73,31.36-.26,62.71-.31,94.07-.46,1.81,0,3.62-.32,5.43-.34,7.11-.1,14.21-.11,21.32-.2,1.57-.02,2.39,.56,2.35,2.2-.03,1.27,0,2.55,0,3.82,0,32.23,0,64.45,0,96.68,0,.73,.01,1.46,0,2.18-.09,3.9-.09,3.97-3.8,4.17-4.18,.23-8.38,.23-12.56,.48-13.46,.8-26.88,.66-40.34-.39-13.17-1.03-20.13-8.74-24.17-20.22-.96-2.73-1.49-5.61-2.23-8.42-1.04-3.93-2.54-4.97-6.51-4.88-11.29,.27-22.57,.49-33.86,.69-4.95,.09-5.94,.71-7.19,5.42-.36,1.38-.38,2.87-.38,4.31-.02,36.23-.02,72.47,0,108.7,0,4.98,1.43,6.81,6.25,6.77,12.38-.09,24.76-.47,37.14-.8,2.78-.07,4.74-1.16,4.87-4.42,.07-1.79,.68-3.56,1.05-5.33,1.97-9.42,8.99-15.57,14.81-22.46,.72-.85,2.21-1.32,3.4-1.46,6.47-.79,12.95-1.75,19.45-2.05,13.27-.62,26.56-.89,39.81,.54,4.23,.46,4.23,.37,4.28,4.79,0,.36,0,.73,0,1.09,0,33.14,0,66.28,0,99.41,0,1.09-.06,2.19,0,3.28,.1,1.69-.77,2.23-2.31,2.16-1.09-.05-2.19,0-3.28,0-38.11,0-76.22,.02-114.33-.02-8.48,0-15.21-3.18-18.52-11.45-1.67-4.17-2.81-8.56-4.15-12.86-.33-1.04-.46-2.14-.81-3.17-1.3-3.9-2.57-4.94-6.72-4.87-7.46,.13-14.92,.58-22.38,.61-2.85,.01-3.95,1.19-4.17,3.78-.46,5.24-1.32,10.47-1.39,15.71-.32,23.3-.44,46.6-.59,69.9-.03,5.04,.62,5.62,5.62,5.74,.73,.02,1.46,0,2.19,0,83.51-.05,167.02-.1,250.53-.15,1.09,0,2.19-.05,3.28,0,1.66,.09,2.28-.72,2.22-2.29-.04-1.09,0-2.18,0-3.28,.05-37.69,.12-75.38,.15-113.06,.02-27.13,0-54.26,0-81.39Zm-1001.16,6.39c-.05,0-.1,0-.15,0,0,4,0,8.01,0,12.01-.05,57.35-.1,114.7-.15,172.05,0,1.63,.05,3.28,.23,4.9,.27,2.52,1.46,3.68,4.3,3.63,9.11-.18,18.23-.07,27.35-.07,74.57,0,149.15,0,223.72,0,6.58,0,8.09-1.43,8.08-7.85-.01-5.82-.16-11.64-.22-17.46-.19-20.74-.36-41.47-.56-62.21-.05-5.11-2.12-7.29-7.23-7.2-7.64,.13-15.27,.62-22.91,.68-2.4,.02-3.16,1.19-3.7,3.05-1.15,4.01-2.64,7.95-3.41,12.03-1.02,5.42-4.42,9.02-8.36,12.3-2.72,2.26-5.79,3.41-9.52,3.35-10.57-.15-21.14,.01-31.72,.09-9.48,.07-18.95,.2-28.43,.32-19.86,.25-39.71,.53-59.57,.75-3.74,.04-3.8-.07-3.8-3.91-.02-34.96-.02-69.91,0-104.87,0-3.8,.08-3.87,3.87-3.88,14.59-.03,29.18-.26,43.76,.12,5.38,.14,10.75,1.62,16.07,2.73,1.51,.31,3.39,1.11,4.19,2.3,5.68,8.46,14.06,15.55,14.26,26.89,.06,3.1,1.69,3.98,4.55,4.05,11.28,.29,22.55,.77,33.83,1.06,1.57,.04,3.16-.57,4.74-.87,2.8-.52,3.82-2.1,3.65-4.99-.36-5.98-.57-11.97-.59-17.96-.1-31.68-.12-63.36-.18-95.03-.01-5.94-.7-6.63-6.6-6.64-11.3-.02-22.61-.02-33.91,0-4.24,0-4.45,0-5.34,4.23-1.78,8.5-5.02,16.19-10.84,22.79-1.52,1.73-3.08,2.78-5.16,3.65-6.25,2.6-12.8,2.22-19.33,2.56-14.56,.75-29.09,1.31-43.63-.3-2.45-.27-3.41-.74-3.4-3.45,.1-33.5,.05-67,.08-100.5,0-3.55,.1-3.55,3.6-3.66,.73-.02,1.46,0,2.19,0,38.29,0,76.58,0,114.87,0,1.09,0,2.22-.16,3.28,.03,6.97,1.26,12.79,4.36,15.32,11.35,2.08,5.78,3.59,11.77,5.15,17.72,.44,1.69,1,2.55,2.83,2.5,8.18-.24,16.36-.42,24.54-.63,5.92-.15,6.86-1.1,6.86-7.18,.02-26.95,.01-53.89,0-80.84,0-5.96-1.03-6.97-6.96-7.03-24.23-.24-48.46-.51-72.69-.7-18.23-.14-36.46-.2-54.69-.24-33.36-.07-66.73-.1-100.1-.16-7.84-.01-15.68-.15-23.52-.12-3.61,.01-3.73,.18-3.83,3.67-.23,7.63-.52,15.26-.55,22.89-.13,33.68-.2,67.36-.25,101.04-.04,27.67,0,55.35,0,83.02Zm1150.44,195.57c0,.08,0,.15,0,.23,25.89,0,51.78,.03,77.67-.03,3.92,0,5.48-1.68,5.53-5.77,.1-7.65,.08-15.3,0-22.94-.04-4.04-1.41-5.45-5.48-5.91-1.45-.16-2.92-.08-4.37-.23-8.5-.92-16.98-1.79-24.61-6.3-5.2-3.08-7.71-7.48-7.65-13.38,.14-12.55,.45-25.1,.52-37.65,.14-25.67,.17-51.34,.25-77.02,.02-6.24,.04-6.31,5.97-6.35,13.31-.1,26.63,.1,39.93-.26,7.07-.19,13.69,1.34,20.3,3.37,1.02,.31,2.06,.76,2.9,1.39,5.04,3.79,9.03,8.42,10.91,14.57,1.01,3.29,1.95,6.61,2.75,9.95,1.48,6.24,1.73,6.57,7.9,7.44,1.43,.2,2.91,.16,4.36,.13,9.1-.2,18.2-.42,27.3-.64,1.46-.03,3.01,.26,4.35-.16,1.19-.38,2.48-1.33,3.1-2.4,.58-.99,.44-2.46,.44-3.71,.02-36.97,.02-73.93,0-110.9,0-5.46-2.87-8.37-8.24-8.38-11.12-.03-22.25-.02-33.37,0-5.58,0-5.89,.55-7.51,5.68-1.73,5.51-3.62,11.04-6.23,16.17-2.22,4.35-5.77,8.15-10.67,9.55-4.31,1.23-8.88,1.83-13.37,2.09-8,.45-16.03,.58-24.05,.57-7.43-.01-14.88-.21-22.29-.67-4.68-.29-4.7-.58-4.7-5.24-.02-18.94,0-37.88,0-56.81,0-14.02-.02-28.04,.01-42.06,0-3.6,.08-3.61,3.49-3.71,.91-.03,1.82,0,2.74,0,37.75,0,75.5,0,113.24,0,9.94,0,16.76,4.94,19.81,14.51,1.21,3.8,2.28,7.65,3.2,11.53,1.25,5.29,1.29,5.57,6.85,5.45,6.73-.14,13.44-.61,20.17-.88,8.69-.35,8.75-.32,8.83-9.07,.22-25.85,.39-51.7,.54-77.55,.04-6.24-2.24-8.6-8.35-8.6-91.51-.02-183.02-.02-274.52,.01-6.92,0-13.84,.31-20.76,.54-2.05,.07-3.99,.28-3.84,3.28,.41,8.53,.7,17.07,.95,25.61,.05,1.8,.9,2.68,2.5,2.99,1.25,.24,2.53,.31,3.78,.52,6.44,1.1,13.02,1.71,19.27,3.47,6.7,1.89,11.65,6.65,12.58,13.7,1.14,8.62,1.59,17.4,1.6,26.1,.11,90.14,.07,180.27,.07,270.41,0,1.46,.08,2.92-.03,4.37-.66,8.48-4.72,13.68-12.89,15.23-7.31,1.38-14.71,2.36-22.11,3.17-2.74,.3-3.78,1.05-3.71,3.91,.17,7.64,.06,15.29,.06,22.94,0,6.78,.44,7.26,7.2,7.74,1.09,.08,2.19,.02,3.28,.02,7.48,0,14.95,0,22.43,0h51.97Zm-1030.07,73.29c1.14,2.18,1.67,3.1,2.12,4.07,4.24,9.04,8.82,17.94,12.54,27.2,2.04,5.07,4.77,7.01,10.09,6.26,3.55-.5,3.68-.17,3.68-3.57,.03-16.21,.03-32.41,0-48.62,0-3.52-.08-3.53-3.56-3.61-.73-.02-1.46-.01-2.19,0-3.89,.07-3.94,.08-3.96,3.82-.04,8.92,0,17.85-.03,26.77,0,1.29-.2,2.58-.31,3.87-5.01-9.29-9.28-18.67-13.57-28.04q-3.01-6.57-10.38-6.43c-4.1,.07-4.15,.07-4.16,4.18-.02,15.3-.04,30.59,0,45.89,.02,6.16-1.11,5.6,5.95,5.66,3.77,.03,3.8,.18,3.78-3.97-.04-10.74-.01-21.48-.01-33.47Zm-370.81,9.83c0,8.18,.03,16.36-.02,24.53-.01,1.85,.16,3.13,2.55,3.11,9.28-.08,18.56-.05,27.85-.02,1.59,0,2.36-.55,2.25-2.2-.06-.9,0-1.82,0-2.73-.05-3.75-.06-3.79-3.88-3.82-5.1-.04-10.19-.09-15.29,.03-2.18,.05-2.82-.8-2.75-2.87,.12-3.81,.22-7.64-.03-11.44-.18-2.84,1.05-3.32,3.51-3.24,4.73,.15,9.47-.06,14.19,.09,2.32,.07,3.41-.57,3.1-3.02-.14-1.07-.1-2.18,0-3.27,.16-1.87-.57-2.59-2.49-2.52-3.27,.12-6.55,.03-9.83,.03q-8.69,0-8.41-8.59c.11-3.33,.11-3.38,3.76-3.41,5.1-.05,10.19-.08,15.29,.02,2.04,.04,3.09-.52,2.85-2.73-.11-1.08-.11-2.19,0-3.27,.21-2.1-.59-2.85-2.77-2.82-8.92,.1-17.84,.15-26.75-.02-2.93-.06-3.18,1.3-3.16,3.64,.1,8.18,.04,16.36,.04,24.53Zm775.76-.37c0,8.36,.04,16.72-.03,25.08-.02,2.02,.51,2.96,2.73,2.94,9.1-.08,18.2-.11,27.3,.02,2.37,.03,2.77-1.05,2.63-2.95-.05-.72,0-1.45-.01-2.18-.07-3.56-.07-3.61-3.5-3.64-5.28-.05-10.56-.06-15.83,0-1.81,.02-2.63-.53-2.58-2.48,.11-4.18,.11-8.36,0-12.54-.05-1.94,.72-2.53,2.55-2.5,4.37,.07,8.74,.06,13.1,.01,5.59-.06,4.92,1,5.13-5.32,.08-2.48-.43-3.7-3.24-3.46-2.89,.24-5.82,.05-8.73,.05-9.39,0-9.31,0-8.84-9.32,.11-2.19,.88-2.77,2.91-2.73,5.09,.1,10.19,.06,15.29,.02,3.71-.03,3.71-.07,3.75-3.95,0-.55-.05-1.1,0-1.63,.25-2.2-.42-3.24-2.93-3.2-8.92,.13-17.84,.12-26.75,0-2.52-.03-3,1.03-2.98,3.25,.09,8.18,.04,16.36,.04,24.53Zm165.86-10.04c-1.62-.58-2.62-.93-3.62-1.29-9.53-3.47-17.14,1.43-20.25,9.44-2.82,7.26-2.63,14.64-.08,21.85,3.08,8.71,11.82,11.64,19.95,7.14,1.36-.75,3.54-4.7,4.43,.51,.03,.2,.98,.34,1.51,.36,1.46,.05,2.92,.05,4.37,.02,3.71-.07,3.77-.08,3.77-3.93,.02-16.38,.05-32.76-.01-49.13-.03-6.77,1.22-5.85-6.14-5.91-3.85-.03-3.89,.06-3.92,3.78-.04,5.57-.01,11.15-.01,17.17Zm-247.28-.07c-1.52-.52-2.52-.84-3.52-1.2-9.87-3.57-17.31,1.58-20.3,9.32-3.02,7.82-2.74,15.73,.4,23.38,2.59,6.31,8.63,9.02,15.24,7.14,2.21-.63,4.25-1.9,6.28-3.05,1.41-.8,1.77-.49,2.02,1.02,.09,.57,1.07,1.3,1.74,1.4,1.43,.22,2.91,.1,4.36,.07,3.8-.06,3.87-.07,3.87-3.83,.03-16.2,.01-32.39,.01-48.59,0-6.96,0-6.83-7.15-6.64-2.49,.07-3.02,1.01-2.97,3.22,.11,5.78,.04,11.57,.04,17.75Zm517.54,.05c-1.6-.56-2.6-.91-3.6-1.27-9.59-3.49-17.17,1.46-20.27,9.41-2.83,7.26-2.46,14.57-.14,21.87,2.47,7.79,10.16,11.46,19.02,7.65,2.59-1.11,2.55-1.19,5.85,.2,.48,.2,1.07,.16,1.61,.17,1.28,.02,2.55,.03,3.83,0,3.73-.07,3.79-.08,3.79-3.91,.02-16.38,.05-32.76-.01-49.13-.03-6.8,1.22-5.88-6.12-5.93-3.87-.03-3.91,.06-3.94,3.76-.04,5.58-.01,11.16-.01,17.18Zm81.42,10.17c0,6.91-.1,13.83,.03,20.74,.15,8.23-1.89,6.95,7.72,7.18,2.33,.06,3.18-.64,3.13-3.05-.14-6.18-.08-12.37-.03-18.55,.03-3.46,.08-3.5,3.65-3.55,3.82-.05,7.65-.11,11.48,.02,2.27,.08,3.45-.58,3.14-3.04-.11-.9-.11-1.83,0-2.72,.31-2.46-.87-3.11-3.14-3.05-4.19,.12-8.38,0-12.57,.05-1.79,.03-2.68-.52-2.6-2.48,.12-2.72,.12-5.46,0-8.18-.08-1.97,.83-2.49,2.61-2.47,4.74,.06,9.47,.05,14.21,0,4.09-.03,4.09-.07,4.11-4.18,0-.36-.04-.73,0-1.09,.3-2.41-.33-3.6-3.2-3.54-8.38,.19-16.76,.14-25.14,.02-2.53-.04-3.53,.59-3.47,3.34,.17,8.18,.06,16.37,.06,24.56Zm-309.71-3.4c4.28-.5,8.54-1.2,12.83-1.43,2.77-.15,5.4,.69,6.86,3.51,1.45,2.8,.95,3.6-2.11,4.11-4.79,.8-9.73,1.33-14.27,2.92-5.95,2.08-8.18,7.47-6.88,14.3,1,5.27,5.53,9.16,11.41,8.83,3.48-.2,6.95-1.54,10.29-2.75,1.41-.51,2.38-1.93,2.55,.83,.02,.35,1.03,.86,1.61,.9,1.81,.12,3.64-.06,5.45,.08,2.14,.16,2.82-.68,2.79-2.8-.11-8.54,.09-17.08-.13-25.61-.15-6.03-3.38-9.55-9.37-11.02-4.81-1.18-9.57-1.15-14.53-.46-7.08,.99-7.53,.44-6.5,8.59Zm-573.35-.04c4.46-.48,8.9-1.19,13.37-1.37,2.8-.11,5.33,1.01,6.57,3.96,1.1,2.62,.67,3.13-2.32,3.63-4.79,.8-9.73,1.33-14.27,2.91-5.96,2.08-8.19,7.45-6.9,14.29,.99,5.27,5.51,9.17,11.4,8.84,3.48-.19,6.95-1.54,10.29-2.73,1.37-.49,2.37-2,2.56,.8,.02,.35,1.02,.88,1.59,.92,1.81,.12,3.64-.05,5.45,.08,2.12,.16,2.84-.65,2.81-2.78-.11-8.54,.08-17.08-.13-25.61-.15-6.03-3.37-9.57-9.35-11.03-4.81-1.18-9.57-1.15-14.53-.47-7.17,.99-7.51,.55-6.52,8.55Zm179.31,.04c4.55-.52,8.84-1.23,13.15-1.42,3.01-.13,5.73,.95,6.99,4.16,.95,2.4,.52,3.03-2.06,3.43-4.64,.72-9.4,1.11-13.84,2.48-6.37,1.97-9.08,7.88-7.64,14.94,1.1,5.39,5.86,8.9,12.12,8.75,3.66-.09,7.19-.81,10.15-3.23,1.2-.98,1.73-.82,1.89,.85,.05,.49,1.18,1.19,1.85,1.25,1.99,.17,4,0,6,.07,1.79,.06,2.05-.95,2.04-2.42-.05-8.72,.11-17.44-.12-26.15-.16-5.81-3.31-9.37-9-10.78-4.97-1.23-9.92-1.27-15.07-.52-7.35,1.07-7.07,.98-6.45,8.58Zm853.29,.03c4.65-.54,8.94-1.24,13.25-1.45,2.77-.13,5.39,.75,6.79,3.62,1.36,2.78,.85,3.45-2.3,4-4.96,.86-10.08,1.47-14.74,3.22-5.57,2.08-7.57,7.57-6.26,14.13,1.01,5.05,5.38,8.6,10.99,8.81,4.08,.15,7.92-.66,11.24-3.21,1.12-.86,1.76-1.03,1.93,.78,.05,.5,1.14,1.22,1.81,1.29,1.8,.18,3.65-.08,5.45,.1,2.38,.23,2.66-1.02,2.65-2.94-.06-8.36,.09-16.71-.09-25.07-.13-6.39-3.3-9.86-9.52-11.49-5.4-1.41-10.75-1.15-16.16-.19-5.14,.91-5.15,.86-5.13,6.18,0,.71,.06,1.43,.1,2.21Zm-1111.24,11.47c-.12-1.81-.12-3.63-.38-5.42-1.27-8.74-7.41-14.59-15.88-15.22-8.76-.66-15.96,3.88-18.63,11.88-1.94,5.83-2.11,11.78-.22,17.64,2.05,6.36,6.4,10.45,13.1,11.63,6.63,1.17,12.65,0,17.34-5.29,3.87-4.35,4.7-9.65,4.68-15.22Zm207.88-.1c-.11-1.6-.09-3.62-.4-5.58-1.34-8.51-7.31-14.2-15.56-14.96-8.84-.82-16.5,3.94-19,12.11-1.5,4.89-1.91,9.88-.69,15,2.37,9.91,9.18,15.1,19.31,14.39,9.03-.63,15.29-7.14,16.13-16.78,.11-1.26,.13-2.53,.21-4.19Zm-491.28-16.11c.27-2.28-.4-3.93-3.42-3.38-1.23,.22-2.55,.16-3.81,.01-2.5-.3-3.01,.89-2.99,3.14,.09,9.81,.04,19.61,.04,29.42,0,7.07,0,6.93,6.88,6.87,2.64-.02,3.43-.79,3.37-3.41-.17-7.08-.12-14.17,0-21.25,.02-1.54,.17-3.51,1.09-4.52,2.2-2.41,5.3-3.16,8.5-2.36,2.96,.74,3.58,3.36,4.01,5.91,.21,1.24,.14,2.53,.14,3.81,.01,4.9,0,9.81,0,14.71,0,7.79,0,7.71,7.75,7.09,1.99-.16,2.37-.99,2.35-2.7-.08-8.72,.18-17.44-.18-26.15-.37-8.88-7.33-13.57-15.93-10.94-2.69,.82-5.14,2.44-7.82,3.75Zm159.82-.06q-.55-3.2-3.6-3.28c-.91-.02-1.82-.02-2.73,0-3.84,.06-3.9,.07-3.91,3.76-.03,9.81-.08,19.62,.01,29.42,.07,7.08-1.41,6.01,6.43,6.15,4.02,.07,3.77-.15,3.76-4-.03-6.9-.07-13.8,.04-20.7,.03-1.53,.23-3.5,1.16-4.49,2.24-2.36,5.32-3.12,8.53-2.24,2.95,.8,3.5,3.44,3.92,5.98,.21,1.24,.13,2.54,.13,3.81,.01,4.9,0,9.81,0,14.71,0,7.64,.13,7.71,7.86,6.96,1.57-.15,2.25-.62,2.24-2.25-.09-9.08,.2-18.17-.25-27.23-.41-8.23-7.38-12.81-15.46-10.47-2.87,.83-5.47,2.58-8.13,3.87Zm347.72,.98c.33-2.92,.12-4.76-2.94-4.3-1.24,.19-2.56,.17-3.81,0-2.67-.35-3.38,.74-3.34,3.34,.14,9.81-.02,19.61,.08,29.42,.08,7.62-1.52,6.5,6.52,6.57,3.55,.03,3.62-.08,3.64-3.52,.05-7.26-.04-14.53,.03-21.79,.04-3.81,2.36-5.95,6.58-6.33,3.81-.34,5.84,.98,6.71,4.73,.4,1.74,.45,3.59,.46,5.39,.05,6.36,.12,12.72-.03,19.07-.06,2.52,1.41,2.82,3.08,2.41,2.35-.57,6.6,1.92,6.82-1.72,.58-9.58,.38-19.25-.14-28.85-.27-4.85-3.37-8.29-8.46-9.42-5.6-1.24-10.34,.47-15.21,4.98Zm467.02,15.47c0,4.36-.07,8.72,.02,13.08,.16,7.52-1.54,6.43,6.61,6.5,3.48,.03,3.54-.09,3.56-3.6,.04-7.45-.05-14.89,.05-22.34,.04-3.13,2.39-5.16,6.1-5.69,3.6-.52,5.89,.6,6.84,3.76,.56,1.87,.76,3.91,.79,5.88,.09,6.54,.13,13.08,0,19.61-.05,2.57,1.53,2.75,3.15,2.33,2.32-.6,6.55,2,6.76-1.79,.55-9.59,.4-19.25-.17-28.85-.34-5.85-4.75-9.25-10.66-9.71-3.57-.28-6.81,.74-9.8,2.61-1.4,.88-3.17,4.06-3.39-.73-.01-.29-1.12-.72-1.74-.75-1.81-.1-3.65,.09-5.45-.08-2.3-.22-2.73,.89-2.69,2.88,.09,5.63,.03,11.26,.03,16.89Zm-113.72,.4c0-4.54,.07-9.09-.02-13.63-.15-7.47,1.53-6.42-6.63-6.49-3.35-.03-3.41,.09-3.43,3.71-.04,7.27,.03,14.54-.04,21.8-.01,1.39-.09,2.98-.76,4.12-1.37,2.32-6.15,3.77-8.84,2.99-3.18-.93-3.86-3.57-4.17-6.37-.14-1.26-.08-2.54-.08-3.81,0-5.27,.09-10.54-.02-15.81-.16-7.66,1.73-6.52-7.04-6.66-.36,0-.85-.15-1.07,.03-.7,.57-1.86,1.26-1.87,1.92-.09,9.26-.53,18.57,.17,27.78,.72,9.49,8.45,11.6,14.71,10.43,1.74-.33,3.37-1.26,5.06-1.9,1.57-.59,3.63-4.22,4.43,.69,.04,.23,1.32,.34,2.02,.37,1.64,.05,3.29-.11,4.91,.05,2.28,.22,2.75-.86,2.72-2.87-.09-5.45-.03-10.9-.03-16.35Zm-759.34-.51c0-4.36,0-8.72,0-13.08,0-6.93,0-6.81-7.16-6.62-2.49,.07-3,1.01-2.97,3.22,.1,7.45,.07,14.9,0,22.35-.01,1.39-.07,2.99-.73,4.13-1.34,2.32-6.12,3.79-8.82,3.02-3.2-.9-3.88-3.54-4.21-6.33-.15-1.26-.09-2.54-.09-3.81,0-5.45,0-10.9,0-16.35q0-6.31-6.48-6.15c-.36,0-.73,.04-1.09,0-1.85-.2-2.57,.54-2.55,2.46,.09,8.72-.19,17.45,.15,26.16,.36,9.17,7.44,13.77,16.34,11.03,1.2-.37,2.33-.99,3.53-1.36,1.52-.47,3.63-4.52,4.42,.64,.04,.23,1.32,.36,2.02,.38,1.64,.06,3.28-.09,4.91,.04,2.18,.18,2.8-.76,2.76-2.83-.11-5.63-.04-11.26-.04-16.9Zm1101.53,2.22c2.55,0,5.1,0,7.65,0,5.15-.02,4.54,.52,4.59-4.73,.01-1.09,.07-2.21-.13-3.27-1.05-5.54-3.05-10.6-8.56-13.15-10.25-4.75-20.37,.09-24.08,9.03-2.59,6.25-2.81,12.69-.54,19.15,2.02,5.77,5.95,9.26,11.93,10.83,5.51,1.44,10.82,.56,16.13-.65,4.33-.99,4.43-1.49,4.38-6.01-.02-2.28-.67-2.76-2.88-2.26-3.69,.84-7.44,1.8-11.18,1.89-5.59,.13-8.6-3-9.46-8.53-.26-1.65,.02-2.33,1.77-2.3,3.46,.06,6.92,.02,10.38,.01Zm-138.91,0c2.37,0,4.74,.03,7.1,0,5.64-.08,5.03,.94,5.09-5.33,0-.91,.04-1.84-.13-2.72-1.07-5.54-3.13-10.49-8.59-13.15-9.22-4.49-20.16-.41-24.06,9.12-2.72,6.65-2.82,13.44-.12,20.17,2.03,5.06,5.76,8.13,11.05,9.63,5.67,1.61,11.17,.75,16.66-.54,4.29-1.01,4.38-1.52,4.33-6.04-.03-2.38-.81-2.66-2.93-2.18-3.69,.83-7.44,1.79-11.18,1.87-5.56,.12-8.56-3.07-9.42-8.58-.27-1.75,.17-2.27,1.83-2.25,3.46,.05,6.92,.01,10.38,.01Zm-945.75,0c6.41,0,12.75,.07,19.09-.02,6.09-.08,5.49,1.38,5.53-5.96,0-.73,0-1.47-.14-2.17-1.11-5.53-3.19-10.48-8.67-13.1-9.03-4.32-19.85-.42-23.81,8.76-3.01,6.98-3.03,14.15-.06,21.18,1.78,4.22,5,7.15,9.35,8.62,6.85,2.31,13.63,1.34,20.29-.88,1.86-.62,3.19-5.06,1.84-6.93-.44-.6-2.45-.24-3.7-.04-2.32,.37-4.59,1.22-6.91,1.4-8.37,.67-11.48-1.94-12.82-10.87Zm554.75,0c6.7,0,12.88,.07,19.06-.02,6.12-.08,5.51,1.37,5.55-5.94,0-.73,0-1.47-.14-2.17-1.11-5.53-3.18-10.48-8.65-13.11-9.27-4.45-20.13-.32-24.02,9.23-2.55,6.27-2.75,12.69-.44,19.14,2.07,5.77,6.03,9.18,12,10.74,5.34,1.39,10.46,.5,15.6-.58,4.62-.97,5.18-2.08,4.76-6.79-.16-1.83-.94-2.05-2.46-1.66-2.8,.73-5.59,1.74-8.44,2-8.37,.75-11.52-1.93-12.83-10.85Zm-792.89-38.24c-2.91,0-5.83-.05-8.74,.01-3.4,.07-3.4,.11-3.47,3.72-.01,.55,.06,1.1-.01,1.64-.36,2.57,.57,3.82,3.31,3.37,3.25-.54,3.39,1.44,3.37,3.9-.08,10.19-.11,20.38,.02,30.56,.03,2.65-.46,4.27-3.52,3.77-2.89-.47-3.43,1.12-3.18,3.5,.09,.9,.08,1.82,0,2.73-.16,1.87,.66,2.55,2.52,2.54,6.56-.06,13.12-.05,19.67-.01,1.65,0,2.28-.73,2.17-2.31-.06-.91-.1-1.83,.01-2.73,.32-2.67-.45-4.22-3.49-3.72-2.66,.43-3.39-.75-3.35-3.35,.14-10.19,.04-20.37,.06-30.56,0-3.95,.05-3.9,3.96-4.36,.94-.11,2.57-.65,2.6-1.09,.19-2.31,.29-4.75-.33-6.93-.17-.6-2.92-.59-4.5-.66-2.36-.1-4.74-.03-7.1-.03Zm29.34,55.72c3.28,0,6.56-.07,9.84,.03,1.88,.05,2.69-.65,2.5-2.54-.07-.72,0-1.45-.01-2.18-.03-3.73-.04-4.02-3.69-3.95-3.01,.06-3.12-1.41-3.11-3.67,.07-10.37,.13-20.74-.04-31.11-.05-2.93,.95-3.98,3.71-3.55,2.92,.46,3.4-1.16,3.14-3.52-.1-.9-.09-1.82,0-2.73,.19-1.91-.67-2.54-2.52-2.52-6.38,.07-12.75,.11-19.13-.02-2.28-.05-2.88,.92-2.72,2.91,.06,.72,.08,1.46,0,2.18-.34,2.7,.51,4.19,3.53,3.7,2.92-.47,3.18,1.22,3.16,3.57-.09,10.37-.09,20.74,0,31.11,.02,2.37-.29,4.02-3.18,3.55-3.05-.5-3.82,1.06-3.51,3.72,.1,.9,.05,1.82,.02,2.73-.05,1.52,.49,2.34,2.18,2.31,3.28-.07,6.56-.02,9.84-.02Zm1420.3-29.51c0-2.17-.01-3.97,0-5.78,.01-1.63-.58-2.72-2.28-3.23-4.91-1.46-9.87-2.63-15.01-1.54-7.3,1.55-11.66,5.77-11.58,11.78,.07,5.52,1.88,9.17,10.7,11.85,2.42,.74,4.88,1.39,7.3,2.13,2.06,.63,3.79,1.64,3.32,4.19-.43,2.31-2.18,3.44-4.32,3.44-2.88,0-5.83-.15-8.62-.77-2.79-.62-5.43-1.9-8.14-2.9-.55,8.5-2.17,8.9,8.13,10.7,2.66,.47,5.48,1.01,8.08,.61,3.14-.49,6.36-1.53,9.14-3.06,6.16-3.4,7.29-16.07-1.38-19.16-1.88-.67-3.74-1.36-5.63-2-2.23-.76-4.6-1.22-6.68-2.26-3.33-1.66-3.45-5.81-.04-7.18,2.36-.95,5.37-1.14,7.88-.64,2.92,.58,5.61,2.29,9.14,3.83Zm-219.92,.12c0-2.18-.05-3.96,.01-5.73,.07-1.93-.76-3.06-2.65-3.53-5.11-1.25-10.14-2.67-15.52-1.14-6.97,1.98-10.8,5.99-10.81,11.87,0,5.33,3.46,9.25,10.1,11.31,2.59,.81,5.23,1.48,7.83,2.25,2.04,.6,3.89,1.51,3.5,4.07-.39,2.59-2.35,3.7-4.71,3.65-2.88-.07-5.8-.3-8.6-.94-2.71-.62-5.29-1.84-8.13-2.88,0,1.79,.12,3.26-.03,4.7-.28,2.76,.56,4.65,3.54,5.05,4.65,.62,9.3,1.55,13.97,1.64,2.39,.05,4.98-1.11,7.17-2.29,4.23-2.29,5.91-6.14,5.8-10.93-.1-4.58-2.43-7.54-6.49-9.14-3.36-1.33-6.89-2.23-10.3-3.45-3.45-1.24-4.48-2.56-4.04-4.89,.54-2.83,2.79-3.79,5.19-4.01,1.94-.18,4.04,.05,5.89,.65,2.55,.83,4.92,2.18,8.27,3.73Zm-317.31-.12c0-2.18-.01-3.99,0-5.8,.02-1.64-.59-2.74-2.3-3.21-5.09-1.4-10.15-2.74-15.51-1.35-7.1,1.83-11.16,5.7-11.06,11.6,.1,5.77,2.06,8.99,10.19,11.72,2.57,.86,5.23,1.47,7.83,2.25,2.06,.62,3.78,1.65,3.3,4.2-.44,2.3-2.19,3.43-4.33,3.43-2.88,0-5.83-.16-8.62-.78-2.79-.62-5.43-1.9-8.14-2.9-.47,8.4-2.31,8.9,8.16,10.71,2.66,.46,5.48,1.01,8.08,.6,3.14-.49,6.35-1.54,9.13-3.07,6.13-3.39,7.29-16.05-1.41-19.16-1.87-.67-3.74-1.36-5.63-2-2.23-.76-4.6-1.22-6.68-2.26-3.32-1.66-3.42-5.82,0-7.18,2.37-.94,5.37-1.13,7.89-.63,2.92,.58,5.61,2.29,9.13,3.83Zm-579.79,22.32c-7.85,1.54-9.51,.14-9.59-8.11-.03-2.9-.04-5.81,0-8.71,.04-2.33-.68-5.42,.52-6.78,1.11-1.26,4.33-.63,6.61-.91,.85-.1,2.35-.34,2.39-.67,.27-1.95,.51-4.02,.05-5.88-.15-.62-2.38-.86-3.69-1.04-1.25-.17-2.54-.1-3.81-.03-1.67,.09-2.21-.7-2.17-2.27,.06-2.9,.09-5.81-.04-8.71-.03-.71-.69-1.95-1.14-1.98-2.53-.19-5.09-.19-7.62,0-.48,.04-1.21,1.23-1.24,1.91-.14,2.9,.04,5.81-.15,8.71-.05,.8-1.02,2.22-1.54,2.21-3.49-.09-2.45,2.41-2.52,4.17-.06,1.69-.66,3.82,2.41,3.66,1.86-.1,1.72,1.43,1.73,2.71,.03,5.99-.08,11.99,.15,17.97,.31,8.03,4.31,11.92,12.37,12.01,9.28,.11,8.34-1.61,7.28-8.26Zm805.19-12.71s.05,0,.07,0c0,2.54,.06,5.08-.01,7.62-.24,8.4,3.7,13.75,14.4,13.37,5.3-.19,6.18-1.26,5.82-6.53-.11-1.64-.35-1.98-2.24-1.58-5.61,1.18-7.58-.51-7.79-6.4-.16-4.53-.05-9.08-.05-13.62,0-5.05-.48-4.63,4.71-4.64,.18,0,.36,0,.55,0,4.76-.03,4.52,.84,4.61-4.75,.03-1.91-.26-3.07-2.64-2.96-2.29,.11-5.78,.55-6.63-.65-1.23-1.72-.54-4.8-.67-7.3,0-.18,0-.36,0-.54-.02-5.13,.45-4.56-4.76-4.55-6.13,.02-5.3-.63-5.36,5.07-.02,1.63-.06,3.27,.01,4.9,.08,1.8-.05,3.28-2.48,3.15-1.99-.1-1.81,1.48-1.66,2.67,.2,1.64,.69,4.65,1.06,4.65,4.05,0,2.98,2.84,3.05,4.99,.08,2.36,.02,4.72,.02,7.08Zm-196.84,12.71c-.32-.03-.69-.17-.97-.06-6.26,2.45-8.65-1.22-8.63-6.41,.02-3.45-.04-6.9,0-10.35,.03-2.34-.68-5.42,.52-6.78,1.11-1.26,4.33-.63,6.61-.91,.85-.1,2.35-.34,2.39-.67,.27-1.95,.51-4.02,.05-5.88-.15-.62-2.37-.86-3.68-1.04-1.25-.17-2.54-.1-3.81-.03-1.66,.09-2.21-.69-2.18-2.26,.06-2.9,.09-5.81-.04-8.71-.03-.71-.69-1.95-1.13-1.99-2.53-.19-5.09-.19-7.62,0-.48,.04-1.22,1.22-1.25,1.91-.15,2.9,.04,5.81-.15,8.71-.05,.8-1.02,2.23-1.54,2.21-3.48-.09-2.47,2.4-2.52,4.16-.06,1.69-.67,3.77,2.4,3.68,2.28-.07,1.7,1.9,1.72,3.24,.08,5.81-.06,11.62,.17,17.42,.31,8.03,4.3,11.8,12.37,12.05,7.47,.23,8.26-.67,7.29-8.29Zm565.29-2.92c-2.15,1.02-4.16,2.22-6.34,2.97-5.81,2.02-11.03-.4-12.24-6.35-.82-3.99-.81-8.4-.02-12.39,1.18-5.94,6.48-8.37,12.23-6.25,1.68,.62,3.12,1.85,4.78,2.55,.51,.21,1.86-.29,2.01-.74,1.61-4.88-.12-7.92-5.01-9.13-1.06-.26-2.1-.58-3.17-.77-9.85-1.73-18.56,3.55-21.08,12.95-1.13,4.23-1.18,8.5-.58,12.94,1.8,13.26,13.37,17.15,22.78,14.86,7.6-1.85,7.93-2.27,6.64-10.63Zm-976.75-9.22c.08-1.64,.05-3.1,.24-4.54,1-7.74,7.32-11.09,14.39-7.67,1.57,.76,3.2,1.4,4.8,2.09,.17-1.95,.28-3.91,.51-5.86,.24-2.07-.87-2.94-2.68-3.38-2.11-.52-4.17-1.4-6.3-1.62-8.52-.86-16.15,2.19-19.54,10.56-2.86,7.09-2.62,14.24,.2,21.25,1.63,4.05,4.7,6.92,8.86,8.38,5.55,1.96,11.09,1.64,16.49-.64,2.74-1.16,4.46-5.02,2.71-8.16-1.48-2.67-3.05,.83-4.7,1.09-.53,.08-1.02,.38-1.53,.56-6.38,2.3-11.81-.71-13.09-7.35-.31-1.6-.26-3.26-.36-4.71Zm-378.5-.29c.56,3.08,.86,6.18,1.72,9.12,1.4,4.77,4.43,8.38,9.15,10.2,5.69,2.19,11.4,1.9,17-.48,2.68-1.14,4.42-5.17,2.66-8.17-1.51-2.57-3.07,.86-4.73,1.15-.53,.09-1.02,.38-1.54,.56-6.38,2.28-11.93-.73-13.01-7.41-.49-3.02-.46-6.2-.12-9.25,.87-7.73,7.34-11.06,14.38-7.61,5.53,2.71,5.32,2.71,5.35-3.29,.02-2.65-1.22-3.57-3.28-4.14-1.92-.53-3.86-1.19-5.82-1.37-9.19-.82-16.9,2.51-20.07,12.14-.9,2.73-1.15,5.66-1.7,8.56Zm559.61-9.97c0-8.37,0-16.73,0-25.1,0-4.43,.43-4.34-4.53-4.32-.36,0-.73,0-1.09,0-5.17,.02-4.56-.45-4.57,4.76-.02,15.82,0,31.64,0,47.47,0,7.05,0,6.88,6.93,6.85,2.79-.01,3.35-.97,3.31-3.48-.12-8.73-.05-17.46-.05-26.19Zm-372.37,9.58c0,4.36,0,8.73,0,13.09,0,7.37,0,7.24,7.33,6.99,2.58-.09,2.92-1.19,2.9-3.32-.09-6.73,.17-13.47-.11-20.18-.15-3.72,1.44-6.08,4.62-7.09,2.5-.8,5.42-1.29,7.93-.8,2.83,.56,3.7,.18,3.33-2.66-.14-1.07-.06-2.18-.02-3.27,.08-2.29-.94-3.18-3.28-3.22-3.91-.06-7.04,1.59-9.86,4-1.81,1.54-2.68,1.65-2.77-1.14-.02-.59-1.27-1.51-2.06-1.64-1.6-.26-3.28,.03-4.9-.11-2.27-.2-3.24,.5-3.16,2.98,.17,5.45,.05,10.91,.05,16.37Zm227.75,.38c0-4.53,.06-9.06-.01-13.59-.12-7.01,1.36-5.99-6.46-6.12-.18,0-.37,.02-.54,0-2.41-.37-3.06,.73-3.04,3.05,.11,9.78,.04,19.57,.04,29.35,0,7.4,0,7.3,7.27,6.99,2.15-.09,2.82-.74,2.78-2.84-.11-5.61-.04-11.23-.03-16.85Zm468.13-.33c0,4.53-.08,9.06,.02,13.59,.16,7.36-1.6,6.13,6.73,6.42,2.69,.09,3.36-.83,3.32-3.4-.14-9.78-.05-19.57-.06-29.35q0-6.94-7.05-6.63c-.18,0-.37,.02-.54,0-1.96-.25-2.47,.73-2.44,2.53,.08,5.62,.03,11.23,.02,16.85Zm378.75,.25c0-4.35,0-8.7,0-13.04,0-6.92,0-6.79-7.1-6.66-2.5,.05-2.97,.98-2.95,3.19,.09,9.78,.04,19.57,.04,29.35,0,7.36,0,7.24,7.34,6.92,2.26-.1,2.73-.94,2.7-2.92-.08-5.62-.03-11.23-.03-16.85Zm55.8,.5c0-4.53,.07-9.06-.02-13.59-.14-7.48,1.48-6.45-6.59-6.52-3.33-.03-3.39,.08-3.4,3.69-.03,9.6-.01,19.2-.01,28.81,0,7.33,0,7.2,7.39,6.88,2.32-.1,2.67-1.05,2.65-2.97-.07-5.43-.02-10.87-.02-16.31Zm-51.17-40.27c-7.15-2.11-11.13,.25-13.2,6.4-.79,2.36-2.14,4.53-3.74,7.82,3.15-.76,6.25-.58,7.64-2.02,3.46-3.59,6.13-7.92,9.31-12.2Zm-856.31,13.59c6.19-.04,5.37,.57,5.45-5.52,.01-.9,.12-1.83-.08-2.69-.14-.57-.74-1.45-1.15-1.46-3.03-.05-6.06,.09-9.1,.17-.21,2.44-.41,4.88-.62,7.32-.14,1.65,.72,2.23,2.26,2.17,1.08-.04,2.16,0,3.25,0Zm477.84-9.85c-5.65,.04-5.22-.54-5.19,4.64,.02,5.78-.66,5.16,5.17,5.21,.72,0,1.44,.02,2.16,0,3.52-.1,3.62-.11,3.6-3.56-.04-7.2,.84-6.19-5.74-6.29Zm424.23,0c-5.62,.08-4.81-.74-4.9,5.43-.01,.72,.05,1.44,0,2.16-.12,1.6,.61,2.12,2.18,2.28,8.02,.84,9.54-.48,8.82-7.64-.16-1.57-.68-2.31-2.26-2.25-1.08,.04-2.16,0-3.83,0Z"/>
  <path class="cls-11" d="M218.97,377.55c1.04-7.92,1.72-15.91,3.2-23.75,2.01-10.68,4.21-21.37,7.06-31.85,5.42-19.95,14.54-38.28,25.93-55.49,6.94-10.49,14.5-20.55,23.83-29.07,10.91-9.97,23.6-16.56,37.94-20.56,13.75-3.83,27.79-2.73,41.66-4.12,5.96-.6,11.93-1.3,17.81-2.39,2.59-.48,5.11-1.85,7.43-3.22,3.17-1.86,5.15-4.85,4.96-8.55-.24-4.49-.46-9.14-1.76-13.39-2.85-9.32-3.43-18.93-4.36-28.47-.46-4.76,1.74-8.23,7.87-5.11,2.39,1.22,4.45,3.12,6.58,4.81,1.13,.9,2.06,2.06,3.12,3.06,4.07,3.87,4.78,3.71,7.1-1.5,1.4-3.15,2.67-6.38,4.33-9.39,2.1-3.82,4.36-4.37,7.31-1.28,3.35,3.52,6.08,7.64,8.97,11.59,.84,1.15,1.23,2.63,1.91,3.9,2.74,5.12,5.51,5.68,10.59,2.97,4.63-2.46,9.44-4.66,14.37-6.42,5.41-1.93,8.06,.03,7.99,5.77-.04,3.21-1,6.41-1.6,9.61-.73,3.85,.07,5.04,4.06,5.17,3.27,.11,6.56-.21,9.84-.18,2.17,.02,4.41,.04,6.49,.58,2.99,.78,3.93,2.61,2.33,5.32-2.29,3.88-4.94,7.61-7.86,11.05-4.24,4.99-8.96,9.56-13.26,14.5-2.13,2.45-4.02,5.19-5.57,8.04-3.53,6.47-3.01,12.19,2.21,17.44,3.68,3.7,7.97,6.92,12.37,9.76,10.39,6.71,20.99,13.08,31.52,19.57,10.21,6.29,18.25,15.02,26.49,23.49,4.18,4.3,8.39,8.7,11.76,13.63,6.87,10.05,12.28,20.91,15.86,32.63,5.76,18.87,9.39,38.14,9.25,57.85-.11,15.62-2.84,30.96-7.24,46.08-3.8,13.07-9.1,25.43-16.8,36.41-16.72,23.85-37.82,43-65.78,52.71-20.95,7.28-42.73,9.36-65.07,7.59-30.79-2.45-59.95-11.18-88.66-21.54-16.03-5.78-31.46-13.32-45.42-23.37-5.14-3.7-10.75-4.05-16.68-3.11-6.28,1-12.52,2.32-18.84,2.93-7.42,.72-14.9,.95-22.35,1.14-6.92,.18-13.86,.03-20.79,.04-18.72,.01-36.83-3.53-54.53-9.42-14.92-4.96-28.11-12.67-38.83-24.35-2.59-2.82-5.37-5.45-8.09-8.15-11.28-11.2-18.36-25.11-25.31-39.12-8.22-16.57-12.58-34.31-16.35-52.26-1.84-8.78-2.37-17.62-2.31-26.54,.07-10.34,.11-20.69,0-31.04-.13-12.33,2.99-24.16,6.11-35.87,3.7-13.83,8.73-27.29,17.23-39.09,6.19-8.59,13.26-16.42,20.93-23.72,3.61-3.44,7.9-5.61,12.36-7.76,7.84-3.78,15.37-8.18,23.08-12.24,2.08-1.1,4.23-2.18,6.47-2.85,8.48-2.54,15.12-7.8,21.18-13.95,6.1-6.18,6.73-11.99,2.67-19.82-1.89-3.65-4.86-6.76-7.39-10.08-4.5-5.93-9.14-11.76-13.48-17.8-1.45-2.02-2.39-4.5-3.15-6.9-1.85-5.89,1.03-9.33,7.12-8.51,2.86,.38,5.66,1.26,8.49,1.91,2.65,.6,5.28,1.47,7.96,1.7,3.54,.31,4.56-.86,4.35-4.5-.09-1.61-.65-3.2-.88-4.81-.25-1.8-.42-3.61-.54-5.43-.44-6.98,2.79-9.74,9.3-6.99,6.31,2.67,12.4,6.08,18.15,9.83,9.56,6.22,8.82,3.32,13.48-2.21,3.63-4.3,7.69-8.24,11.58-12.31,.5-.52,1.11-.95,1.71-1.36,5.98-4.2,9.72-2.86,11.37,4.28,.77,3.35,.97,6.83,1.54,10.23,.91,5.44,1.48,5.73,6.06,2.97,5.12-3.09,10.14-6.34,15.29-9.38,3.96-2.34,6.06-1.44,7.16,2.92,1.64,6.52-.35,12.6-2.67,18.54-2.63,6.74-5.58,13.36-8.34,20.05-.55,1.33-.92,2.74-1.29,4.14-2.61,9.8,.45,17.06,9.35,21.99,6.95,3.85,14.54,5.69,22.33,6.7,14.26,1.85,28.43,4.02,42.11,8.65,11.6,3.92,22.69,8.86,32.43,16.43,1.7,1.32,3.31,2.89,4.53,4.64,1.62,2.34,.89,3.84-1.86,4.16-1.98,.23-4,.11-6,.03-17.99-.68-35.51,1.73-52.72,7.09-11.82,3.68-21.41,10.7-30.27,18.89-19.68,18.19-32.82,40.53-41.54,65.66-9.18,26.45-12.37,53.69-10.94,81.55,.16,3.07,.79,6.12,1.2,9.18,.08,.63,.15,1.26,.23,1.89,.21-.62,.41-1.25,.62-1.87Zm126.24,119.08c-.63-1.09-1.23-2.2-1.9-3.27-6.67-10.63-9.73-22.09-8.48-34.71,.66-6.62,2.37-12.85,5.42-18.69,1.18-2.26,.71-3.32-1.24-4.82-9.09-7-18.06-14.15-26.96-21.38-1.9-1.55-3.24-2.07-5.52-.54-7.66,5.14-16.15,6.9-25.38,6.06-23.53-2.15-40.06-26.22-32.9-49.71,4.81-15.78,20.83-30.57,44.28-26.75,2.9,.47,4.05,.07,4.99-2.67,3.64-10.63,7.37-21.24,11.34-31.75,1.09-2.88,.72-4.4-1.82-6.25-9.56-6.97-13.2-16.6-11.35-28.14,2.5-15.61,17.39-25.51,31.64-23.48,11.27,1.61,19.11,7.47,23.42,17.94,.87,2.1,1.58,2.94,4.28,2.53,8.08-1.24,16.26-1.84,24.39-2.77,8.49-.98,16.96-2.11,25.46-3.05,1.73-.19,2.69-.67,2.78-2.51,.03-.71,.41-1.39,.56-2.1,2.45-11.52,14.31-19.35,23.91-18.5,1.71,.15,3.45,.02,5.5,.02-3.93-8.95-6.19-17.42-.11-25.83,.19-.27-.07-1.3-.24-1.33-.65-.12-1.55-.24-2.01,.11-5.06,3.82-10.43,7.31-13.79,12.96-1.01,1.7-2.34,3.27-3.74,4.68-.97,.98-2.32,1.59-3.5,2.37-.78-1.37-1.94-2.65-2.28-4.12-.7-3-.87-6.11-1.41-9.15-.99-5.56-2.5-10.97-5.57-15.8-1-1.58-2.2-1.35-2.73,.25-.73,2.23-1.07,4.58-1.6,6.88-1.53,6.67-5.3,11.46-11.86,13.82-2.21,.8-4.45,1.56-6.73,2.1-9.12,2.15-18.41,2.11-27.7,2.15-10.95,.04-21.88,.88-32.39,3.96-18.6,5.47-33.35,16.56-44.89,32.08-16.72,22.51-27.3,47.75-34.15,74.78-5.69,22.46-5.7,44.89-.87,67.44,2.7,12.59,7.53,24.24,15.6,34.36,11.97,15.02,26.73,26.71,43.74,35.51,8.05,4.17,16.31,7.98,24.66,11.52,5.66,2.4,11.63,4.05,17.46,6.03,.73,.16,1.46,.32,2.18,.48-.17-.24-.33-.48-.5-.72Zm80.55,5.44c-.47,.69-.94,1.37-1.41,2.06,.88-.27,1.77-.55,2.65-.82,15.85-4.42,29.3-12.59,39.91-25.3,8.77-10.5,16.48-21.68,22.49-34,6.05-12.4,11.34-25.06,15.39-38.32,7.71-25.25,10.12-50.8,6.39-76.92-1.84-12.89-6.92-24.46-15.22-34.39-5-5.99-10.7-11.45-16.46-16.74-6.78-6.23-15.08-10.33-23.01-16.07,0,2.04-.03,3.13,0,4.21,.49,13.25-9.42,22.23-18.05,24.36-11.81,2.91-22.76-1.98-28.43-12.78-2.05-3.91-2.05-3.85-6.17-3.34-8.66,1.07-17.33,2.09-26,3.1-6.87,.8-13.74,1.52-20.6,2.36-3.99,.49-3.91,.59-4.87,4.87-1.13,5.02-3.12,9.64-6.66,13.52-5.96,6.55-13.18,10.08-22.18,9.81-5.06-.15-5.12-.05-6.84,4.71-3.75,10.4-7.32,20.88-11.25,31.21-.99,2.6-.59,3.82,1.65,5.28,17.2,11.2,22.65,35.17,10.61,53.39-2.41,3.65-1.79,3.19,1.15,5.55,8.09,6.5,16.23,12.94,24.37,19.38,3.28,2.59,3.3,2.55,6.22-.42,10.73-10.94,23.74-16.43,39.11-16.45,10.5-.02,20.09,2.96,28.82,8.64,2.19,1.43,3.53,1.77,5.48-.48,9.2-10.58,18.54-21.03,27.94-31.42,1.58-1.74,1.36-2.91,.23-4.72-1.32-2.14-3.08-4.6-3.02-6.88,.22-7.9-4.66-9.51-10.92-9.94-.54-.04-1.09-.11-1.63-.22-5.54-1.15-5.58-1.17-7.16,4.07-4.37,14.5-19.02,26.13-38.25,21.85-16.04-3.56-27.53-18.41-24.1-37.77,2.49-14.05,14.59-24.57,29.5-25.62,13.85-.98,25.99,6.8,31.54,19.16,1.22,2.72,1.71,6.36,3.78,7.96,2.18,1.69,5.87,1.45,8.89,2.06,1.6,.32,3.26,.49,4.79,1.02,2.81,.99,4.33,.5,5.87-2.47,4.58-8.89,15.54-14.94,27.14-13.04,10.53,1.73,19.95,10.21,21.52,20.49,1.82,11.93-1.59,21.58-12.94,28.29-7.69,4.55-15.91,4.5-24.09,.88-1.41-.62-2.52-1.74-4.16,.15-9.55,10.99-19.2,21.88-28.97,32.68-1.77,1.96-.9,2.95,.37,4.42,8.97,10.39,13.03,22.62,12.6,36.18-.45,14.19-5.79,26.47-16.04,36.48ZM106.15,310.91c-.22,16.15,1.45,30.36,4.55,44.4,.41,1.86,1.28,3.78,2.46,5.25,.75,.93,2.48,1.09,3.77,1.59,.42-1.17,.98-2.31,1.23-3.51,.21-1.05,.08-2.17,.08-3.26,0-13.09,.47-26.22,3.15-39.01,3.03-14.51,6.98-28.86,11.17-43.08,2.55-8.64,6.51-16.86,9.49-25.39,4.87-13.93,11.98-26.75,19.04-39.61,.87-1.58,3.5-2.97,1.62-4.99-.5-.53-3.25,.59-4.69,1.43-14.97,8.82-25.97,21.43-34.28,36.48-12.27,22.23-18.28,46.05-17.59,69.71Zm20.76,92.96c.21,1.53,.2,2.65,.53,3.67,3.65,11.37,9.52,21.47,17.87,30.03,1.64,1.68,3.49,4.15,6.41,2.63,1.36-.7,.69-5.02-.95-7.6-4.64-7.33-9.24-14.69-13.98-21.94-1.78-2.72-3.84-5.26-5.95-7.73-.61-.72-1.89-1.38-2.71-1.23-.59,.11-.93,1.61-1.22,2.17Z"/>
  <path class="cls-9" d="M1092.04,312.4c0,2.83,0,5.66,0,8.49-.08,42.6-.13,85.2-.25,127.79-.02,7.63-.23,15.26-.57,22.88-.33,7.25,3.44,11.91,9.18,15.5,4.11,2.57,8.73,3.52,13.43,4.15,4.15,.55,8.31,1,12.46,1.46,2.33,.26,3.32,1.23,3.34,3.85,.08,7.81,.65,15.61,.82,23.42,.12,5.53-.48,6.07-5.78,6.07-48.86,.01-97.72,.01-146.58,0-5.18,0-6.06-.93-5.88-5.99,.28-7.63,.56-15.26,.89-22.88,.18-4.24,.39-4.37,4.81-4.78,4.35-.4,8.76-.52,13.02-1.38,7.77-1.56,15.26-3.94,19.23-11.74,.79-1.56,1.02-3.41,1.43-5.14,.12-.52,.02-1.09,.02-1.63,.18-58.42,.39-116.85,.55-175.27,.09-32.04,.27-64.08,.06-96.12-.06-9.6-.81-19.26-2.17-28.77-.97-6.83-6.09-11.25-12.57-12.99-6.45-1.74-13.19-2.49-19.83-3.46-5.46-.79-5.49-.65-5.66-6.39-.23-7.81-.49-15.62-.6-23.43-.01-.77,.85-2,1.56-2.24,1.52-.51,3.21-.62,4.84-.68,4.01-.15,8.02-.22,12.02-.24,27.51-.2,55.03-.42,82.54-.53,6.36-.03,12.72,.47,19.08,.47,3,0,4.47,1.22,5.74,3.89,12.1,25.39,24.33,50.72,36.57,76.05,17.37,35.95,34.78,71.87,52.17,107.81,3.95,8.17,7.85,16.36,11.8,24.53,.3,.62,.73,1.16,1.6,2.52,.12-2.36,.26-3.87,.26-5.38,.01-36.05,.02-72.09,0-108.14,0-13.83,.02-27.67-.22-41.5-.06-3.77-.62-7.63-1.65-11.25-2.31-8.17-8.89-11.65-16.5-13.26-5.67-1.2-11.49-1.76-17.26-2.35-2.63-.27-3.82-1.06-3.87-3.95-.14-8.17-.68-16.34-.92-24.51-.1-3.52,.51-4.07,4.07-4.08,12.22-.04,24.43-.02,36.65-.02,39.02,0,78.03,0,117.05,0,1.09,0,2.19-.04,3.28,0,3.66,.16,4.91,1.26,4.85,4.97-.07,4.53-.53,9.06-.73,13.59-.17,3.82-.34,7.64-.27,11.46,.04,2.28-.8,3.34-3.05,3.55-3.26,.3-6.5,.97-9.76,1.07-5.77,.17-10.99,1.92-16.14,4.39-6.2,2.97-9.31,7.44-9.3,14.47,.08,29.31-.03,58.62-.11,87.93-.03,13.65-.13,27.3-.23,40.95-.28,40.58-.57,81.16-.86,121.74-.07,10.56-.11,21.11-.24,31.67-.25,20-.55,40.01-.86,60.01-.07,4.78-.12,4.86-4.91,4.87-25.71,.03-51.41-.05-77.12,.09-3.43,.02-5.59-1.38-7.05-4.07-4.07-7.49-8.23-14.95-11.97-22.62-16.05-32.94-31.99-65.94-47.89-98.95-13.08-27.13-26.04-54.31-39.08-81.46-.76-1.59-1.72-3.08-2.58-4.62-.29,.07-.57,.14-.86,.2Z"/>
  <path class="cls-9" d="M1647.09,324.92c0,27.13,.02,54.26,0,81.39-.03,37.69-.1,75.38-.15,113.06,0,1.09-.04,2.19,0,3.28,.06,1.57-.55,2.38-2.22,2.29-1.09-.06-2.19,0-3.28,0-83.51,.05-167.02,.1-250.53,.15-.73,0-1.46,.02-2.19,0-5-.12-5.65-.71-5.62-5.74,.15-23.3,.27-46.6,.59-69.9,.07-5.24,.93-10.47,1.39-15.71,.23-2.58,1.32-3.76,4.17-3.78,7.46-.03,14.92-.48,22.38-.61,4.15-.07,5.43,.97,6.72,4.87,.34,1.03,.48,2.13,.81,3.17,1.35,4.3,2.48,8.69,4.15,12.86,3.3,8.27,10.04,11.44,18.52,11.45,38.11,.04,76.22,.02,114.33,.02,1.09,0,2.19-.05,3.28,0,1.54,.07,2.41-.47,2.31-2.16-.06-1.09,0-2.18,0-3.28,0-33.14,0-66.28,0-99.41,0-.36,0-.73,0-1.09-.05-4.41-.05-4.33-4.28-4.79-13.26-1.43-26.54-1.16-39.81-.54-6.5,.3-12.98,1.26-19.45,2.05-1.19,.15-2.68,.61-3.4,1.46-5.82,6.89-12.83,13.04-14.81,22.46-.37,1.78-.97,3.54-1.05,5.33-.14,3.26-2.09,4.35-4.87,4.42-12.38,.33-24.76,.71-37.14,.8-4.82,.04-6.25-1.79-6.25-6.77-.01-36.23-.01-72.47,0-108.7,0-1.44,.01-2.94,.38-4.31,1.25-4.71,2.24-5.34,7.19-5.42,11.29-.2,22.58-.42,33.86-.69,3.97-.09,5.47,.95,6.51,4.88,.74,2.81,1.27,5.69,2.23,8.42,4.03,11.48,10.99,19.19,24.17,20.22,13.47,1.05,26.88,1.19,40.34,.39,4.18-.25,8.38-.25,12.56-.48,3.72-.2,3.72-.27,3.8-4.17,.02-.73,0-1.46,0-2.18,0-32.23,0-64.45,0-96.68,0-1.27-.04-2.55,0-3.82,.04-1.63-.78-2.22-2.35-2.2-7.11,.09-14.21,.11-21.32,.2-1.81,.02-3.62,.33-5.43,.34-31.36,.15-62.71,.2-94.07,.46-6.49,.05-11.53,2.98-15.18,8.73-3.53,5.56-4.51,11.81-6.19,17.9-1.25,4.55-1.16,4.59-5.65,4.6-7.48,.02-14.95,.04-22.43,0-4.83-.03-5.71-.9-5.71-5.75-.02-27.85,0-55.7-.02-83.55,0-4.35-.4-4.4,4.51-4.43,24.23-.15,48.47-.41,72.7-.53,37.01-.18,74.02-.27,111.02-.4,12.4-.04,24.8-.02,37.19-.18,10.38-.14,20.75-.56,31.12-.74,6.34-.11,7.15,.78,7.15,7.28,0,65.18,0,130.37,0,195.55Z"/>
  <path class="cls-9" d="M645.93,331.31c0-27.67-.03-55.35,0-83.02,.05-33.68,.12-67.36,.25-101.04,.03-7.63,.32-15.26,.55-22.89,.11-3.5,.23-3.66,3.83-3.67,7.84-.03,15.68,.11,23.52,.12,33.37,.06,66.73,.09,100.1,.16,18.23,.04,36.46,.1,54.69,.24,24.23,.19,48.46,.46,72.69,.7,5.93,.06,6.96,1.07,6.96,7.03,.01,26.95,.01,53.89,0,80.84,0,6.08-.95,7.03-6.86,7.18-8.18,.21-16.36,.39-24.54,.63-1.83,.05-2.39-.81-2.83-2.5-1.56-5.95-3.06-11.94-5.15-17.72-2.52-6.99-8.35-10.09-15.32-11.35-1.06-.19-2.18-.03-3.28-.03-38.29,0-76.58,0-114.87,0-.73,0-1.46-.02-2.19,0-3.5,.11-3.6,.11-3.6,3.66-.03,33.5,.02,67-.08,100.5,0,2.71,.95,3.18,3.4,3.45,14.55,1.6,29.08,1.04,43.63,.3,6.53-.33,13.08,.05,19.33-2.56,2.08-.86,3.64-1.92,5.16-3.65,5.82-6.6,9.06-14.29,10.84-22.79,.89-4.23,1.1-4.22,5.34-4.23,11.3-.02,22.61-.02,33.91,0,5.91,.01,6.59,.7,6.6,6.64,.06,31.68,.08,63.36,.18,95.03,.02,5.99,.22,11.98,.59,17.96,.18,2.89-.85,4.48-3.65,4.99-1.58,.29-3.17,.91-4.74,.87-11.28-.29-22.55-.77-33.83-1.06-2.86-.07-4.49-.95-4.55-4.05-.21-11.34-8.58-18.43-14.26-26.89-.8-1.19-2.67-1.98-4.19-2.3-5.32-1.11-10.69-2.59-16.07-2.73-14.58-.37-29.17-.15-43.76-.12-3.8,0-3.87,.08-3.87,3.88-.02,34.96-.02,69.91,0,104.87,0,3.84,.07,3.95,3.8,3.91,19.86-.22,39.71-.5,59.57-.75,9.48-.12,18.95-.24,28.43-.32,10.57-.08,21.15-.24,31.72-.09,3.72,.05,6.8-1.09,9.52-3.35,3.94-3.28,7.34-6.87,8.36-12.3,.77-4.08,2.25-8.02,3.41-12.03,.54-1.87,1.3-3.03,3.7-3.05,7.64-.06,15.27-.55,22.91-.68,5.11-.09,7.18,2.09,7.23,7.2,.2,20.74,.37,41.47,.56,62.21,.05,5.82,.2,11.64,.22,17.46,.02,6.41-1.49,7.84-8.08,7.85-74.57,0-149.15,0-223.72,0-9.12,0-18.24-.12-27.35,.07-2.84,.06-4.03-1.11-4.3-3.63-.18-1.62-.23-3.27-.23-4.9,.04-57.35,.09-114.7,.15-172.05,0-4,0-8.01,0-12.01,.05,0,.1,0,.15,0Z"/>
  <path class="cls-9" d="M1796.37,526.88h-51.97c-7.48,0-14.95,0-22.43,0-1.09,0-2.19,.06-3.28-.02-6.77-.48-7.2-.96-7.2-7.74,0-7.65,.11-15.3-.06-22.94-.06-2.85,.97-3.61,3.71-3.91,7.4-.81,14.8-1.79,22.11-3.17,8.17-1.55,12.23-6.75,12.89-15.23,.11-1.45,.03-2.91,.03-4.37,0-90.14,.04-180.27-.07-270.41-.01-8.71-.46-17.48-1.6-26.1-.93-7.05-5.88-11.81-12.58-13.7-6.25-1.76-12.83-2.37-19.27-3.47-1.25-.21-2.53-.28-3.78-.52-1.6-.31-2.45-1.19-2.5-2.99-.24-8.54-.53-17.08-.95-25.61-.15-2.99,1.79-3.21,3.84-3.28,6.92-.23,13.84-.54,20.76-.54,91.51-.04,183.02-.03,274.52-.01,6.11,0,8.39,2.36,8.35,8.6-.16,25.85-.33,51.7-.54,77.55-.07,8.75-.14,8.73-8.83,9.07-6.72,.27-13.44,.74-20.17,.88-5.56,.12-5.6-.16-6.85-5.45-.92-3.88-1.99-7.73-3.2-11.53-3.05-9.56-9.87-14.51-19.81-14.51-37.75,0-75.5,0-113.24,0-.91,0-1.82-.02-2.74,0-3.41,.11-3.48,.12-3.49,3.71-.03,14.02-.01,28.04-.01,42.06,0,18.94,0,37.88,0,56.81,0,4.65,.02,4.94,4.7,5.24,7.42,.47,14.86,.66,22.29,.67,8.02,.01,16.05-.11,24.05-.57,4.49-.25,9.06-.85,13.37-2.09,4.89-1.4,8.45-5.2,10.67-9.55,2.61-5.12,4.5-10.66,6.23-16.17,1.61-5.12,1.92-5.67,7.51-5.68,11.12-.01,22.25-.03,33.37,0,5.36,.02,8.23,2.92,8.24,8.38,.02,36.97,.01,73.93,0,110.9,0,1.26,.14,2.72-.44,3.71-.62,1.06-1.91,2.02-3.1,2.4-1.33,.42-2.89,.13-4.35,.16-9.1,.21-18.2,.44-27.3,.64-1.45,.03-2.93,.07-4.36-.13-6.17-.87-6.42-1.2-7.9-7.44-.8-3.35-1.74-6.66-2.75-9.95-1.88-6.14-5.86-10.78-10.91-14.57-.84-.63-1.88-1.08-2.9-1.39-6.61-2.03-13.23-3.56-20.3-3.37-13.3,.36-26.62,.16-39.93,.26-5.93,.04-5.95,.11-5.97,6.35-.08,25.67-.11,51.34-.25,77.02-.07,12.55-.38,25.1-.52,37.65-.06,5.9,2.44,10.31,7.65,13.38,7.63,4.51,16.11,5.38,24.61,6.3,1.45,.16,2.92,.07,4.37,.23,4.07,.46,5.44,1.86,5.48,5.91,.07,7.65,.09,15.3,0,22.94-.05,4.09-1.62,5.76-5.53,5.77-25.89,.05-51.78,.03-77.67,.03,0-.08,0-.15,0-.23Z"/>
  <path class="cls-11" d="M766.31,600.17c0,11.99-.03,22.73,.01,33.47,.01,4.16-.02,4.01-3.78,3.97-7.06-.06-5.93,.5-5.95-5.66-.05-15.3-.03-30.59,0-45.89,0-4.1,.06-4.1,4.16-4.18q7.35-.13,10.38,6.43c4.3,9.37,8.56,18.75,13.57,28.04,.11-1.29,.31-2.58,.31-3.87,.03-8.92,0-17.85,.03-26.77,.02-3.75,.07-3.75,3.96-3.82,.73-.01,1.46-.02,2.19,0,3.48,.09,3.56,.09,3.56,3.61,.03,16.21,.03,32.41,0,48.62,0,3.4-.13,3.06-3.68,3.57-5.33,.75-8.06-1.19-10.09-6.26-3.72-9.25-8.3-18.15-12.54-27.2-.45-.96-.98-1.89-2.12-4.07Z"/>
  <path class="cls-11" d="M395.5,610c0-8.18,.06-16.36-.04-24.53-.03-2.34,.23-3.69,3.16-3.64,8.91,.17,17.84,.12,26.75,.02,2.18-.03,2.97,.72,2.77,2.82-.11,1.08-.11,2.19,0,3.27,.23,2.21-.81,2.77-2.85,2.73-5.09-.1-10.19-.07-15.29-.02-3.66,.03-3.66,.08-3.76,3.41q-.27,8.59,8.41,8.59c3.28,0,6.56,.09,9.83-.03,1.92-.07,2.65,.66,2.49,2.52-.09,1.08-.13,2.19,0,3.27,.31,2.45-.78,3.1-3.1,3.02-4.73-.15-9.47,.06-14.19-.09-2.45-.08-3.69,.4-3.51,3.24,.24,3.8,.15,7.63,.03,11.44-.07,2.07,.57,2.92,2.75,2.87,5.09-.12,10.19-.06,15.29-.03,3.82,.03,3.82,.07,3.88,3.82,.01,.91-.05,1.82,0,2.73,.11,1.65-.67,2.21-2.25,2.2-9.28-.04-18.56-.06-27.85,.02-2.38,.02-2.56-1.26-2.55-3.11,.05-8.18,.02-16.36,.02-24.53Z"/>
  <path class="cls-11" d="M1171.26,609.63c0-8.18,.06-16.36-.04-24.53-.03-2.22,.46-3.28,2.98-3.25,8.92,.12,17.84,.13,26.75,0,2.52-.04,3.18,.99,2.93,3.2-.06,.54,0,1.09,0,1.63-.04,3.88-.04,3.92-3.75,3.95-5.1,.04-10.19,.08-15.29-.02-2.03-.04-2.8,.54-2.91,2.73-.47,9.32-.55,9.32,8.84,9.32,2.91,0,5.84,.19,8.73-.05,2.82-.24,3.33,.98,3.24,3.46-.21,6.32,.46,5.26-5.13,5.32-4.37,.05-8.74,.06-13.1-.01-1.83-.03-2.61,.57-2.55,2.5,.11,4.18,.11,8.36,0,12.54-.05,1.95,.77,2.5,2.58,2.48,5.28-.07,10.56-.06,15.83,0,3.43,.03,3.43,.08,3.5,3.64,.01,.73-.04,1.46,.01,2.18,.14,1.91-.26,2.99-2.63,2.95-9.1-.13-18.2-.1-27.3-.02-2.22,.02-2.75-.92-2.73-2.94,.08-8.36,.03-16.72,.03-25.08Z"/>
  <path class="cls-11" d="M1337.12,599.59c0-6.02-.03-11.6,.01-17.17,.03-3.73,.07-3.81,3.92-3.78,7.36,.06,6.11-.86,6.14,5.91,.07,16.38,.03,32.76,.01,49.13,0,3.85-.06,3.86-3.77,3.93-1.46,.03-2.92,.03-4.37-.02-.53-.02-1.47-.15-1.51-.36-.89-5.21-3.08-1.26-4.43-.51-8.13,4.51-16.87,1.57-19.95-7.14-2.55-7.21-2.74-14.59,.08-21.85,3.11-8,10.72-12.91,20.25-9.44,1,.36,2,.71,3.62,1.29Zm0,17.63c0-2.17,.02-4.34,0-6.51-.06-4.68-1.09-5.65-5.65-5.9-3.53-.19-6.1,1.39-7.48,4.36-2.79,6.01-2.89,12.27-.27,18.36,1.31,3.06,4.41,4.17,7.79,3.41,3.83-.86,5.55-2.88,5.61-6.67,.04-2.35,0-4.7,0-7.06Z"/>
  <path class="cls-11" d="M1089.84,599.52c0-6.18,.07-11.97-.04-17.75-.04-2.22,.48-3.16,2.97-3.22,7.16-.19,7.15-.31,7.15,6.64,0,16.2,.01,32.39-.01,48.59,0,3.76-.07,3.77-3.87,3.83-1.46,.02-2.94,.14-4.36-.07-.66-.1-1.64-.83-1.74-1.4-.25-1.5-.61-1.82-2.02-1.02-2.02,1.15-4.07,2.42-6.28,3.05-6.61,1.88-12.65-.83-15.24-7.14-3.14-7.65-3.42-15.56-.4-23.38,2.99-7.74,10.44-12.9,20.3-9.32,.99,.36,2,.69,3.52,1.2Zm0,17.85c0-2.35,.03-4.7,0-7.06-.07-4.13-.98-5.07-4.96-5.48-3.4-.35-6.25,.75-7.81,3.75-3.27,6.29-3.41,12.86-.43,19.28,1.37,2.95,4.64,3.9,7.96,3,3.65-.99,5.16-2.82,5.23-6.43,.04-2.35,0-4.7,0-7.06Z"/>
  <path class="cls-11" d="M1607.38,599.57c0-6.01-.03-11.6,.01-17.18,.03-3.71,.07-3.79,3.94-3.76,7.33,.06,6.09-.86,6.12,5.93,.07,16.38,.03,32.76,.01,49.13,0,3.83-.06,3.84-3.79,3.91-1.28,.02-2.55,.02-3.83,0-.54,0-1.13,.03-1.61-.17-3.3-1.38-3.25-1.31-5.85-.2-8.86,3.81-16.55,.14-19.02-7.65-2.31-7.3-2.69-14.61,.14-21.87,3.1-7.95,10.67-12.9,20.27-9.41,1,.36,2,.71,3.6,1.27Zm0,18.01c0-2.17,.01-4.34,0-6.51-.04-4.92-1.55-6.31-6.39-6.26-3.59,.04-5.9,2.06-7.11,4.99-2.29,5.52-2.31,11.31-.34,16.95,1.19,3.4,4.33,4.9,7.87,4.27,4-.71,5.91-2.91,5.97-6.92,.03-2.17,0-4.34,0-6.51Z"/>
  <path class="cls-4" d="M1688.79,609.74c0-8.19,.11-16.37-.06-24.56-.06-2.74,.94-3.38,3.47-3.34,8.38,.12,16.76,.17,25.14-.02,2.87-.06,3.49,1.12,3.2,3.54-.04,.36,0,.73,0,1.09-.02,4.11-.02,4.14-4.11,4.18-4.74,.04-9.47,.05-14.21,0-1.78-.02-2.69,.5-2.61,2.47,.12,2.72,.12,5.46,0,8.18-.08,1.96,.81,2.51,2.6,2.48,4.19-.06,8.38,.07,12.57-.05,2.27-.07,3.45,.58,3.14,3.05-.11,.9-.11,1.83,0,2.72,.31,2.46-.87,3.12-3.14,3.04-3.82-.13-7.65-.08-11.48-.02-3.57,.05-3.62,.09-3.65,3.55-.05,6.18-.11,12.37,.03,18.55,.06,2.42-.79,3.11-3.13,3.05-9.62-.23-7.57,1.06-7.72-7.18-.13-6.91-.03-13.82-.03-20.74Z"/>
  <path class="cls-11" d="M1379.09,606.34c-1.03-8.15-.59-7.6,6.5-8.59,4.96-.69,9.72-.72,14.53,.46,5.99,1.47,9.21,5,9.37,11.02,.22,8.53,.03,17.07,.13,25.61,.03,2.11-.65,2.96-2.79,2.8-1.81-.14-3.64,.04-5.45-.08-.58-.04-1.58-.56-1.61-.9-.17-2.76-1.14-1.35-2.55-.83-3.33,1.21-6.81,2.55-10.29,2.75-5.89,.33-10.41-3.56-11.41-8.83-1.29-6.83,.93-12.22,6.88-14.3,4.54-1.59,9.47-2.12,14.27-2.92,3.05-.51,3.56-1.3,2.11-4.11-1.46-2.82-4.09-3.66-6.86-3.51-4.29,.23-8.55,.93-12.83,1.43Zm20.47,17c0-1.26,.19-2.57-.08-3.78-.14-.62-1.17-1.61-1.62-1.52-3.33,.67-6.77,1.2-9.86,2.5-2.65,1.11-3.52,5.06-2.52,8.13,.77,2.34,2.83,3.53,6.05,3.48,5.79-.09,8.06-2.58,8.03-8.82Z"/>
  <path class="cls-11" d="M805.74,606.3c-.99-8.01-.65-7.57,6.52-8.55,4.96-.68,9.72-.7,14.53,.47,5.98,1.46,9.2,5,9.35,11.03,.21,8.53,.02,17.07,.13,25.61,.03,2.13-.69,2.94-2.81,2.78-1.81-.13-3.64,.04-5.45-.08-.57-.04-1.57-.56-1.59-.92-.19-2.81-1.18-1.3-2.56-.8-3.34,1.19-6.81,2.54-10.29,2.73-5.88,.33-10.41-3.57-11.4-8.84-1.29-6.84,.94-12.21,6.9-14.29,4.54-1.59,9.48-2.12,14.27-2.91,2.99-.5,3.42-1.01,2.32-3.63-1.24-2.95-3.77-4.07-6.57-3.96-4.46,.17-8.91,.88-13.37,1.37Zm20.51,17.38c0-.9-.08-1.82,.02-2.71,.24-2.31-.57-3.49-3.04-2.9-2.62,.63-5.35,1-7.8,2.03-3.2,1.34-4.31,4.59-3.34,8.24,.71,2.68,2.78,3.93,6.31,3.81,5.51-.18,7.84-2.7,7.85-8.48Z"/>
  <path class="cls-11" d="M985.05,606.34c-.61-7.6-.9-7.5,6.45-8.58,5.15-.75,10.1-.72,15.07,.52,5.68,1.41,8.84,4.97,9,10.78,.23,8.71,.07,17.44,.12,26.15,0,1.47-.25,2.48-2.04,2.42-2-.07-4.01,.09-6-.07-.68-.06-1.81-.76-1.85-1.25-.16-1.67-.69-1.84-1.89-.85-2.95,2.42-6.49,3.14-10.15,3.23-6.27,.15-11.02-3.36-12.12-8.75-1.44-7.06,1.28-12.96,7.64-14.94,4.44-1.38,9.21-1.77,13.84-2.48,2.58-.4,3.01-1.03,2.06-3.43-1.27-3.21-3.98-4.29-6.99-4.16-4.31,.19-8.6,.9-13.15,1.42Zm20.64,17.09c0-6.05-.15-6.22-5.94-4.92-1.92,.43-3.89,1-5.59,1.93-2.6,1.43-3.57,4.99-2.59,8.14,.75,2.4,2.74,3.59,5.98,3.57,5.87-.05,8.15-2.48,8.15-8.73Z"/>
  <path class="cls-11" d="M1838.34,606.37c-.04-.79-.09-1.5-.1-2.21-.03-5.33-.01-5.27,5.13-6.18,5.41-.96,10.76-1.22,16.16,.19,6.23,1.62,9.39,5.1,9.52,11.49,.18,8.35,.02,16.71,.09,25.07,.01,1.91-.27,3.17-2.65,2.94-1.8-.18-3.65,.08-5.45-.1-.67-.07-1.76-.79-1.81-1.29-.17-1.8-.81-1.63-1.93-.78-3.32,2.55-7.17,3.37-11.24,3.21-5.61-.21-9.98-3.77-10.99-8.81-1.31-6.56,.69-12.05,6.26-14.13,4.67-1.74,9.78-2.35,14.74-3.22,3.15-.55,3.66-1.21,2.3-4-1.4-2.87-4.02-3.75-6.79-3.62-4.31,.21-8.6,.92-13.25,1.45Zm20.78,16.9c0-1.08,.23-2.24-.07-3.23-.24-.79-1.26-2.06-1.71-1.97-3.33,.64-6.76,1.2-9.86,2.52-2.61,1.11-3.47,5.16-2.45,8.16,.8,2.34,2.83,3.48,6.11,3.41,5.7-.12,8-2.68,7.98-8.89Z"/>
  <path class="cls-11" d="M727.1,617.83c.03,5.57-.81,10.86-4.68,15.22-4.69,5.28-10.71,6.46-17.34,5.29-6.69-1.18-11.05-5.27-13.1-11.63-1.89-5.85-1.72-11.8,.22-17.64,2.67-8,9.87-12.54,18.63-11.88,8.47,.64,14.61,6.48,15.88,15.22,.26,1.79,.26,3.61,.38,5.42Zm-26.21,.31c.62,2.95,.92,5.86,1.88,8.54,.97,2.7,3.1,4.39,6.24,4.39,3.13,0,5.26-1.68,6.3-4.36,2.25-5.78,2.27-11.71-.02-17.5-1.07-2.72-3.21-4.33-6.3-4.36-3.12-.04-5.33,1.59-6.25,4.33-.97,2.87-1.26,5.96-1.85,8.98Z"/>
  <path class="cls-11" d="M934.98,617.74c-.08,1.66-.1,2.93-.21,4.19-.84,9.64-7.1,16.14-16.13,16.78-10.14,.71-16.94-4.48-19.31-14.39-1.23-5.13-.81-10.12,.69-15,2.5-8.17,10.16-12.93,19-12.11,8.25,.76,14.22,6.45,15.56,14.96,.31,1.96,.29,3.97,.4,5.58Zm-26.16,.48c.58,2.81,.88,5.72,1.82,8.41,.95,2.7,3.07,4.43,6.2,4.43,2.94,0,5.45-1.64,6.56-4.79,1.93-5.47,1.97-11.04,.02-16.51-1.05-2.95-3.14-4.84-6.48-4.91-3.01-.06-5.38,1.43-6.47,4.78-.88,2.71-1.11,5.63-1.66,8.59Z"/>
  <path class="cls-11" d="M443.69,601.63c2.68-1.31,5.12-2.93,7.82-3.75,8.6-2.63,15.56,2.05,15.93,10.94,.36,8.7,.11,17.43,.18,26.15,.01,1.71-.36,2.54-2.35,2.7-7.76,.62-7.75,.7-7.75-7.09,0-4.9,0-9.81,0-14.71,0-1.27,.07-2.56-.14-3.81-.43-2.55-1.05-5.17-4.01-5.91-3.21-.8-6.3-.05-8.5,2.36-.92,1.01-1.07,2.98-1.09,4.52-.11,7.08-.16,14.17,0,21.25,.06,2.62-.73,3.39-3.37,3.41-6.89,.06-6.88,.2-6.88-6.87,0-9.81,.05-19.62-.04-29.42-.02-2.24,.48-3.44,2.99-3.14,1.25,.15,2.58,.21,3.81-.01,3.02-.54,3.69,1.1,3.42,3.38Z"/>
  <path class="cls-11" d="M603.51,601.57c2.66-1.3,5.26-3.04,8.13-3.87,8.07-2.34,15.04,2.24,15.46,10.47,.46,9.06,.17,18.15,.25,27.23,.02,1.63-.67,2.1-2.24,2.25-7.73,.75-7.86,.68-7.86-6.96,0-4.9,0-9.81,0-14.71,0-1.27,.08-2.56-.13-3.81-.42-2.54-.97-5.18-3.92-5.98-3.21-.87-6.29-.12-8.53,2.24-.94,.99-1.14,2.96-1.16,4.49-.12,6.9-.07,13.8-.04,20.7,.02,3.85,.26,4.07-3.76,4-7.83-.14-6.36,.94-6.43-6.15-.09-9.81-.04-19.61-.01-29.42,.01-3.7,.07-3.7,3.91-3.76,.91-.01,1.82-.02,2.73,0q3.05,.08,3.6,3.28Z"/>
  <path class="cls-11" d="M951.24,602.55c4.87-4.52,9.6-6.22,15.21-4.98,5.09,1.12,8.19,4.57,8.46,9.42,.53,9.6,.73,19.26,.14,28.85-.22,3.64-4.47,1.15-6.82,1.72-1.66,.4-3.14,.11-3.08-2.41,.15-6.35,.08-12.71,.03-19.07-.02-1.8-.06-3.65-.46-5.39-.87-3.75-2.91-5.08-6.71-4.73-4.22,.38-6.54,2.52-6.58,6.33-.07,7.26,.01,14.53-.03,21.79-.02,3.44-.09,3.56-3.64,3.52-8.04-.08-6.44,1.05-6.52-6.57-.11-9.81,.06-19.62-.08-29.42-.04-2.6,.67-3.69,3.34-3.34,1.25,.16,2.57,.19,3.81,0,3.06-.46,3.27,1.38,2.94,4.3Z"/>
  <path class="cls-11" d="M1418.26,618.02c0-5.63,.06-11.26-.03-16.89-.03-1.99,.39-3.1,2.69-2.88,1.8,.17,3.64-.03,5.45,.08,.62,.04,1.72,.47,1.74,.75,.22,4.79,1.99,1.6,3.39,.73,2.99-1.88,6.22-2.89,9.8-2.61,5.91,.46,10.32,3.87,10.66,9.71,.57,9.59,.72,19.26,.17,28.85-.22,3.79-4.44,1.19-6.76,1.79-1.61,.42-3.2,.24-3.15-2.33,.13-6.54,.1-13.08,0-19.61-.03-1.97-.23-4-.79-5.88-.95-3.16-3.24-4.28-6.84-3.76-3.71,.53-6.06,2.56-6.1,5.69-.1,7.45,0,14.89-.05,22.34-.02,3.51-.09,3.63-3.56,3.6-8.14-.07-6.45,1.03-6.61-6.5-.09-4.36-.02-8.72-.02-13.08Z"/>
  <path class="cls-11" d="M1304.54,618.42c0,5.45-.06,10.9,.03,16.35,.03,2.01-.44,3.09-2.72,2.87-1.62-.16-3.27,0-4.91-.05-.71-.02-1.99-.14-2.02-.37-.8-4.91-2.85-1.28-4.43-.69-1.69,.64-3.32,1.57-5.06,1.9-6.26,1.18-13.99-.94-14.71-10.43-.7-9.21-.25-18.52-.17-27.78,0-.65,1.16-1.34,1.87-1.92,.22-.18,.71-.04,1.07-.03,8.77,.14,6.88-1,7.04,6.66,.11,5.27,.02,10.54,.02,15.81,0,1.27-.06,2.55,.08,3.81,.31,2.8,.99,5.44,4.17,6.37,2.69,.78,7.47-.67,8.84-2.99,.67-1.13,.74-2.73,.76-4.12,.07-7.27,0-14.53,.04-21.8,.02-3.62,.08-3.74,3.43-3.71,8.16,.07,6.48-.98,6.63,6.49,.09,4.54,.02,9.08,.02,13.63Z"/>
  <path class="cls-11" d="M545.19,617.91c0,5.63-.07,11.27,.04,16.9,.04,2.07-.57,3.01-2.76,2.83-1.63-.14-3.27,.01-4.91-.04-.71-.02-1.99-.15-2.02-.38-.79-5.16-2.9-1.11-4.42-.64-1.2,.37-2.33,.99-3.53,1.36-8.9,2.73-15.98-1.87-16.34-11.03-.34-8.71-.06-17.44-.15-26.16-.02-1.92,.69-2.67,2.55-2.46,.36,.04,.73,.01,1.09,0q6.48-.16,6.48,6.15c0,5.45,0,10.9,0,16.35,0,1.27-.06,2.55,.09,3.81,.32,2.8,1.01,5.43,4.21,6.33,2.71,.76,7.48-.7,8.82-3.02,.66-1.14,.72-2.74,.73-4.13,.07-7.45,.09-14.9,0-22.35-.03-2.21,.48-3.15,2.97-3.22,7.16-.19,7.16-.32,7.16,6.62,0,4.36,0,8.72,0,13.08Z"/>
  <path class="cls-11" d="M1646.72,620.13c-3.46,0-6.92,.04-10.38-.02-1.75-.03-2.02,.65-1.77,2.3,.86,5.52,3.87,8.66,9.46,8.53,3.74-.09,7.5-1.04,11.18-1.89,2.21-.51,2.85-.02,2.88,2.26,.05,4.51-.05,5.01-4.38,6.01-5.31,1.21-10.62,2.1-16.13,.65-5.97-1.56-9.9-5.05-11.93-10.83-2.26-6.46-2.05-12.9,.54-19.15,3.71-8.94,13.83-13.78,24.08-9.03,5.5,2.55,7.51,7.61,8.56,13.15,.2,1.06,.14,2.18,.13,3.27-.05,5.25,.55,4.72-4.59,4.73-2.55,0-5.1,0-7.65,0Zm-4.96-5.46v-.04c2.19,0,4.38,.11,6.55-.08,.53-.05,1.39-1.07,1.38-1.63-.07-4.1-2.72-7.52-6.05-8.05-3.8-.6-7.41,1.83-8.7,5.86-1.13,3.53-.88,3.87,2.99,3.94,1.28,.02,2.55,0,3.83,0Z"/>
  <path class="cls-11" d="M1507.81,620.13c-3.46,0-6.92,.04-10.38-.01-1.67-.02-2.1,.51-1.83,2.25,.86,5.51,3.87,8.7,9.42,8.58,3.74-.08,7.49-1.04,11.18-1.87,2.12-.47,2.9-.19,2.93,2.18,.05,4.52-.04,5.03-4.33,6.04-5.49,1.29-10.99,2.15-16.66,.54-5.29-1.5-9.01-4.57-11.05-9.63-2.7-6.72-2.6-13.52,.12-20.17,3.9-9.53,14.84-13.61,24.06-9.12,5.46,2.66,7.52,7.61,8.59,13.15,.17,.88,.14,1.81,.13,2.72-.06,6.27,.56,5.25-5.09,5.33-2.37,.03-4.74,0-7.1,0Zm-12.53-5.47c4.78,0,9.31,.05,13.84-.07,.59-.02,1.61-.92,1.64-1.46,.23-3.74-2.63-7.62-5.86-8.25-3.53-.69-7.25,1.43-8.66,5.12-.5,1.31-.59,2.79-.96,4.65Z"/>
  <path class="cls-11" d="M562.06,620.13c1.34,8.93,4.44,11.54,12.82,10.87,2.33-.19,4.59-1.03,6.91-1.4,1.25-.2,3.26-.56,3.7,.04,1.35,1.87,.02,6.31-1.84,6.93-6.67,2.22-13.45,3.19-20.29,.88-4.35-1.47-7.56-4.4-9.35-8.62-2.97-7.03-2.95-14.21,.06-21.18,3.96-9.18,14.78-13.08,23.81-8.76,5.47,2.62,7.56,7.56,8.67,13.1,.14,.71,.14,1.45,.14,2.17-.04,7.33,.56,5.88-5.53,5.96-6.34,.08-12.69,.02-19.09,.02Zm-.27-5.46c5.21,0,9.58,.06,13.94-.06,.62-.02,1.69-.84,1.74-1.37,.33-3.29-2.37-7.34-5.25-8.22-3.44-1.05-7.33,.79-8.99,4.45-.66,1.46-.88,3.11-1.44,5.21Z"/>
  <path class="cls-11" d="M1116.82,620.13c1.31,8.91,4.46,11.6,12.83,10.85,2.85-.25,5.64-1.27,8.44-2,1.51-.39,2.29-.17,2.46,1.66,.42,4.7-.14,5.81-4.76,6.79-5.14,1.08-10.26,1.97-15.6,.58-5.98-1.55-9.93-4.96-12-10.74-2.31-6.45-2.11-12.87,.44-19.14,3.89-9.56,14.75-13.68,24.02-9.23,5.47,2.63,7.55,7.57,8.65,13.11,.14,.71,.14,1.45,.14,2.17-.04,7.31,.57,5.85-5.55,5.94-6.18,.08-12.36,.02-19.06,.02Zm-.29-5.46c5.2,0,9.57,.06,13.93-.06,.62-.02,1.69-.84,1.75-1.37,.35-3.27-2.35-7.34-5.23-8.22-3.44-1.05-7.33,.78-8.99,4.44-.66,1.46-.88,3.11-1.45,5.22Z"/>
  <path class="cls-2" d="M323.93,581.89c2.37,0,4.74-.08,7.1,.03,1.58,.07,4.33,.05,4.5,.66,.62,2.18,.52,4.62,.33,6.93-.04,.44-1.66,.98-2.6,1.09-3.91,.46-3.95,.41-3.96,4.36-.02,10.19,.08,20.38-.06,30.56-.04,2.61,.69,3.79,3.35,3.35,3.04-.5,3.81,1.06,3.49,3.72-.11,.9-.07,1.82-.01,2.73,.11,1.58-.52,2.31-2.17,2.31-6.56-.04-13.12-.05-19.67,.01-1.85,.02-2.68-.66-2.52-2.54,.08-.9,.09-1.83,0-2.73-.25-2.38,.29-3.97,3.18-3.5,3.06,.5,3.55-1.12,3.52-3.77-.12-10.19-.1-20.37-.02-30.56,.02-2.46-.12-4.44-3.37-3.9-2.73,.45-3.66-.8-3.31-3.37,.07-.54,0-1.09,.01-1.64,.07-3.62,.07-3.66,3.47-3.72,2.91-.06,5.83-.01,8.74-.01Z"/>
  <path class="cls-2" d="M353.27,637.61c-3.28,0-6.56-.05-9.84,.02-1.69,.03-2.23-.79-2.18-2.31,.03-.91,.08-1.83-.02-2.73-.31-2.66,.46-4.22,3.51-3.72,2.89,.47,3.2-1.18,3.18-3.55-.09-10.37-.09-20.74,0-31.11,.02-2.35-.24-4.04-3.16-3.57-3.01,.48-3.86-1.01-3.53-3.7,.09-.72,.06-1.46,0-2.18-.16-1.98,.44-2.95,2.72-2.91,6.37,.14,12.75,.09,19.13,.02,1.86-.02,2.71,.61,2.52,2.52-.09,.9-.09,1.83,0,2.73,.26,2.37-.22,3.98-3.14,3.52-2.77-.44-3.76,.62-3.71,3.55,.17,10.37,.1,20.74,.04,31.11-.01,2.26,.1,3.73,3.11,3.67,3.65-.07,3.66,.22,3.69,3.95,0,.73-.06,1.46,.01,2.18,.19,1.89-.62,2.59-2.5,2.54-3.28-.09-6.56-.03-9.84-.03Z"/>
  <path class="cls-5" d="M1773.57,608.1c-3.53-1.54-6.23-3.25-9.14-3.83-2.51-.5-5.52-.3-7.88,.64-3.42,1.37-3.3,5.52,.04,7.18,2.08,1.04,4.45,1.5,6.68,2.26,1.88,.64,3.75,1.33,5.63,2,8.67,3.09,7.54,15.76,1.38,19.16-2.78,1.53-6,2.58-9.14,3.06-2.6,.4-5.42-.14-8.08-.61-10.29-1.8-8.68-2.2-8.13-10.7,2.71,1,5.35,2.28,8.14,2.9,2.8,.62,5.74,.77,8.62,.77,2.14,0,3.89-1.14,4.32-3.44,.48-2.55-1.26-3.57-3.32-4.19-2.42-.74-4.88-1.39-7.3-2.13-8.82-2.68-10.63-6.34-10.7-11.85-.07-6.01,4.28-10.23,11.58-11.78,5.14-1.09,10.09,.09,15.01,1.54,1.7,.5,2.3,1.59,2.28,3.23-.02,1.81,0,3.62,0,5.78Z"/>
  <path class="cls-5" d="M1553.65,608.22c-3.35-1.54-5.73-2.9-8.27-3.73-1.85-.6-3.95-.83-5.89-.65-2.4,.22-4.66,1.18-5.19,4.01-.44,2.33,.59,3.64,4.04,4.89,3.41,1.23,6.93,2.13,10.3,3.45,4.06,1.6,6.39,4.56,6.49,9.14,.11,4.78-1.57,8.64-5.8,10.93-2.19,1.18-4.78,2.34-7.17,2.29-4.67-.09-9.32-1.02-13.97-1.64-2.98-.4-3.82-2.29-3.54-5.05,.15-1.44,.03-2.9,.03-4.7,2.84,1.03,5.41,2.26,8.13,2.88,2.8,.64,5.72,.87,8.6,.94,2.36,.06,4.32-1.06,4.71-3.65,.39-2.56-1.46-3.47-3.5-4.07-2.61-.76-5.24-1.44-7.83-2.25-6.64-2.06-10.1-5.98-10.1-11.31,0-5.88,3.84-9.89,10.81-11.87,5.38-1.53,10.41-.11,15.52,1.14,1.89,.46,2.72,1.6,2.65,3.53-.06,1.77-.01,3.55-.01,5.73Z"/>
  <path class="cls-5" d="M1236.34,608.1c-3.52-1.54-6.21-3.25-9.13-3.83-2.51-.5-5.52-.31-7.89,.63-3.42,1.36-3.31,5.52,0,7.18,2.08,1.04,4.45,1.51,6.68,2.26,1.88,.64,3.75,1.33,5.63,2,8.7,3.11,7.54,15.77,1.41,19.16-2.78,1.53-5.99,2.58-9.13,3.07-2.6,.4-5.42-.14-8.08-.6-10.47-1.81-8.63-2.31-8.16-10.71,2.72,1,5.36,2.28,8.14,2.9,2.8,.62,5.74,.77,8.62,.78,2.14,0,3.89-1.13,4.33-3.43,.49-2.55-1.24-3.58-3.3-4.2-2.6-.78-5.26-1.39-7.83-2.25-8.13-2.73-10.09-5.95-10.19-11.72-.1-5.9,3.96-9.77,11.06-11.6,5.36-1.38,10.42-.05,15.51,1.35,1.71,.47,2.32,1.57,2.3,3.21-.02,1.81,0,3.62,0,5.8Z"/>
  <path class="cls-11" d="M656.55,630.41c1.06,6.65,2.01,8.36-7.28,8.26-8.07-.09-12.06-3.98-12.37-12.01-.23-5.98-.12-11.98-.15-17.97,0-1.28,.13-2.81-1.73-2.71-3.07,.16-2.47-1.96-2.41-3.66,.07-1.76-.97-4.25,2.52-4.17,.52,.01,1.49-1.4,1.54-2.21,.19-2.89,0-5.81,.15-8.71,.03-.69,.76-1.88,1.24-1.91,2.53-.19,5.09-.19,7.62,0,.44,.03,1.1,1.27,1.14,1.98,.13,2.9,.11,5.81,.04,8.71-.03,1.57,.5,2.36,2.17,2.27,1.27-.07,2.56-.14,3.81,.03,1.31,.18,3.53,.41,3.69,1.04,.46,1.86,.22,3.93-.05,5.88-.05,.33-1.54,.57-2.39,.67-2.28,.28-5.5-.35-6.61,.91-1.2,1.36-.48,4.45-.52,6.78-.05,2.9-.03,5.81,0,8.71,.08,8.25,1.74,9.65,9.59,8.11Z"/>
  <path class="cls-11" d="M1461.74,617.7c0-2.36,.06-4.72-.02-7.08-.07-2.15,1-4.99-3.05-4.99-.37,0-.86-3.01-1.06-4.65-.15-1.19-.33-2.77,1.66-2.67,2.43,.13,2.56-1.35,2.48-3.15-.07-1.63-.03-3.27-.01-4.9,.07-5.7-.76-5.06,5.36-5.07,5.21-.01,4.74-.59,4.76,4.55,0,.18,0,.36,0,.54,.13,2.5-.56,5.58,.67,7.3,.86,1.2,4.34,.76,6.63,.65,2.38-.11,2.67,1.05,2.64,2.96-.09,5.59,.15,4.72-4.61,4.75-.18,0-.36,0-.55,0-5.19,.02-4.71-.41-4.71,4.64,0,4.54-.11,9.08,.05,13.62,.21,5.88,2.18,7.58,7.79,6.4,1.89-.4,2.13-.06,2.24,1.58,.36,5.27-.52,6.35-5.82,6.53-10.7,.38-14.64-4.97-14.4-13.37,.07-2.54,.01-5.08,.01-7.62-.02,0-.05,0-.07,0Z"/>
  <path class="cls-11" d="M1264.9,630.42c.98,7.62,.18,8.52-7.29,8.29-8.06-.25-12.05-4.02-12.37-12.05-.23-5.8-.09-11.62-.17-17.42-.02-1.33,.56-3.3-1.72-3.24-3.07,.09-2.46-1.99-2.4-3.68,.06-1.77-.96-4.25,2.52-4.16,.52,.01,1.48-1.41,1.54-2.21,.19-2.89,0-5.81,.15-8.71,.03-.68,.77-1.87,1.25-1.91,2.53-.19,5.09-.19,7.62,0,.44,.03,1.1,1.28,1.13,1.99,.13,2.9,.11,5.81,.04,8.71-.03,1.58,.51,2.36,2.18,2.26,1.27-.07,2.56-.14,3.81,.03,1.31,.18,3.53,.42,3.68,1.04,.46,1.86,.21,3.93-.05,5.88-.05,.33-1.54,.56-2.39,.67-2.28,.28-5.5-.35-6.61,.91-1.2,1.36-.49,4.45-.52,6.78-.04,3.45,0,6.9,0,10.35-.02,5.19,2.37,8.86,8.63,6.41,.27-.11,.64,.03,.96,.06Z"/>
  <path class="cls-5" d="M1830.19,627.5c1.29,8.37,.96,8.78-6.64,10.63-9.41,2.28-20.98-1.6-22.78-14.86-.6-4.44-.55-8.71,.58-12.94,2.51-9.4,11.22-14.67,21.08-12.95,1.07,.19,2.12,.51,3.17,.77,4.89,1.21,6.62,4.26,5.01,9.13-.15,.45-1.5,.95-2.01,.74-1.66-.69-3.1-1.93-4.78-2.55-5.74-2.11-11.05,.32-12.23,6.25-.79,3.99-.8,8.41,.02,12.39,1.22,5.94,6.44,8.36,12.24,6.35,2.17-.75,4.19-1.95,6.34-2.97Z"/>
  <path class="cls-5" d="M853.45,618.28c.1,1.46,.06,3.12,.36,4.71,1.28,6.64,6.71,9.65,13.09,7.35,.51-.19,1.01-.48,1.53-.56,1.66-.26,3.22-3.76,4.7-1.09,1.74,3.14,.02,7-2.71,8.16-5.41,2.29-10.94,2.6-16.49,.64-4.16-1.47-7.23-4.33-8.86-8.38-2.82-7.01-3.07-14.15-.2-21.25,3.38-8.37,11.02-11.42,19.54-10.56,2.13,.22,4.19,1.1,6.3,1.62,1.8,.44,2.92,1.31,2.68,3.38-.23,1.95-.34,3.9-.51,5.86-1.6-.69-3.23-1.33-4.8-2.09-7.07-3.41-13.39-.07-14.39,7.67-.19,1.44-.16,2.9-.24,4.54Z"/>
  <path class="cls-5" d="M474.95,617.99c.56-2.9,.81-5.83,1.7-8.56,3.17-9.63,10.88-12.96,20.07-12.14,1.97,.18,3.9,.83,5.82,1.37,2.06,.57,3.3,1.49,3.28,4.14-.04,6,.17,6-5.35,3.29-7.04-3.45-13.51-.12-14.38,7.61-.34,3.05-.36,6.23,.12,9.25,1.08,6.68,6.62,9.7,13.01,7.41,.51-.18,1.01-.47,1.54-.56,1.66-.28,3.22-3.72,4.73-1.15,1.76,3,.02,7.03-2.66,8.17-5.59,2.38-11.31,2.67-17,.48-4.72-1.82-7.75-5.43-9.15-10.2-.86-2.93-1.16-6.03-1.72-9.12Z"/>
  <path class="cls-11" d="M1034.56,608.03c0,8.73-.08,17.46,.05,26.19,.04,2.51-.53,3.47-3.31,3.48-6.93,.03-6.93,.2-6.93-6.85,0-15.82-.01-31.64,0-47.47,0-5.21-.6-4.74,4.57-4.76,.36,0,.73,0,1.09,0,4.96-.02,4.53-.12,4.53,4.32,0,8.37,0,16.73,0,25.1Z"/>
  <path class="cls-11" d="M662.19,617.6c0-5.46,.12-10.91-.05-16.37-.08-2.48,.88-3.18,3.16-2.98,1.63,.14,3.31-.15,4.9,.11,.79,.13,2.04,1.05,2.06,1.64,.09,2.79,.97,2.68,2.77,1.14,2.82-2.41,5.95-4.06,9.86-4,2.34,.03,3.36,.93,3.28,3.22-.04,1.09-.12,2.2,.02,3.27,.37,2.84-.5,3.22-3.33,2.66-2.51-.49-5.42,0-7.93,.8-3.18,1.01-4.77,3.37-4.62,7.09,.28,6.72,.02,13.45,.11,20.18,.03,2.13-.32,3.23-2.9,3.32-7.34,.25-7.33,.38-7.33-6.99,0-4.36,0-8.73,0-13.09Z"/>
  <path class="cls-11" d="M889.94,617.99c0,5.62-.07,11.23,.04,16.85,.04,2.09-.64,2.74-2.78,2.84-7.27,.31-7.27,.41-7.27-6.99,0-9.78,.06-19.57-.04-29.35-.03-2.32,.62-3.42,3.04-3.05,.18,.03,.36,0,.54,0,7.82,.13,6.34-.89,6.46,6.12,.08,4.53,.01,9.06,.01,13.59Z"/>
  <path class="cls-11" d="M1358.08,617.66c0-5.62,.05-11.23-.03-16.85-.02-1.81,.48-2.78,2.44-2.53,.18,.02,.36,0,.54,0q7.05-.3,7.05,6.63c0,9.78-.08,19.57,.06,29.35,.04,2.57-.63,3.49-3.32,3.4-8.33-.28-6.57,.94-6.73-6.42-.1-4.53-.02-9.06-.02-13.59Z"/>
  <path class="cls-11" d="M1736.82,617.91c0,5.62-.05,11.23,.03,16.85,.03,1.98-.44,2.82-2.7,2.92-7.35,.32-7.34,.43-7.34-6.92,0-9.78,.05-19.57-.04-29.35-.02-2.21,.45-3.15,2.95-3.19,7.1-.13,7.1-.26,7.1,6.66,0,4.35,0,8.7,0,13.04Z"/>
  <path class="cls-11" d="M1792.62,618.41c0,5.44-.04,10.87,.02,16.31,.02,1.92-.33,2.86-2.65,2.97-7.39,.32-7.39,.44-7.39-6.88,0-9.6-.02-19.2,.01-28.81,.01-3.61,.07-3.72,3.4-3.69,8.07,.07,6.44-.96,6.59,6.52,.09,4.53,.02,9.06,.02,13.59Z"/>
  <path class="cls-10" d="M1741.46,578.14c-3.17,4.28-5.85,8.61-9.31,12.2-1.39,1.45-4.49,1.26-7.64,2.02,1.6-3.29,2.95-5.46,3.74-7.82,2.07-6.15,6.05-8.51,13.2-6.4Z"/>
  <path class="cls-10" d="M885.15,591.73c-1.08,0-2.17-.04-3.25,0-1.54,.06-2.4-.52-2.26-2.17,.21-2.44,.41-4.88,.62-7.32,3.03-.08,6.07-.22,9.1-.17,.41,0,1.02,.89,1.15,1.46,.2,.85,.09,1.79,.08,2.69-.08,6.09,.74,5.48-5.45,5.52Z"/>
  <path class="cls-10" d="M1362.99,581.88c6.58,.1,5.71-.91,5.74,6.29,.02,3.45-.08,3.45-3.6,3.56-.72,.02-1.44,0-2.16,0-5.82-.05-5.14,.57-5.17-5.21-.02-5.18-.46-4.6,5.19-4.64Z"/>
  <path class="cls-10" d="M1787.22,581.89c1.67,0,2.75,.03,3.83,0,1.59-.06,2.11,.68,2.26,2.25,.72,7.16-.8,8.47-8.82,7.64-1.57-.16-2.3-.68-2.18-2.28,.05-.72-.01-1.44,0-2.16,.09-6.18-.72-5.35,4.9-5.43Z"/>
  <path class="cls-8" d="M218.97,377.55c-.21,.62-.41,1.25-.62,1.87-.08-.63-.15-1.26-.23-1.89,.28,.03,.56,.04,.85,.01Z"/>
  <path class="cls-12" d="M425.76,502.07c10.26-10.01,15.59-22.29,16.04-36.48,.43-13.55-3.64-25.78-12.6-36.18-1.26-1.47-2.14-2.46-.37-4.42,9.77-10.79,19.42-21.69,28.97-32.68,1.64-1.89,2.75-.77,4.16-.15,8.17,3.62,16.4,3.66,24.09-.88,11.34-6.71,14.76-16.36,12.94-28.29-1.57-10.28-10.99-18.77-21.52-20.49-11.6-1.9-22.56,4.15-27.14,13.04-1.53,2.98-3.06,3.46-5.87,2.47-1.53-.54-3.19-.7-4.79-1.02-3.03-.61-6.71-.37-8.89-2.06-2.07-1.6-2.56-5.24-3.78-7.96-5.55-12.35-17.69-20.14-31.54-19.16-14.91,1.06-27.01,11.57-29.5,25.62-3.43,19.37,8.06,34.21,24.1,37.77,19.23,4.27,33.88-7.36,38.25-21.85,1.58-5.23,1.62-5.22,7.16-4.07,.53,.11,1.08,.18,1.63,.22,6.26,.43,11.14,2.04,10.92,9.94-.06,2.28,1.69,4.75,3.02,6.88,1.12,1.81,1.34,2.98-.23,4.72-9.41,10.39-18.75,20.85-27.94,31.42-1.95,2.24-3.29,1.91-5.48,.48-8.73-5.69-18.32-8.66-28.82-8.64-15.37,.02-28.38,5.51-39.11,16.45-2.91,2.97-2.94,3.01-6.22,.42-8.14-6.44-16.28-12.88-24.37-19.38-2.94-2.36-3.56-1.9-1.15-5.55,12.04-18.22,6.59-42.19-10.61-53.39-2.24-1.46-2.63-2.69-1.65-5.28,3.93-10.34,7.49-20.81,11.25-31.21,1.72-4.76,1.78-4.87,6.84-4.71,9,.27,16.22-3.27,22.18-9.81,3.54-3.89,5.53-8.5,6.66-13.52,.96-4.27,.88-4.37,4.87-4.87,6.86-.85,13.74-1.56,20.6-2.36,8.67-1.01,17.34-2.03,26-3.1,4.13-.51,4.12-.57,6.17,3.34,5.68,10.81,16.62,15.69,28.43,12.78,8.63-2.13,18.53-11.1,18.05-24.36-.04-1.08,0-2.17,0-4.21,7.93,5.75,16.22,9.85,23.01,16.07,5.76,5.29,11.45,10.75,16.46,16.74,8.3,9.93,13.39,21.5,15.22,34.39,3.73,26.12,1.32,51.67-6.39,76.92-4.05,13.26-9.34,25.91-15.39,38.32-6,12.32-13.71,23.5-22.49,34-10.62,12.71-24.06,20.88-39.91,25.3-.41-.41-.82-.83-1.24-1.24Z"/>
  <path class="cls-12" d="M343.53,496.87c-5.83-1.98-11.81-3.63-17.46-6.03-8.35-3.54-16.61-7.35-24.66-11.52-17.01-8.8-31.77-20.5-43.74-35.51-8.07-10.12-12.9-21.77-15.6-34.36-4.84-22.55-4.82-44.99,.87-67.44,6.85-27.02,17.43-52.27,34.15-74.78,11.53-15.52,26.28-26.62,44.89-32.08,10.5-3.09,21.44-3.92,32.39-3.96,9.29-.04,18.58,0,27.7-2.15,2.28-.54,4.52-1.31,6.73-2.1,6.56-2.36,10.32-7.15,11.86-13.82,.53-2.3,.87-4.65,1.6-6.88,.53-1.6,1.73-1.82,2.73-.25,3.07,4.84,4.58,10.24,5.57,15.8,.54,3.04,.72,6.15,1.41,9.15,.34,1.47,1.49,2.75,2.28,4.12,1.18-.78,2.53-1.39,3.5-2.37,1.4-1.41,2.73-2.97,3.74-4.68,3.36-5.66,8.73-9.15,13.79-12.96,.46-.34,1.35-.23,2.01-.11,.17,.03,.43,1.06,.24,1.33-6.09,8.41-3.82,16.88,.11,25.83-2.05,0-3.79,.13-5.5-.02-9.6-.86-21.46,6.97-23.91,18.5-.15,.71-.53,1.39-.56,2.1-.08,1.84-1.05,2.32-2.78,2.51-8.49,.94-16.97,2.07-25.46,3.05-8.13,.94-16.31,1.53-24.39,2.77-2.7,.41-3.41-.43-4.28-2.53-4.32-10.47-12.15-16.34-23.42-17.94-14.26-2.03-29.14,7.87-31.64,23.48-1.84,11.54,1.8,21.17,11.35,28.14,2.54,1.85,2.9,3.37,1.82,6.25-3.97,10.51-7.7,21.12-11.34,31.75-.94,2.74-2.1,3.15-4.99,2.67-23.45-3.82-39.47,10.97-44.28,26.75-7.16,23.49,9.37,47.56,32.9,49.71,9.23,.84,17.72-.92,25.38-6.06,2.28-1.53,3.62-1.01,5.52,.54,8.9,7.23,17.87,14.38,26.96,21.38,1.96,1.51,2.42,2.56,1.24,4.82-3.05,5.84-4.76,12.07-5.42,18.69-1.25,12.62,1.81,24.07,8.48,34.71,.67,1.07,1.27,2.18,1.9,3.27-.56,.08-1.12,.16-1.69,.24Z"/>
  <path class="cls-12" d="M106.15,310.91c-.69-23.66,5.31-47.48,17.59-69.71,8.31-15.05,19.31-27.65,34.28-36.48,1.43-.84,4.19-1.97,4.69-1.43,1.89,2.02-.75,3.41-1.62,4.99-7.06,12.86-14.17,25.68-19.04,39.61-2.98,8.53-6.94,16.75-9.49,25.39-4.19,14.23-8.13,28.57-11.17,43.08-2.67,12.78-3.15,25.92-3.15,39.01,0,1.09,.13,2.21-.08,3.26-.24,1.2-.8,2.34-1.23,3.51-1.29-.5-3.02-.66-3.77-1.59-1.18-1.47-2.05-3.39-2.46-5.25-3.11-14.04-4.77-28.25-4.55-44.4Z"/>
  <path class="cls-1" d="M126.9,403.87c.29-.57,.63-2.07,1.22-2.17,.82-.15,2.1,.52,2.71,1.23,2.11,2.48,4.17,5.02,5.95,7.73,4.75,7.26,9.35,14.61,13.98,21.94,1.63,2.58,2.3,6.9,.95,7.6-2.92,1.52-4.77-.95-6.41-2.63-8.35-8.56-14.22-18.66-17.87-30.03-.33-1.02-.32-2.14-.53-3.67Z"/>
  <path class="cls-7" d="M425.76,502.07c.41,.41,.82,.83,1.24,1.24-.88,.27-1.77,.55-2.65,.82,.47-.69,.94-1.37,1.41-2.06Z"/>
  <path class="cls-6" d="M343.53,496.87c.56-.08,1.12-.16,1.69-.24,.17,.24,.33,.48,.5,.72-.73-.16-1.46-.32-2.18-.48Z"/>
  <path class="cls-1" d="M1337.12,617.22c0,2.35,.03,4.7,0,7.06-.06,3.79-1.78,5.81-5.61,6.67-3.38,.76-6.48-.35-7.79-3.41-2.62-6.09-2.52-12.36,.27-18.36,1.38-2.97,3.95-4.55,7.48-4.36,4.57,.25,5.6,1.22,5.65,5.9,.03,2.17,0,4.34,0,6.51Z"/>
  <path class="cls-1" d="M1089.85,617.37c0,2.35,.04,4.7,0,7.06-.07,3.61-1.58,5.44-5.23,6.43-3.33,.91-6.6-.05-7.96-3-2.98-6.42-2.84-12.99,.43-19.28,1.56-3,4.41-4.1,7.81-3.75,3.98,.41,4.88,1.35,4.96,5.48,.04,2.35,0,4.7,0,7.06Z"/>
  <path class="cls-1" d="M1607.38,617.58c0,2.17,.03,4.34,0,6.51-.06,4.01-1.96,6.21-5.97,6.92-3.54,.63-6.68-.87-7.87-4.27-1.98-5.64-1.95-11.42,.34-16.95,1.21-2.93,3.52-4.95,7.11-4.99,4.84-.05,6.35,1.33,6.39,6.26,.02,2.17,0,4.34,0,6.51Z"/>
  <path class="cls-13" d="M1399.55,623.34c.04,6.24-2.24,8.73-8.03,8.82-3.22,.05-5.28-1.14-6.05-3.48-1-3.07-.13-7.02,2.52-8.13,3.1-1.3,6.53-1.83,9.86-2.5,.45-.09,1.49,.89,1.62,1.52,.26,1.21,.08,2.51,.08,3.78Z"/>
  <path class="cls-13" d="M826.25,623.67c0,5.78-2.34,8.3-7.85,8.48-3.53,.11-5.6-1.13-6.31-3.81-.97-3.65,.13-6.9,3.34-8.24,2.45-1.03,5.19-1.41,7.8-2.03,2.47-.59,3.28,.58,3.04,2.9-.09,.89-.02,1.81-.01,2.71Z"/>
  <path class="cls-13" d="M1005.69,623.42c0,6.25-2.27,8.69-8.15,8.73-3.23,.02-5.23-1.17-5.98-3.57-.98-3.15,0-6.72,2.59-8.14,1.71-.94,3.67-1.5,5.59-1.93,5.79-1.3,5.94-1.13,5.94,4.92Z"/>
  <path class="cls-13" d="M1859.13,623.27c.01,6.21-2.29,8.77-7.99,8.89-3.27,.07-5.31-1.07-6.11-3.41-1.02-3-.16-7.05,2.45-8.16,3.09-1.31,6.52-1.88,9.86-2.52,.45-.09,1.47,1.17,1.71,1.97,.3,.99,.07,2.15,.08,3.23Z"/>
  <path class="cls-3" d="M700.89,618.14c.59-3.01,.88-6.11,1.85-8.98,.92-2.74,3.14-4.36,6.25-4.33,3.09,.04,5.22,1.65,6.3,4.36,2.28,5.79,2.27,11.72,.02,17.5-1.04,2.68-3.17,4.36-6.3,4.36-3.14,0-5.27-1.69-6.24-4.39-.96-2.68-1.26-5.59-1.88-8.54Z"/>
  <path class="cls-3" d="M908.81,618.22c.55-2.97,.79-5.88,1.66-8.59,1.08-3.35,3.46-4.85,6.47-4.78,3.34,.07,5.43,1.96,6.48,4.91,1.96,5.48,1.91,11.05-.02,16.51-1.11,3.16-3.62,4.79-6.56,4.79-3.13,0-5.25-1.73-6.2-4.43-.95-2.68-1.24-5.59-1.82-8.41Z"/>
  <path class="cls-13" d="M1641.76,614.67c-1.28,0-2.55,.02-3.83,0-3.87-.07-4.12-.41-2.99-3.94,1.29-4.03,4.9-6.46,8.7-5.86,3.32,.53,5.98,3.94,6.05,8.05,0,.56-.85,1.59-1.38,1.63-2.17,.19-4.37,.08-6.55,.08v.04Z"/>
  <path class="cls-13" d="M1495.29,614.67c.37-1.86,.46-3.34,.96-4.65,1.41-3.69,5.13-5.81,8.66-5.12,3.23,.63,6.08,4.51,5.86,8.25-.03,.54-1.06,1.44-1.64,1.46-4.53,.12-9.06,.07-13.84,.07Z"/>
  <path class="cls-13" d="M561.79,614.67c.56-2.1,.79-3.75,1.44-5.21,1.65-3.66,5.54-5.5,8.99-4.45,2.88,.88,5.58,4.93,5.25,8.22-.05,.53-1.12,1.36-1.74,1.37-4.36,.12-8.73,.06-13.94,.06Z"/>
  <path class="cls-13" d="M1116.53,614.67c.57-2.11,.79-3.76,1.45-5.22,1.66-3.66,5.55-5.49,8.99-4.44,2.88,.88,5.58,4.95,5.23,8.22-.06,.53-1.13,1.35-1.75,1.37-4.36,.12-8.72,.06-13.93,.06Z"/>
</svg>
