<?xml version="1.0" standalone="no"?>
<!DOCTYPE svg PUBLIC "-//W3C//DTD SVG 20010904//EN"
 "http://www.w3.org/TR/2001/REC-SVG-20010904/DTD/svg10.dtd">
<svg version="1.0" xmlns="http://www.w3.org/2000/svg"
 width="794.000000pt" height="794.000000pt" viewBox="0 0 794.000000 794.000000"
 preserveAspectRatio="xMidYMid meet">
<metadata>
Created by potrace 1.11, written by Peter Selinger 2001-2013
</metadata>
<g transform="translate(0.000000,794.000000) scale(0.100000,-0.100000)"
fill="#000000" stroke="none">
<path d="M3670 7149 c-414 -39 -876 -181 -1235 -381 -946 -527 -1555 -1465
-1646 -2536 -14 -176 -7 -520 16 -682 168 -1211 981 -2203 2130 -2600 541
-187 1167 -221 1732 -94 1064 238 1935 1007 2308 2039 269 743 244 1592 -67
2325 -417 981 -1320 1704 -2363 1890 -259 47 -617 62 -875 39z m655 -75 c697
-75 1364 -398 1863 -903 249 -251 427 -502 587 -826 165 -334 268 -697 305
-1065 14 -138 13 -487 0 -620 -84 -807 -460 -1526 -1075 -2059 -473 -409
-1057 -664 -1688 -736 -164 -19 -492 -21 -657 -5 -1479 146 -2654 1323 -2800
2805 -15 144 -14 470 0 615 95 953 629 1815 1443 2333 592 376 1302 538 2022
461z"/>
<path d="M3775 7074 c-545 -37 -1081 -219 -1531 -520 -331 -222 -635 -526
-857 -858 -812 -1213 -669 -2830 342 -3879 501 -519 1139 -838 1866 -933 182
-24 572 -24 750 0 509 69 944 231 1357 507 173 116 306 226 463 384 497 497
794 1105 891 1820 24 178 24 568 0 750 -49 375 -151 710 -317 1035 -468 921
-1361 1547 -2389 1675 -124 15 -461 26 -575 19z m-670 -1077 c444 -336 636
-483 787 -604 64 -51 119 -93 122 -93 4 0 301 228 662 506 361 278 662 508
669 510 67 26 -69 -86 -641 -526 l-666 -513 91 -87 c49 -48 93 -99 96 -113 8
-32 -14 -75 -61 -116 -20 -18 -118 -72 -218 -121 -190 -92 -249 -135 -261
-189 -16 -72 49 -125 271 -221 77 -34 162 -78 190 -98 93 -70 106 -147 37
-223 -43 -47 -77 -66 -229 -125 -203 -78 -256 -115 -270 -188 -14 -76 43 -137
183 -196 236 -100 268 -116 303 -149 49 -47 68 -106 51 -161 -26 -87 -105
-141 -324 -220 -124 -45 -190 -85 -209 -126 -11 -23 -7 -29 38 -75 105 -108
403 -333 1049 -794 585 -416 598 -426 587 -437 -7 -7 -125 71 -359 238 -563
401 -745 533 -950 686 -64 48 -96 67 -106 61 -8 -4 -315 -240 -682 -523 -367
-283 -671 -515 -676 -515 -5 0 -10 5 -11 10 -1 6 297 241 662 523 366 282 671
518 678 525 10 11 -2 25 -66 75 -117 92 -202 178 -202 205 0 23 23 63 50 85
30 24 93 54 222 102 206 78 268 129 268 220 0 82 -55 131 -225 198 -213 84
-285 132 -306 202 -36 119 38 190 296 285 178 66 235 112 235 190 0 80 -20 94
-361 252 -184 86 -226 178 -125 277 41 39 96 70 308 170 115 54 178 109 178
153 0 24 -16 44 -82 109 -141 136 -292 256 -938 744 -508 384 -566 430 -549
441 8 5 33 -8 68 -37 31 -24 218 -167 416 -317z m2205 -1217 l0 -50 -215 0
-215 0 0 -350 0 -350 200 0 200 0 0 -50 0 -50 -200 0 -200 0 0 -360 0 -360
230 0 230 0 0 -50 0 -50 -265 0 -265 0 0 860 0 860 250 0 250 0 0 -50z m1020
0 l0 -50 -217 -2 -218 -3 -3 -352 -2 -353 202 -2 203 -3 0 -50 0 -50 -202 -3
-203 -2 0 -400 0 -400 -30 0 -30 0 0 860 0 860 250 0 250 0 0 -50z m-4360
-810 l206 -835 -34 -3 c-19 -2 -36 -1 -40 2 -3 3 -31 110 -62 238 -31 128 -60
245 -63 261 l-7 27 -244 0 -243 0 -57 -232 c-31 -128 -59 -248 -62 -265 -6
-30 -9 -33 -45 -33 -22 0 -39 2 -39 5 0 7 409 1647 415 1663 3 8 17 12 37 10
l32 -3 206 -835z m1250 790 l0 -50 -225 0 -225 0 0 -340 0 -340 205 0 205 0 0
-50 0 -50 -205 0 -205 0 0 -350 0 -350 235 0 235 0 0 -50 0 -50 -270 0 -270 0
0 840 0 840 260 0 260 0 0 -50z"/>
<path d="M1716 4633 c-4 -21 -52 -224 -107 -452 -54 -228 -99 -418 -99 -422 0
-5 97 -9 215 -9 180 0 215 2 215 14 0 8 -45 202 -100 431 -55 228 -100 423
-100 433 0 9 -4 23 -9 30 -6 10 -11 2 -15 -25z"/>
</g>
</svg>
