<?xml version="1.0" standalone="no"?>
<!DOCTYPE svg PUBLIC "-//W3C//DTD SVG 20010904//EN"
 "http://www.w3.org/TR/2001/REC-SVG-20010904/DTD/svg10.dtd">
<svg version="1.0" xmlns="http://www.w3.org/2000/svg"
 width="1980.000000pt" height="1980.000000pt" viewBox="0 0 1980.000000 1980.000000"
 preserveAspectRatio="xMidYMid meet">
<metadata>
Created by potrace 1.11, written by Peter Selinger 2001-2013
</metadata>
<g transform="translate(0.000000,1980.000000) scale(0.100000,-0.100000)"
fill="#000000" stroke="none">
<path d="M9460 19793 c-578 -31 -1005 -84 -1525 -188 -1579 -317 -3090 -1036
-4335 -2064 -463 -382 -956 -875 -1341 -1341 -1263 -1528 -2047 -3440 -2223
-5420 -50 -555 -50 -1203 -1 -1755 147 -1653 712 -3250 1637 -4634 1108 -1656
2700 -2944 4557 -3686 1007 -403 2050 -631 3171 -695 228 -13 775 -13 1010 0
1240 68 2401 348 3535 853 1191 530 2315 1332 3195 2282 794 856 1424 1825
1873 2880 403 947 665 1997 751 3010 49 571 49 1177 0 1735 -235 2679 -1560
5157 -3660 6847 -719 578 -1545 1069 -2394 1421 -1062 441 -2144 688 -3300
752 -156 9 -809 11 -950 3z m3175 -515 c692 -197 1449 -515 2070 -870 281
-161 405 -241 405 -260 0 -11 8 -18 20 -18 15 0 20 -7 20 -25 0 -20 5 -25 24
-25 20 0 24 -6 30 -40 5 -31 11 -40 26 -40 11 0 20 -7 20 -15 0 -8 -7 -15 -15
-15 -8 0 -15 -5 -15 -10 0 -6 7 -13 15 -16 8 -4 15 -15 15 -25 0 -15 -22 -4
-112 55 -768 498 -1697 921 -2583 1176 l-130 38 -3 75 -3 76 38 -11 c21 -5
101 -28 178 -50z m3760 -2078 c3 -5 1 -10 -4 -10 -6 0 -11 5 -11 10 0 6 2 10
4 10 3 0 8 -4 11 -10z m138 -130 c84 -79 96 -95 99 -128 3 -36 4 -37 45 -40
39 -3 50 -12 200 -165 289 -297 703 -775 703 -813 0 -7 3 -14 8 -16 4 -1 15
-29 25 -60 10 -32 22 -58 27 -58 11 0 33 -67 25 -79 -8 -13 15 -101 26 -101 5
0 9 -6 9 -14 0 -8 4 -16 9 -18 4 -1 11 -21 15 -42 7 -37 3 -34 -69 64 -60 80
-74 105 -63 112 10 8 9 9 -3 5 -25 -8 -169 182 -169 223 0 25 -4 30 -24 30
-31 0 -44 17 -59 79 -9 39 -16 51 -31 51 -14 0 -17 -5 -13 -22 6 -20 5 -20
-11 -4 -12 12 -14 19 -6 24 7 4 15 37 19 75 l7 67 -27 0 -27 0 6 -67 7 -68
-48 55 c-26 30 -92 103 -145 163 -54 60 -98 116 -98 123 0 8 -9 23 -20 34 -11
11 -20 31 -20 45 0 15 -6 25 -15 25 -10 0 -17 14 -21 40 -6 34 -10 40 -30 40
-17 0 -25 7 -29 25 -3 14 -7 35 -10 48 -2 13 -15 35 -29 50 -13 14 -26 31 -28
37 -2 7 -33 14 -71 17 -56 5 -67 9 -67 24 0 28 -22 69 -37 69 -8 0 -13 12 -13
30 0 17 -4 30 -10 30 -5 0 -10 9 -10 20 0 13 -7 20 -19 20 -13 0 -21 9 -26 30
-4 17 -13 30 -21 30 -8 0 -14 7 -14 15 0 8 -5 15 -10 15 -6 0 -22 11 -35 25
-14 13 -25 29 -25 35 0 25 33 4 123 -80z m-9937 -355 c257 -208 501 -397 1254
-970 1405 -1070 2047 -1572 2429 -1899 30 -25 58 -46 62 -46 4 0 184 138 401
307 740 577 1713 1337 2098 1637 212 165 600 468 864 674 263 205 483 375 490
377 11 5 76 -49 76 -62 -1 -5 -33 -33 -73 -64 -135 -105 -1211 -944 -1742
-1359 -291 -228 -755 -589 -1030 -804 -857 -668 -996 -778 -993 -785 2 -4 46
-45 98 -91 144 -127 350 -338 395 -405 37 -56 40 -65 40 -130 0 -95 -35 -167
-124 -255 -117 -115 -270 -203 -666 -385 -391 -180 -555 -275 -665 -385 -78
-78 -110 -145 -110 -229 1 -86 24 -137 98 -211 106 -106 244 -182 652 -360
129 -56 285 -127 345 -157 232 -116 379 -237 437 -359 31 -64 33 -77 33 -169
-1 -92 -3 -105 -33 -167 -84 -174 -265 -297 -647 -442 -472 -179 -543 -211
-667 -292 -92 -61 -171 -150 -198 -221 -18 -48 -21 -73 -18 -148 5 -109 33
-171 113 -251 108 -108 247 -182 650 -344 388 -156 521 -226 644 -336 199
-179 216 -466 39 -681 -131 -158 -307 -252 -853 -454 -427 -157 -577 -257
-592 -394 -5 -41 -2 -49 37 -100 198 -256 1274 -1085 3245 -2500 198 -142 439
-315 535 -385 96 -70 315 -228 485 -350 171 -123 370 -268 444 -323 l133 -99
-33 -34 c-18 -19 -37 -34 -41 -34 -4 0 -68 44 -140 98 -181 134 -466 341 -948
687 -1504 1082 -2205 1595 -2701 1976 -119 91 -222 169 -228 173 -7 4 -104
-65 -234 -166 -230 -180 -3704 -2894 -3723 -2909 -6 -5 -25 6 -47 29 l-37 38
1970 1539 c1084 846 1969 1542 1968 1546 -2 3 -88 75 -192 159 -358 291 -567
491 -603 578 -18 44 -11 98 21 168 45 97 136 174 301 256 102 51 162 75 470
189 367 135 524 219 641 341 70 72 98 121 120 210 33 129 -3 256 -100 354
-111 110 -237 177 -656 346 -409 165 -536 234 -661 359 -200 199 -196 477 9
675 107 103 281 195 588 309 411 154 500 194 621 277 146 101 207 197 207 328
1 91 -27 152 -103 228 -106 106 -257 190 -651 362 -426 186 -564 263 -686 385
-99 98 -129 162 -129 275 0 77 3 92 33 153 85 171 272 305 715 507 263 121
443 211 542 270 153 93 253 197 275 288 10 44 9 54 -8 88 -36 70 -201 240
-422 437 -365 325 -1042 863 -2140 1702 -1397 1068 -1623 1242 -1897 1468
l-112 92 36 37 36 37 27 -22 c15 -12 117 -94 226 -182z m-2474 -6665 c328
-1015 619 -1914 646 -1998 l50 -152 -466 2 -466 3 -102 350 c-57 193 -108 367
-114 388 l-11 37 -634 0 -633 0 -16 -52 c-9 -29 -59 -205 -113 -390 l-97 -338
-463 0 c-255 0 -463 3 -463 6 0 8 1281 3977 1287 3987 2 4 228 6 501 5 l497
-3 597 -1845z m3778 1495 l0 -355 -930 0 -930 0 0 -435 0 -435 785 0 785 0 0
-355 0 -355 -785 0 -785 0 0 -500 0 -500 925 0 925 0 0 -355 0 -355 -1390 0
-1390 0 0 2000 0 2000 1395 0 1395 0 0 -355z m7430 0 l0 -355 -930 0 -930 0 2
-432 3 -433 788 -3 787 -2 0 -355 0 -355 -790 0 -790 0 0 -500 0 -500 930 0
930 0 0 -355 0 -355 -1390 0 -1390 0 -2 1828 c-2 1005 -2 1905 0 2000 l3 172
1389 0 1390 0 0 -355z m3240 0 l0 -355 -945 0 -945 0 0 -485 0 -485 800 0 800
0 0 -355 0 -355 -800 0 -800 0 0 -805 0 -805 -465 0 -465 0 0 2000 0 2000
1410 0 1410 0 0 -355z m-15375 -8545 c569 -555 1200 -1031 1928 -1455 78 -45
97 -60 91 -73 -3 -10 -11 -39 -16 -67 -5 -27 -11 -52 -13 -54 -11 -10 -431
240 -678 403 -544 359 -1002 733 -1486 1213 l-254 251 6 44 c4 37 3 40 -6 18
-15 -35 -15 -34 -32 -20 -19 16 -19 40 0 40 8 0 15 7 15 15 0 8 5 15 10 15 6
0 10 9 10 20 0 11 7 20 15 20 8 0 15 7 15 15 0 8 60 -47 133 -122 72 -75 191
-194 262 -263z m2063 -1617 l-2 -68 -3 63 c-4 61 -18 83 -26 40 -4 -20 -4 -19
-6 5 -1 21 4 27 19 27 18 0 20 -6 18 -67z m66 40 c9 -21 -4 -103 -15 -103 -5
0 -9 27 -9 60 0 58 11 78 24 43z m-110 -60 c-10 -40 -14 -41 -14 -5 0 18 5 32
10 32 6 0 8 -11 4 -27z m8496 -338 c0 -24 5 -35 15 -35 10 0 15 -11 15 -35 0
-24 -5 -35 -15 -35 -9 0 -15 9 -15 25 0 14 -4 25 -10 25 -5 0 -10 -17 -10 -38
0 -40 2 -38 -131 -87 -13 -5 -17 5 -23 56 -3 35 -11 66 -17 69 -5 4 23 21 63
38 65 27 74 28 80 14 5 -14 7 -13 7 5 1 19 12 30 34 32 4 1 7 -15 7 -34z m47
-2 c-3 -10 -5 -4 -5 12 0 17 2 24 5 18 2 -7 2 -21 0 -30z m-323 -105 c3 -13 8
-44 11 -70 6 -46 5 -48 -27 -61 -18 -8 -34 -10 -36 -5 -2 4 -9 8 -16 8 -11 0
-43 106 -34 115 7 7 74 33 85 34 7 1 15 -9 17 -21z m-5761 -398 c-3 -11 -9
-20 -14 -20 -5 0 -9 -16 -9 -35 0 -24 -5 -35 -15 -35 -8 0 -15 -7 -15 -15 0
-8 -5 -15 -10 -15 -7 0 -7 6 0 19 5 11 10 40 10 65 0 38 3 45 23 49 12 2 25 5
29 6 3 0 4 -8 1 -19z m257 -39 c453 -93 955 -160 1387 -187 108 -6 112 -7 118
-31 3 -14 4 -28 0 -31 -3 -3 -5 2 -5 11 0 10 -7 17 -15 17 -8 0 -15 -9 -15
-20 0 -11 -10 -36 -22 -55 -22 -33 -26 -35 -78 -35 -162 0 -698 61 -1018 115
-190 33 -492 94 -573 115 -32 9 -35 13 -31 40 2 16 8 30 12 30 4 0 11 11 14
25 4 16 13 25 26 25 11 0 20 5 20 11 0 6 8 8 18 5 9 -3 82 -19 162 -35z"/>
<path d="M3010 10824 c0 -3 -90 -316 -200 -695 -110 -379 -203 -701 -206 -714
l-6 -25 427 0 427 0 -5 23 c-4 12 -98 336 -209 719 -129 443 -208 698 -215
698 -7 0 -13 -3 -13 -6z"/>
</g>
</svg>
