<?xml version="1.0" encoding="UTF-8"?>
<svg id="Capa_2" data-name="Capa 2" xmlns="http://www.w3.org/2000/svg" viewBox="0 0 545.86 527.32">
  <defs>
    <style>
      .cls-1 {
        fill: #1c1c1c;
        stroke-width: 0px;
      }
    </style>
  </defs>
  <g id="Capa_2-2" data-name="Capa 2">
    <g id="Capa_1-2" data-name="Capa 1-2">
      <g>
        <path class="cls-1" d="m398.05,123.67c.21,18.4-3.55,35.91-10.47,51.7-.37.82-1.17,1.35-2.07,1.35h-61V63.6h-56.58c-31.21,0-56.53,25.29-56.54,56.5v56.61h113.13v60.99c0,.9-.51,1.71-1.33,2.07-15.8,6.93-33.3,10.7-51.7,10.49-68.52-.79-124.09-57.4-123.67-125.92C148.22,55.86,203.65.42,272.14,0c68.52-.42,125.13,55.15,125.91,123.67h0Z"/>
        <g>
          <path class="cls-1" d="m161.13,413.75v-80.6c0-1.69.85-2.54,2.54-2.54h21.42c1.41,0,2.25.85,2.25,2.54v83.98c0,23.67,12.68,36.64,34.66,36.64s34.94-12.68,34.94-36.64v-83.98c0-1.69,1.13-2.54,2.54-2.54h21.42c1.41,0,2.25.85,2.25,2.54v80.6c0,40.58-20.57,61.43-61.15,61.43s-60.87-20.85-60.87-61.43h0Z"/>
          <path class="cls-1" d="m305.13,471.24v-105.96c0-22.54,12.12-34.66,34.66-34.66h42.55c1.41,0,2.54.85,2.54,2.54v17.47c0,1.41-1.13,2.25-2.54,2.25h-51.01v118.36c0,1.69-.85,2.54-2.25,2.54h-21.42c-1.69,0-2.54-.85-2.54-2.54h.01Z"/>
          <path class="cls-1" d="m457.03,471.8l-54.95-138.37c-.85-1.69,0-2.82,1.69-2.82h22.26c1.41,0,2.54.56,3.1,1.97l44.53,119.49h1.13l44.81-119.49c.28-1.41,1.69-1.97,2.82-1.97h21.42c1.69,0,2.54,1.13,1.69,2.82l-54.95,138.37c-.56,1.41-1.41,1.97-2.82,1.97h-27.9c-1.41,0-2.25-.56-2.82-1.97h-.01Z"/>
          <path class="cls-1" d="m99.68,333.84c-9.23-4.71-20.05-7.29-32.25-7.47-41.63.6-67.43,29.07-67.43,75.41s25.8,75.62,67.43,76.23c11.94-.18,22.57-2.69,31.67-7.26,4.59-1.83,8.84-4.2,12.71-7.09v61.12c0,1.69.85,2.54,2.25,2.54h21.42c1.69,0,2.54-.85,2.54-2.54v-122.87c0-33.77-14.46-58.32-38.34-68.07h0Zm-30.37,119.9c-27.52-.42-44.57-20.05-44.57-51.83s17.05-50.86,44.57-51.27c27.52.41,44.57,19.77,44.57,51.27s-17.05,51.42-44.57,51.83Z"/>
        </g>
      </g>
    </g>
  </g>
</svg>