<?xml version="1.0" standalone="no"?>
<!DOCTYPE svg PUBLIC "-//W3C//DTD SVG 20010904//EN"
 "http://www.w3.org/TR/2001/REC-SVG-20010904/DTD/svg10.dtd">
<svg version="1.0" xmlns="http://www.w3.org/2000/svg"
 width="2502.000000pt" height="442.000000pt" viewBox="0 0 2502.000000 442.000000"
 preserveAspectRatio="xMidYMid meet">
<metadata>
Created by potrace 1.15, written by Peter Selinger 2001-2017
</metadata>
<g transform="translate(0.000000,442.000000) scale(0.100000,-0.100000)"
fill="#000000" stroke="none">
<path d="M0 2210 l0 -2210 12510 0 12510 0 0 2210 0 2210 -12510 0 -12510 0 0
-2210z m2920 -30 l0 -1990 -26 -6 c-15 -4 -86 -4 -158 0 -518 26 -953 212
-1315 561 -177 171 -296 335 -407 558 -484 978 -80 2168 903 2661 278 139 544
203 851 205 l152 1 0 -1990z m583 1820 c20 -38 38 -56 72 -72 25 -12 45 -25
45 -29 0 -4 -22 -20 -49 -34 -35 -20 -54 -38 -66 -66 -29 -63 -39 -65 -65 -10
-19 41 -33 55 -78 79 l-55 30 51 26 c39 20 57 37 79 76 15 27 30 50 33 50 3 0
17 -23 33 -50z m638 -382 c6 -14 23 -31 37 -37 15 -7 38 -20 51 -30 l25 -19
-52 -26 c-42 -21 -57 -36 -78 -78 l-26 -52 -23 40 c-28 49 -50 71 -99 99 l-39
22 51 29 c38 21 58 42 78 78 l27 49 18 -24 c10 -13 23 -36 30 -51z m-443 -292
c17 -31 35 -49 63 -61 21 -10 39 -22 39 -26 0 -5 -18 -18 -39 -29 -24 -12 -48
-35 -62 -60 -13 -22 -26 -40 -29 -40 -3 0 -16 18 -29 40 -12 22 -39 49 -61 61
-22 13 -40 26 -40 29 0 4 18 15 39 25 28 12 46 30 63 61 13 24 25 44 28 44 3
0 15 -20 28 -44z m813 -262 c17 -32 37 -53 72 -71 26 -14 47 -29 47 -33 0 -4
-21 -18 -46 -31 -32 -17 -53 -37 -71 -71 -14 -27 -30 -48 -34 -48 -5 0 -20 21
-33 48 -18 35 -36 53 -70 71 -25 13 -46 27 -46 31 0 4 21 19 48 33 34 18 54
39 71 71 13 25 27 46 31 46 4 0 18 -21 31 -46z m-871 -431 c289 -190 537 -358
553 -374 21 -23 27 -39 27 -74 0 -24 -5 -55 -11 -69 -8 -17 -190 -142 -559
-385 -301 -199 -551 -361 -554 -361 -3 0 -6 57 -6 128 l0 127 347 220 346 220
-346 3 -347 2 0 110 0 110 344 2 344 3 -344 219 -344 218 0 130 c0 100 3 128
13 122 6 -4 248 -162 537 -351z m12550 -308 l0 -475 -75 0 -75 0 0 475 0 475
75 0 75 0 0 -475z m-4127 454 c63 -29 59 -126 -6 -149 -38 -13 -92 3 -107 30
-41 77 33 155 113 119z m-5443 -94 l0 -65 -180 0 -180 0 0 -120 0 -120 170 0
170 0 0 -65 0 -65 -170 0 -170 0 0 -135 0 -135 180 0 180 0 0 -65 0 -65 -255
0 -255 0 0 450 0 450 255 0 255 0 0 -65z m3280 -120 l0 -185 205 0 205 0 0
185 0 185 75 0 75 0 0 -450 0 -450 -75 0 -75 0 0 200 0 200 -205 0 -205 0 0
-200 0 -200 -75 0 -75 0 0 443 c0 244 3 447 7 450 3 4 37 7 75 7 l68 0 0 -185z
m5410 120 l0 -65 -130 0 -130 0 0 -385 0 -385 -75 0 -75 0 -2 383 -3 382 -132
3 -133 3 0 58 c0 32 3 61 7 64 3 4 156 7 340 7 l333 0 0 -65z m-6230 -80 l0
-75 100 0 100 0 0 -55 0 -54 -97 -3 -98 -3 0 -203 0 -204 30 -25 c27 -24 34
-25 98 -20 l68 6 -3 -57 c-4 -66 -9 -69 -128 -71 -92 -1 -154 25 -185 79 -18
32 -20 58 -25 265 l-5 230 -48 3 c-48 3 -48 4 -45 35 2 25 11 36 43 54 58 31
61 35 85 107 l22 66 44 0 44 0 0 -75z m-1274 -80 c64 -19 118 -65 151 -129 22
-42 28 -68 31 -148 l4 -98 -226 0 -226 0 6 -27 c19 -88 49 -130 107 -152 46
-18 175 -13 237 9 30 11 58 19 63 20 4 0 7 -27 7 -59 l0 -59 -42 -17 c-63 -26
-238 -32 -310 -11 -125 36 -204 142 -215 289 -14 187 65 341 197 382 60 18
155 18 216 0z m833 -15 c27 -16 53 -42 69 -70 l27 -45 3 -272 3 -273 -75 0
-76 0 0 235 c0 269 -5 296 -64 320 -48 20 -92 18 -144 -5 -34 -15 -47 -29 -65
-67 -20 -44 -22 -67 -25 -265 l-4 -218 -74 0 -74 0 0 340 0 340 60 0 60 0 11
-45 c11 -43 13 -44 25 -26 16 23 73 59 112 72 15 4 63 7 107 6 63 -3 90 -8
124 -27z m2464 -4 c62 -30 105 -77 140 -153 18 -40 22 -66 22 -158 0 -144 -18
-200 -90 -272 -67 -66 -131 -87 -249 -81 -130 7 -205 55 -263 168 -26 52 -28
63 -28 180 0 117 2 129 28 182 34 69 103 133 166 153 75 24 205 15 274 -19z
m731 -23 c-8 -85 -7 -83 -68 -83 -92 0 -143 -30 -177 -105 -16 -35 -19 -67
-19 -242 l0 -203 -75 0 -75 0 0 340 0 340 59 0 59 0 7 -60 7 -61 41 47 c53 60
104 83 185 84 l62 0 -6 -57z m1443 29 c66 -34 110 -78 140 -140 26 -53 28 -65
28 -182 0 -117 -2 -129 -28 -182 -59 -120 -157 -173 -306 -166 -136 6 -213 57
-270 178 -23 49 -26 68 -26 165 0 129 17 191 71 254 36 42 94 78 149 92 58 16
196 4 242 -19z m776 17 c21 -6 56 -26 78 -46 62 -56 69 -94 69 -385 l0 -248
-75 0 -75 0 0 238 c0 212 -2 241 -19 272 -37 71 -163 80 -227 16 -44 -44 -54
-103 -54 -331 l0 -195 -75 0 -75 0 0 340 0 340 59 0 59 0 11 -46 12 -46 20 26
c21 27 64 53 109 67 37 11 140 10 183 -2z m1683 -17 c44 -23 94 -74 119 -123
18 -34 41 -198 32 -223 -6 -14 -34 -16 -227 -16 l-220 0 0 -27 c1 -44 35 -108
71 -134 59 -42 205 -38 324 7 14 6 16 -2 13 -56 l-3 -63 -40 -15 c-65 -23
-240 -28 -310 -7 -76 22 -163 105 -188 180 -57 166 -8 378 104 452 65 43 107
54 199 50 62 -3 96 -9 126 -25z m1017 14 c122 -44 187 -153 187 -313 l0 -63
-226 0 -227 0 6 -36 c10 -58 41 -107 83 -131 52 -30 166 -31 256 -3 34 11 64
20 66 20 2 0 2 -28 0 -62 l-3 -62 -60 -19 c-47 -14 -83 -18 -170 -15 -95 3
-117 7 -161 31 -65 33 -118 94 -145 166 -29 78 -24 251 10 327 29 65 94 129
157 154 58 23 171 26 227 6z m732 -11 c28 -10 52 -19 54 -21 1 -1 -8 -27 -22
-58 l-25 -54 -64 20 c-125 39 -228 21 -228 -42 0 -37 29 -58 148 -105 163 -66
208 -116 200 -225 -5 -76 -40 -129 -105 -161 -43 -22 -61 -24 -183 -24 -104 0
-143 4 -172 17 -38 17 -38 17 -38 77 0 34 4 61 8 61 5 0 35 -9 68 -21 79 -28
208 -32 247 -6 21 13 27 26 27 52 0 49 -33 75 -162 126 -129 50 -187 113 -188
202 0 80 44 137 132 169 66 23 226 20 303 -7z m648 4 c43 -14 44 -26 13 -100
l-15 -36 -73 19 c-120 31 -189 6 -228 -84 -19 -44 -22 -65 -18 -148 4 -116 22
-154 88 -188 37 -19 55 -22 102 -18 31 3 79 14 107 25 l51 19 0 -64 c0 -61 -1
-64 -32 -81 -41 -21 -205 -30 -264 -14 -94 25 -171 106 -196 205 -17 70 -15
209 5 276 29 99 93 164 190 196 50 17 212 12 270 -7z m554 6 c63 -19 136 -82
168 -146 35 -68 49 -172 36 -260 -20 -123 -65 -196 -152 -244 -69 -37 -197
-47 -277 -21 -64 22 -136 85 -167 147 -77 151 -44 383 67 472 77 62 216 84
325 52z m819 -9 c56 -26 91 -65 126 -142 20 -43 23 -65 23 -184 0 -119 -3
-141 -23 -184 -53 -115 -126 -166 -237 -166 -78 0 -120 13 -167 50 l-38 31 0
-186 0 -185 -75 0 -75 0 0 490 0 490 64 0 65 0 7 -46 7 -46 37 37 c70 69 190
86 286 41z m690 9 c64 -19 118 -65 151 -129 22 -42 28 -68 31 -148 l4 -98
-226 0 -226 0 6 -27 c19 -88 49 -130 107 -152 46 -18 175 -13 237 9 30 11 58
19 63 20 4 0 7 -27 7 -59 l0 -59 -42 -17 c-63 -26 -238 -32 -310 -11 -82 24
-140 73 -180 153 -32 65 -33 73 -33 183 0 110 1 118 33 182 38 78 96 132 162
153 60 18 155 18 216 0z m-13278 -233 c45 -130 85 -252 88 -270 6 -31 10 -25
39 70 17 56 58 178 91 271 l59 167 78 0 c60 0 78 -3 75 -13 -2 -7 -59 -160
-128 -340 l-125 -327 -80 0 -81 0 -124 328 c-68 180 -125 333 -128 340 -3 9
16 12 74 12 l79 0 83 -238z m5182 -102 l0 -340 -75 0 -75 0 0 340 0 340 75 0
75 0 0 -340z m630 290 c0 -48 -5 -56 -165 -279 -91 -126 -165 -232 -165 -235
0 -3 77 -6 170 -6 l170 0 0 -55 0 -55 -260 0 -260 0 0 48 c0 45 7 57 165 277
l166 230 -156 3 -155 3 0 59 0 60 245 0 245 0 0 -50z m-8065 -99 c22 -10 57
-36 77 -59 82 -91 77 -214 -13 -303 -89 -90 -219 -90 -309 0 -89 89 -94 213
-12 303 46 52 103 78 167 78 28 0 68 -9 90 -19z m-154 -887 c18 -34 36 -52 72
-70 26 -13 47 -28 47 -32 0 -4 -20 -18 -45 -31 -32 -17 -54 -38 -73 -73 -15
-26 -30 -48 -33 -48 -3 0 -17 21 -32 48 -18 33 -39 54 -71 72 -25 13 -46 28
-46 32 0 4 21 18 48 32 36 18 52 35 69 70 13 25 27 46 31 46 5 0 20 -21 33
-46z m-811 -294 c13 -26 34 -47 60 -60 46 -23 45 -32 -9 -59 -25 -13 -43 -33
-56 -60 -10 -23 -21 -41 -25 -41 -4 0 -15 18 -25 41 -13 27 -31 47 -56 60 -54
27 -55 36 -9 59 26 13 47 34 60 60 11 22 25 40 30 40 5 0 19 -18 30 -40z m426
-281 c22 -39 39 -56 76 -75 26 -13 48 -26 48 -29 0 -2 -22 -16 -48 -31 -34
-19 -57 -42 -76 -76 -15 -26 -29 -48 -31 -48 -3 0 -16 22 -29 48 -19 37 -36
54 -75 76 -28 15 -51 29 -51 31 0 3 22 16 50 30 39 20 55 36 75 75 14 28 27
50 30 50 2 0 16 -23 31 -51z m-627 -356 c17 -38 33 -54 74 -77 50 -28 51 -29
30 -45 -11 -9 -35 -24 -52 -33 -18 -10 -40 -36 -53 -62 -12 -26 -24 -46 -27
-46 -4 0 -18 23 -33 50 -22 38 -39 55 -79 76 l-52 26 54 32 c39 23 61 45 79
79 14 26 28 47 31 47 3 0 16 -21 28 -47z"/>
<path d="M2592 3890 c-148 -74 -297 -241 -401 -449 -36 -71 -111 -245 -111
-257 0 -2 137 -4 305 -4 l305 0 0 375 c0 211 -4 375 -9 375 -5 0 -45 -18 -89
-40z"/>
<path d="M2220 3845 c-343 -125 -644 -347 -838 -619 l-33 -46 245 0 c201 0
246 2 246 14 0 29 143 296 207 386 37 52 114 141 170 198 56 56 101 102 100
102 -1 -1 -45 -17 -97 -35z"/>
<path d="M1172 2848 c-68 -171 -104 -315 -126 -505 l-7 -53 314 0 314 0 7 112
c10 170 51 432 82 530 5 17 -11 18 -269 18 l-274 0 -41 -102z"/>
<path d="M1995 2878 c-28 -121 -55 -326 -62 -460 l-6 -128 381 0 382 0 0 330
0 330 -339 0 -339 0 -17 -72z"/>
<path d="M1040 2063 c1 -47 34 -243 54 -320 28 -110 40 -145 86 -256 l32 -77
273 0 272 0 -19 83 c-28 119 -56 316 -64 455 l-7 122 -313 0 c-173 0 -314 -3
-314 -7z"/>
<path d="M1933 1941 c7 -154 45 -417 73 -513 5 -17 30 -18 345 -18 l339 0 0
330 0 330 -382 0 -381 0 6 -129z"/>
<path d="M1365 1153 c36 -56 145 -180 221 -253 177 -168 371 -290 594 -373
151 -55 151 -55 86 2 -156 136 -325 380 -414 599 l-21 52 -242 0 -241 0 17
-27z"/>
<path d="M2085 1158 c4 -13 27 -70 51 -128 113 -270 275 -474 445 -559 45 -23
88 -41 95 -41 12 0 14 62 14 375 l0 375 -306 0 -305 0 6 -22z"/>
<path d="M7633 2409 c-44 -21 -83 -82 -83 -127 0 -22 1 -23 148 -20 l147 3 -3
30 c-6 55 -33 96 -76 116 -53 24 -82 24 -133 -2z"/>
<path d="M10895 2413 c-36 -10 -66 -36 -88 -77 -18 -35 -22 -58 -22 -146 0
-94 3 -110 25 -150 44 -78 140 -104 221 -58 69 39 103 158 80 283 -18 96 -67
146 -148 151 -26 1 -57 0 -68 -3z"/>
<path d="M13054 2401 c-51 -23 -82 -82 -90 -172 -16 -162 51 -269 168 -269 62
0 108 27 138 80 22 40 25 57 25 150 0 96 -2 109 -27 151 -44 75 -129 98 -214
60z"/>
<path d="M15535 2417 c-38 -18 -60 -43 -80 -90 -28 -69 -32 -67 135 -67 149 0
150 0 150 23 -1 35 -36 104 -62 121 -35 23 -107 29 -143 13z"/>
<path d="M16596 2420 c-51 -16 -86 -60 -101 -127 l-7 -33 153 0 152 0 -6 40
c-12 95 -99 149 -191 120z"/>
<path d="M18505 2407 c-69 -32 -95 -92 -95 -220 0 -105 21 -164 73 -201 41
-30 144 -30 184 0 56 42 68 78 68 199 0 121 -16 171 -66 207 -33 25 -124 33
-164 15z"/>
<path d="M19281 2403 c-49 -25 -69 -59 -82 -131 -23 -130 13 -260 81 -294 81
-41 166 -11 203 70 32 69 31 228 -1 289 -12 24 -34 50 -48 59 -38 25 -112 29
-153 7z"/>
<path d="M20024 2411 c-31 -14 -47 -30 -63 -63 -11 -24 -21 -54 -21 -66 0 -22
1 -23 148 -20 l147 3 -3 30 c-7 56 -33 97 -76 116 -52 23 -80 23 -132 0z"/>
</g>
</svg>
