<?xml version="1.0" standalone="no"?>
<!DOCTYPE svg PUBLIC "-//W3C//DTD SVG 20010904//EN"
 "http://www.w3.org/TR/2001/REC-SVG-20010904/DTD/svg10.dtd">
<svg version="1.0" xmlns="http://www.w3.org/2000/svg"
 width="768.000000pt" height="514.000000pt" viewBox="0 0 768.000000 514.000000"
 preserveAspectRatio="xMidYMid meet">
<metadata>
Created by potrace 1.15, written by Peter Selinger 2001-2017
</metadata>
<g transform="translate(0.000000,514.000000) scale(0.100000,-0.100000)"
fill="#000000" stroke="none">
<path d="M0 2570 l0 -2570 3840 0 3840 0 0 2570 0 2570 -3840 0 -3840 0 0
-2570z m1225 1290 c10 -32 -42 -28 -57 5 -10 23 -17 25 -73 25 -56 0 -63 -2
-73 -25 -11 -24 -14 -25 -122 -25 l-110 0 0 145 0 145 25 0 25 0 0 -120 0
-120 54 0 c49 0 55 -2 58 -22 2 -15 26 27 73 126 l69 149 62 -131 c34 -72 65
-140 69 -152z m206 270 c46 -13 66 -34 50 -54 -10 -11 -18 -11 -51 0 -50 17
-95 3 -115 -37 -46 -89 23 -177 119 -151 71 19 79 -27 7 -49 -80 -24 -155 14
-186 95 -35 92 31 197 130 205 6 1 26 -4 46 -9z m953 -20 c96 -58 83 -216 -20
-265 -44 -21 -105 -15 -143 12 -40 29 -74 104 -66 146 10 54 42 96 88 118 49
23 92 20 141 -11z m673 9 c15 -13 16 -19 4 -38 -8 -12 -14 -12 -41 -1 -26 11
-34 11 -46 -2 -21 -21 -10 -40 40 -66 24 -13 48 -33 54 -45 49 -97 -50 -175
-146 -117 -30 18 -32 23 -21 38 7 9 14 19 16 21 1 1 12 -4 25 -13 28 -20 62
-21 78 -1 17 21 5 48 -32 69 -57 33 -78 57 -78 91 0 31 26 65 60 78 20 8 70 0
87 -14z m-2358 -13 c24 -22 27 -64 7 -91 -12 -16 -10 -21 12 -40 34 -30 33
-82 -3 -112 -22 -19 -38 -23 -96 -23 l-69 0 0 146 0 146 64 -4 c45 -3 71 -10
85 -22z m891 -28 l1 -53 48 53 c39 42 54 52 80 52 l33 0 -66 -71 -65 -72 77
-73 77 -73 -37 -1 c-30 0 -46 9 -92 51 l-56 51 0 -51 c0 -48 -2 -51 -25 -51
l-25 0 0 145 0 145 25 0 c23 0 25 -3 25 -52z m350 -8 l0 -60 60 0 60 0 0 60
c0 57 1 60 25 60 l25 0 0 -145 0 -145 -25 0 c-24 0 -25 3 -25 60 l0 60 -60 0
-60 0 0 -60 0 -60 -30 0 -30 0 0 145 0 145 30 0 30 0 0 -60z m610 -60 l0 -120
55 0 c52 0 55 -1 55 -25 0 -25 -1 -25 -80 -25 l-80 0 0 145 0 145 25 0 25 0 0
-120z m310 95 c0 -24 -3 -25 -55 -25 -54 0 -55 0 -55 -29 0 -28 3 -30 43 -33
35 -2 43 -7 45 -25 3 -21 -1 -23 -42 -23 l-46 0 0 -40 0 -40 60 0 c57 0 60 -1
60 -25 0 -25 -1 -25 -90 -25 l-90 0 0 145 0 145 85 0 c84 0 85 0 85 -25z
m-2165 -378 c28 -21 10 -35 -37 -30 -51 5 -75 -10 -84 -52 -12 -64 67 -112
112 -67 17 16 17 17 -9 20 -19 2 -27 9 -27 23 0 16 7 19 45 19 49 0 52 -6 34
-59 -20 -57 -88 -77 -145 -42 -90 55 -49 201 55 201 21 0 45 -6 56 -13z m184
-12 c22 -21 18 -75 -7 -95 l-21 -17 35 -34 c19 -18 34 -37 34 -41 0 -21 -38
-4 -77 34 l-43 42 0 -43 c0 -35 -3 -42 -17 -39 -15 3 -18 17 -21 97 -1 52 0
101 3 109 7 19 92 9 114 -13z m218 5 c21 -13 36 -32 44 -58 32 -109 -105 -188
-182 -106 -19 20 -24 37 -24 76 0 43 4 53 33 79 39 35 82 38 129 9z m113 -51
c0 -89 10 -109 55 -109 l35 0 0 91 c0 81 2 90 18 87 14 -3 17 -17 20 -94 3
-104 -2 -114 -71 -121 -68 -8 -89 15 -95 110 -5 84 0 107 23 107 12 0 15 -14
15 -71z m312 2 c2 51 6 64 21 67 15 3 17 -7 17 -109 l0 -112 -67 64 -68 64 -5
-60 c-4 -47 -9 -61 -22 -63 -16 -3 -18 7 -18 109 l0 113 69 -68 70 -69 3 64z
m221 29 c60 -67 20 -161 -76 -175 -25 -4 -50 -4 -56 0 -12 7 -15 197 -3 209 4
5 30 5 57 2 39 -4 56 -12 78 -36z m169 10 c17 -20 17 -25 4 -45 -14 -21 -13
-24 4 -40 47 -42 10 -95 -70 -103 l-50 -5 0 113 0 113 47 -6 c32 -3 53 -12 65
-27z m168 5 c26 -23 25 -67 0 -90 -20 -19 -20 -19 15 -55 40 -41 43 -50 17
-50 -10 0 -36 18 -57 41 l-40 40 -5 -38 c-3 -26 -11 -39 -22 -41 -16 -3 -18 7
-18 109 l0 112 45 -6 c25 -2 55 -13 65 -22z m180 5 c0 -17 -7 -20 -40 -20 -33
0 -40 -3 -40 -19 0 -15 8 -21 32 -23 22 -2 34 -9 36 -20 3 -15 -4 -18 -32 -18
-33 0 -36 -2 -36 -30 0 -29 2 -30 46 -30 38 0 45 -3 42 -17 -3 -15 -14 -18
-63 -18 l-60 0 -3 94 c-1 52 -1 100 2 108 4 9 24 13 61 13 48 0 55 -2 55 -20z
m171 -85 c27 -58 49 -108 49 -110 0 -15 -40 -2 -45 15 -5 16 -15 20 -53 20
-36 0 -50 -5 -60 -20 -12 -19 -42 -28 -42 -12 0 9 94 212 98 212 2 0 26 -47
53 -105z m107 66 l3 -34 39 38 c21 21 45 35 55 33 14 -2 9 -13 -28 -53 l-46
-50 57 -57 c52 -54 54 -58 31 -58 -16 0 -39 14 -64 41 l-40 40 -5 -38 c-3 -26
-11 -39 -22 -41 -16 -3 -18 7 -18 108 0 101 2 111 18 108 11 -2 18 -14 20 -37z
m374 -30 c2 51 6 64 21 67 15 3 17 -7 17 -109 l0 -112 -67 64 -68 64 -5 -60
c-4 -47 -9 -61 -22 -63 -16 -3 -18 7 -18 109 l0 113 69 -68 70 -69 3 64z m223
59 c44 -17 25 -35 -32 -32 -44 3 -53 0 -67 -19 -35 -51 -6 -119 52 -119 27 0
52 15 52 32 0 4 -9 8 -20 8 -13 0 -20 7 -20 20 0 17 7 20 45 20 44 0 45 -1 39
-27 -16 -67 -58 -100 -117 -89 -53 10 -82 48 -82 108 0 43 4 53 33 79 34 31
71 37 117 19z m-1901 -322 c24 -26 27 -37 22 -67 -12 -76 -97 -107 -150 -55
-46 47 -32 124 27 149 41 18 65 11 101 -27z m1724 5 c51 -56 10 -153 -65 -153
-25 0 -43 8 -64 29 -35 36 -38 77 -8 115 40 51 95 55 137 9z m-1053 -91 c2 -2
17 22 35 52 17 31 35 56 39 56 5 0 11 -28 15 -61 9 -92 8 -109 -9 -109 -9 0
-15 9 -15 24 0 53 -11 59 -35 21 -12 -21 -25 -38 -28 -38 -4 -1 -18 16 -31 37
l-24 40 -7 -42 c-4 -28 -12 -42 -22 -42 -13 0 -14 11 -8 68 12 120 13 121 52
55 19 -32 36 -59 38 -61z m327 61 l58 -57 0 57 c0 44 3 57 15 57 12 0 15 -17
15 -91 l0 -91 -57 52 -58 51 -3 -51 c-3 -42 -6 -51 -20 -48 -14 3 -17 18 -20
91 -1 48 1 87 5 87 4 0 33 -26 65 -57z m519 47 c25 -14 26 -75 2 -89 -16 -9
-15 -13 16 -45 30 -31 32 -36 15 -36 -11 0 -33 14 -50 31 l-29 30 -5 -28 c-3
-16 -13 -29 -23 -31 -15 -3 -17 6 -17 87 l0 91 36 0 c19 0 44 -5 55 -10z m310
-45 c17 -30 34 -57 38 -59 4 -3 22 23 41 57 l34 62 7 -32 c3 -18 9 -60 13 -94
7 -55 6 -60 -11 -57 -13 2 -19 15 -23 46 l-5 43 -25 -45 c-13 -25 -28 -46 -31
-46 -4 0 -12 13 -19 30 -7 16 -18 35 -26 41 -12 9 -14 4 -14 -30 0 -35 -3 -41
-21 -41 -17 0 -20 5 -16 23 3 12 9 52 12 90 4 37 9 67 11 67 2 0 18 -25 35
-55z m-2333 -258 c3 -36 4 -37 43 -37 39 0 39 0 39 40 0 29 4 40 15 40 12 0
15 -18 15 -100 0 -82 -3 -100 -15 -100 -11 0 -15 11 -15 40 0 40 0 40 -39 40
-39 0 -40 -1 -43 -37 -2 -27 -8 -39 -20 -41 -16 -3 -18 7 -18 98 0 91 2 101
18 98 12 -2 18 -14 20 -41z m262 23 c0 -16 -7 -20 -35 -20 -28 0 -35 -4 -35
-20 0 -16 7 -20 30 -20 20 0 30 -5 30 -15 0 -10 -10 -15 -30 -15 -25 0 -30 -4
-30 -24 0 -21 5 -25 37 -28 27 -2 39 -8 41 -20 3 -16 -5 -18 -57 -18 l-61 0 0
100 0 100 55 0 c48 0 55 -2 55 -20z m200 0 c0 -16 -7 -20 -35 -20 -28 0 -35
-4 -35 -20 0 -16 7 -20 30 -20 20 0 30 -5 30 -15 0 -10 -10 -15 -30 -15 -25 0
-30 -4 -30 -24 0 -21 5 -25 37 -28 27 -2 39 -8 41 -20 3 -16 -5 -18 -57 -18
l-61 0 0 100 0 100 55 0 c48 0 55 -2 55 -20z m320 0 c0 -16 -7 -20 -35 -20
-28 0 -35 -4 -35 -20 0 -16 7 -20 30 -20 20 0 30 -5 30 -15 0 -10 -10 -15 -30
-15 -25 0 -30 -4 -30 -24 0 -21 5 -25 37 -28 27 -2 39 -8 41 -20 3 -16 -5 -18
-57 -18 l-61 0 0 100 0 100 55 0 c48 0 55 -2 55 -20z m200 -82 l0 -102 -58 57
c-32 31 -61 57 -65 57 -4 0 -7 -25 -7 -56 0 -47 -3 -55 -17 -52 -15 3 -18 17
-21 96 -1 50 0 92 4 92 3 0 34 -25 67 -55 l62 -55 3 60 c2 44 7 60 17 60 12 0
15 -20 15 -102z m280 62 l0 -40 40 0 40 0 0 40 c0 33 3 40 20 40 19 0 20 -7
20 -100 0 -93 -1 -100 -20 -100 -17 0 -20 7 -20 40 l0 40 -40 0 -40 0 0 -40
c0 -29 -4 -40 -15 -40 -12 0 -15 18 -15 100 0 82 3 100 15 100 11 0 15 -11 15
-40z m312 11 c27 -24 33 -36 33 -71 0 -35 -6 -47 -33 -71 -44 -40 -93 -40
-133 0 -62 62 -20 171 65 171 25 0 45 -9 68 -29z m163 9 c22 -19 19 -77 -5
-92 -19 -12 -18 -14 17 -50 30 -31 34 -38 18 -38 -11 0 -36 17 -57 37 l-38 37
0 -38 c0 -30 -3 -37 -17 -34 -15 3 -18 17 -21 87 -4 110 -2 115 49 108 22 -3
46 -11 54 -17z m265 12 c0 -4 -20 -40 -44 -79 l-44 -72 46 -3 c35 -2 48 -7 50
-20 3 -16 -6 -18 -77 -18 -45 0 -81 2 -81 5 0 3 20 36 45 75 25 39 45 72 45
75 0 3 -16 5 -35 5 -28 0 -35 4 -35 20 0 18 7 20 65 20 36 0 65 -4 65 -8z
m192 -21 c27 -24 33 -36 33 -71 0 -35 -6 -47 -33 -71 -44 -40 -93 -40 -133 0
-62 62 -20 171 65 171 25 0 45 -9 68 -29z m228 -73 l0 -102 -58 57 c-32 31
-61 57 -65 57 -4 0 -7 -25 -7 -56 0 -47 -3 -55 -17 -52 -15 3 -18 17 -21 96
-1 50 0 92 4 92 3 0 34 -25 67 -55 l62 -55 3 60 c2 44 7 60 17 60 12 0 15 -20
15 -102z m1216 -158 c28 0 28 -1 9 -99 -8 -42 -18 -139 -23 -216 -6 -114 -10
-140 -22 -140 -43 -1 12 -217 86 -342 71 -117 124 -156 206 -148 29 2 104 7
166 10 121 6 164 -4 141 -31 -6 -8 -18 -14 -26 -14 -23 0 -26 -28 -5 -51 21
-22 26 -22 95 6 12 5 17 2 17 -9 0 -8 16 -28 35 -43 19 -15 35 -33 35 -39 0
-16 60 -26 108 -18 22 3 47 2 57 -3 25 -15 -62 -37 -95 -25 -27 9 -110 4 -110
-7 0 -28 54 -40 91 -20 13 7 25 7 32 1 36 -29 206 -31 307 -3 41 11 85 21 98
21 l23 0 -23 -31 c-34 -48 -145 -114 -239 -144 -76 -24 -192 -72 -229 -95 -8
-6 -36 -21 -62 -35 -26 -14 -55 -36 -64 -50 -9 -14 -21 -25 -28 -25 -6 0 -33
-11 -61 -25 -27 -13 -57 -25 -65 -25 -8 0 -28 -7 -44 -15 -16 -9 -31 -13 -34
-10 -3 3 -9 33 -14 67 -6 48 -16 72 -43 107 -36 45 -44 78 -24 98 21 21 -2 33
-59 33 -79 0 -131 17 -165 53 -31 34 -107 164 -107 186 0 7 -14 33 -30 58 -17
25 -29 47 -27 50 2 2 12 -8 21 -22 9 -14 23 -25 30 -25 8 0 26 -20 40 -45 25
-42 99 -95 113 -81 3 3 -19 38 -49 78 -171 228 -259 480 -244 698 11 152 59
312 126 414 l25 40 3 -42 c3 -37 6 -42 28 -42z m-2560 -45 c28 -18 29 -24 11
-49 -11 -15 -17 -16 -35 -7 -30 16 -79 14 -86 -4 -10 -26 4 -43 60 -74 62 -36
86 -67 87 -116 2 -74 -78 -127 -158 -105 -22 6 -51 19 -63 29 -23 17 -23 17
-4 41 18 22 20 23 43 7 13 -10 40 -17 61 -17 76 0 70 68 -10 109 -74 38 -101
90 -77 148 25 59 110 78 171 38z m306 15 c20 -6 47 -19 60 -29 22 -19 22 -20
4 -40 -17 -19 -21 -19 -47 -6 -37 20 -99 19 -127 -1 -72 -50 -68 -180 8 -219
34 -17 87 -19 126 -5 22 9 31 8 43 -5 14 -14 13 -17 -5 -36 -48 -48 -154 -44
-223 8 -114 87 -82 279 56 328 47 17 58 18 105 5z m353 -1 c75 -21 135 -106
135 -193 0 -42 -37 -113 -74 -140 -73 -56 -164 -54 -232 6 -48 42 -67 83 -67
143 0 82 51 152 129 180 48 17 59 18 109 4z m-1670 -34 c0 -29 -2 -30 -52 -33
l-53 -3 0 -150 0 -149 -30 0 -30 0 0 150 0 150 -50 0 -50 0 0 35 0 36 133 -3
132 -3 0 -30z m245 0 l0 -35 -70 0 -70 0 0 -35 0 -34 58 -3 c56 -3 57 -3 57
-33 0 -30 -1 -30 -57 -33 l-58 -3 0 -44 0 -44 78 -3 77 -3 0 -30 0 -30 -107
-3 -108 -3 0 186 0 185 100 0 100 0 0 -35z m130 -115 l0 -149 73 -3 72 -3 0
-30 0 -30 -102 -3 -103 -3 0 186 0 185 30 0 30 0 0 -150z m390 115 l0 -35 -70
0 -70 0 0 -35 0 -34 58 -3 c56 -3 57 -3 57 -33 0 -30 -1 -30 -57 -33 l-58 -3
0 -44 0 -44 78 -3 77 -3 0 -30 0 -30 -107 -3 -108 -3 0 186 0 185 100 0 100 0
0 -35z m1231 25 c56 -16 83 -51 83 -111 0 -66 -39 -109 -107 -116 l-46 -6 -3
-61 c-3 -61 -3 -61 -35 -64 l-33 -3 0 185 0 186 53 0 c28 0 68 -5 88 -10z
m339 -25 l0 -35 -70 0 -70 0 0 -35 0 -35 55 0 55 0 0 -35 0 -35 -55 0 -55 0 0
-45 0 -45 75 0 75 0 0 -35 0 -35 -105 0 -105 0 0 185 0 185 100 0 100 0 0 -35z"/>
<path d="M2274 4080 c-32 -13 -64 -59 -64 -92 0 -57 43 -107 92 -108 34 0 85
43 93 79 7 31 -12 88 -36 108 -21 17 -61 23 -85 13z"/>
<path d="M986 3678 c-36 -50 -5 -118 52 -118 16 0 36 8 45 18 23 25 22 85 -1
105 -27 25 -78 22 -96 -5z"/>
<path d="M2341 2794 c-60 -50 -60 -148 0 -198 75 -63 189 -3 189 99 0 102
-114 162 -189 99z"/>
</g>
</svg>
